<svg width="112" height="32" viewBox="0 0 112 32" fill="none" xmlns="http://www.w3.org/2000/svg">
<path d="M110.559 28.2635C110.559 29.966 109.151 31.3451 107.41 31.3451H4.35437C2.61391 31.3451 1.20117 29.966 1.20117 28.2635V3.6891C1.20117 1.9874 2.61391 0.603516 4.35437 0.603516H107.409C109.151 0.603516 110.558 1.9874 110.558 3.6891L110.559 28.2635Z" fill="#C22033"/>
<path d="M107.076 0.640091C108.973 0.640091 110.516 2.1446 110.516 3.99354V27.9539C110.516 29.8028 108.973 31.3073 107.076 31.3073H4.68172C2.78537 31.3073 1.24229 29.8028 1.24229 27.9539V3.99354C1.24229 2.1446 2.78537 0.640091 4.68172 0.640091H107.076ZM107.076 0.000150681H4.68172C2.43006 0.000150681 0.585938 1.79817 0.585938 3.99354V27.9539C0.585938 30.1492 2.43006 31.9473 4.68172 31.9473H107.076C109.328 31.9473 111.172 30.1492 111.172 27.9539V3.99354C111.172 1.79817 109.328 0.000150681 107.076 0.000150681Z" fill="#C22033"/>
<path d="M25.2654 15.8025C25.2417 13.2283 27.4272 11.976 27.5271 11.9177C26.2894 10.1582 24.3709 9.9178 23.6967 9.89863C22.0855 9.73331 20.5225 10.8387 19.7017 10.8387C18.8645 10.8387 17.6006 9.91461 16.2383 9.94176C14.4853 9.96812 12.8454 10.9577 11.9459 12.4943C10.0897 15.6275 11.4741 20.2319 13.2525 22.7645C14.1421 24.0049 15.1816 25.3898 16.5422 25.3411C17.8734 25.2876 18.3706 24.5136 19.977 24.5136C21.5686 24.5136 22.0355 25.3411 23.4232 25.3099C24.8518 25.2876 25.7512 24.064 26.6097 22.8125C27.6377 21.3908 28.0506 19.9907 28.067 19.9188C28.0334 19.9077 25.2925 18.8878 25.2654 15.8025Z" fill="white"/>
<path d="M22.6441 8.23259C23.3601 7.35964 23.8499 6.172 23.714 4.9668C22.6777 5.01152 21.3818 5.66564 20.6356 6.51943C19.9753 7.27178 19.3855 8.50494 19.5379 9.66462C20.7019 9.74928 21.8971 9.09197 22.6441 8.23259Z" fill="white"/>
<path d="M40.7654 7.99302C40.7654 8.93306 40.4763 9.64069 39.8988 10.1159C39.3639 10.5544 38.6037 10.774 37.6191 10.774C37.1308 10.774 36.7131 10.7532 36.3633 10.7117V5.57542C36.8196 5.50354 37.311 5.4668 37.8419 5.4668C38.7798 5.4668 39.4867 5.66567 39.9635 6.06341C40.4976 6.51307 40.7654 7.156 40.7654 7.99302ZM39.8603 8.01618C39.8603 7.40679 39.6948 6.93956 39.3639 6.6137C39.0329 6.28864 38.5496 6.12571 37.9131 6.12571C37.6428 6.12571 37.4126 6.14328 37.2218 6.18002V10.0848C37.3274 10.1007 37.5208 10.1079 37.8017 10.1079C38.4587 10.1079 38.9657 9.92981 39.3229 9.5736C39.6801 9.21739 39.8603 8.69825 39.8603 8.01618Z" fill="white"/>
<path d="M45.5653 8.81473C45.5653 9.39377 45.3957 9.86818 45.0566 10.2404C44.701 10.6229 44.23 10.8138 43.6419 10.8138C43.075 10.8138 42.6237 10.6309 42.287 10.2635C41.9511 9.89694 41.7832 9.4345 41.7832 8.87702C41.7832 8.29399 41.956 7.81558 42.3034 7.4442C42.6507 7.07281 43.1176 6.88672 43.7058 6.88672C44.2726 6.88672 44.7281 7.06962 45.0729 7.43621C45.4006 7.79242 45.5653 8.25246 45.5653 8.81473ZM44.6748 8.84188C44.6748 8.49446 44.5978 8.19655 44.4446 7.94816C44.2644 7.64786 44.008 7.49771 43.6746 7.49771C43.3298 7.49771 43.0676 7.64786 42.8874 7.94816C42.7334 8.19655 42.6572 8.49925 42.6572 8.85706C42.6572 9.20448 42.7342 9.50239 42.8874 9.75078C43.0734 10.0511 43.3322 10.2012 43.6664 10.2012C43.9941 10.2012 44.2513 10.0487 44.4365 9.74279C44.5954 9.48961 44.6748 9.18931 44.6748 8.84188Z" fill="white"/>
<path d="M52.0011 6.96289L50.7928 10.7279H50.0064L49.5059 9.09296C49.379 8.68484 49.2758 8.27911 49.1955 7.87658H49.1799C49.1054 8.29029 49.0022 8.69522 48.8695 9.09296L48.3378 10.7279H47.5424L46.4062 6.96289H47.2885L47.7251 8.75273C47.8308 9.17603 47.9176 9.57936 47.9872 9.96113H48.0028C48.0667 9.64645 48.1723 9.24551 48.3214 8.76072L48.8695 6.96369H49.569L50.0941 8.72238C50.2211 9.15127 50.3243 9.56418 50.4037 9.96193H50.4275C50.4856 9.57457 50.5733 9.16165 50.6896 8.72238L51.1582 6.96369H52.0011V6.96289Z" fill="white"/>
<path d="M56.4512 10.7288H55.5927V8.57237C55.5927 7.90787 55.3338 7.57562 54.8145 7.57562C54.5597 7.57562 54.3541 7.66667 54.1944 7.84957C54.0363 8.03247 53.956 8.24811 53.956 8.4949V10.728H53.0975V8.03965C53.0975 7.709 53.0869 7.3504 53.0664 6.96224H53.8208L53.861 7.55086H53.8847C53.9847 7.36797 54.1338 7.21702 54.3295 7.09642C54.5622 6.95585 54.8227 6.88477 55.1077 6.88477C55.4682 6.88477 55.768 6.99818 56.0064 7.2258C56.3029 7.50454 56.4512 7.92065 56.4512 8.47334V10.7288Z" fill="white"/>
<path d="M58.8186 10.7288H57.9609V5.23633H58.8186V10.7288Z" fill="white"/>
<path d="M63.8719 8.81473C63.8719 9.39377 63.7023 9.86818 63.3632 10.2404C63.0077 10.6229 62.5359 10.8138 61.9485 10.8138C61.3808 10.8138 60.9295 10.6309 60.5936 10.2635C60.2578 9.89694 60.0898 9.4345 60.0898 8.87702C60.0898 8.29399 60.2627 7.81558 60.61 7.4442C60.9573 7.07281 61.4243 6.88672 62.0116 6.88672C62.5793 6.88672 63.0339 7.06962 63.3796 7.43621C63.7072 7.79242 63.8719 8.25246 63.8719 8.81473ZM62.9806 8.84188C62.9806 8.49446 62.9036 8.19655 62.7505 7.94816C62.5711 7.64786 62.3139 7.49771 61.9813 7.49771C61.6356 7.49771 61.3735 7.64786 61.1941 7.94816C61.0401 8.19655 60.9639 8.49925 60.9639 8.85706C60.9639 9.20448 61.0409 9.50239 61.1941 9.75078C61.38 10.0511 61.6389 10.2012 61.9731 10.2012C62.3008 10.2012 62.5571 10.0487 62.7423 9.74279C62.902 9.48961 62.9806 9.18931 62.9806 8.84188Z" fill="white"/>
<path d="M68.0276 10.7284H67.2567L67.1928 10.2947H67.1691C66.9053 10.6405 66.5293 10.8138 66.0411 10.8138C65.6766 10.8138 65.3817 10.6996 65.1597 10.4728C64.9582 10.2667 64.8574 10.0103 64.8574 9.70605C64.8574 9.24601 65.054 8.89539 65.4497 8.65259C65.8445 8.4098 66.3999 8.29079 67.115 8.29638V8.2261C67.115 7.73012 66.848 7.48253 66.3131 7.48253C65.9322 7.48253 65.5963 7.57598 65.3063 7.76127L65.1318 7.21178C65.4906 6.99534 65.9338 6.88672 66.4564 6.88672C67.4656 6.88672 67.9719 7.40586 67.9719 8.44414V9.83065C67.9719 10.2068 67.9907 10.5063 68.0276 10.7284ZM67.1363 9.4345V8.85386C66.1894 8.83789 65.7159 9.09107 65.7159 9.61261C65.7159 9.80908 65.77 9.95604 65.8805 10.0543C65.9911 10.1525 66.132 10.2012 66.3 10.2012C66.4884 10.2012 66.6645 10.1429 66.825 10.0271C66.9864 9.91051 67.0855 9.76276 67.1224 9.58146C67.1314 9.54072 67.1363 9.49121 67.1363 9.4345Z" fill="white"/>
<path d="M72.9049 10.7288H72.1431L72.103 10.1242H72.0792C71.8359 10.5843 71.4215 10.8143 70.839 10.8143C70.3738 10.8143 69.9863 10.6362 69.6791 10.28C69.3719 9.92377 69.2188 9.46133 69.2188 8.89347C69.2188 8.28408 69.385 7.7905 69.7193 7.41352C70.0428 7.06211 70.4393 6.8864 70.9111 6.8864C71.4296 6.8864 71.7925 7.05652 71.999 7.39755H72.0153V5.23633H72.8746V9.71452C72.8746 10.0811 72.8845 10.4189 72.9049 10.7288ZM72.0153 9.14106V8.5133C72.0153 8.40468 72.0072 8.31683 71.9916 8.24974C71.9433 8.04847 71.8392 7.87915 71.6811 7.74258C71.5214 7.60601 71.3289 7.53732 71.1069 7.53732C70.7866 7.53732 70.5359 7.66111 70.3516 7.9095C70.169 8.15789 70.0764 8.47497 70.0764 8.86233C70.0764 9.23451 70.1641 9.53641 70.3402 9.76883C70.5261 10.0164 70.7768 10.1402 71.0905 10.1402C71.3723 10.1402 71.5976 10.0372 71.7688 9.83032C71.9342 9.63944 72.0153 9.40942 72.0153 9.14106Z" fill="white"/>
<path d="M80.2469 8.81473C80.2469 9.39377 80.0773 9.86818 79.7382 10.2404C79.3827 10.6229 78.9125 10.8138 78.3235 10.8138C77.7575 10.8138 77.3061 10.6309 76.9686 10.2635C76.6328 9.89694 76.4648 9.4345 76.4648 8.87702C76.4648 8.29399 76.6377 7.81558 76.985 7.4442C77.3323 7.07281 77.7992 6.88672 78.3882 6.88672C78.9543 6.88672 79.4105 7.06962 79.7546 7.43621C80.0822 7.79242 80.2469 8.25246 80.2469 8.81473ZM79.3573 8.84188C79.3573 8.49446 79.2803 8.19655 79.1271 7.94816C78.9461 7.64786 78.6905 7.49771 78.3563 7.49771C78.0122 7.49771 77.7501 7.64786 77.5691 7.94816C77.4151 8.19655 77.3389 8.49925 77.3389 8.85706C77.3389 9.20448 77.4159 9.50239 77.5691 9.75078C77.755 10.0511 78.0139 10.2012 78.3481 10.2012C78.6757 10.2012 78.9338 10.0487 79.1189 9.74279C79.277 9.48961 79.3573 9.18931 79.3573 8.84188Z" fill="white"/>
<path d="M84.8625 10.7288H84.0048V8.57237C84.0048 7.90787 83.7459 7.57562 83.2258 7.57562C82.971 7.57562 82.7654 7.66667 82.6065 7.84957C82.4476 8.03247 82.3681 8.24811 82.3681 8.4949V10.728H81.5088V8.03965C81.5088 7.709 81.499 7.3504 81.4785 6.96224H82.2321L82.2723 7.55086H82.296C82.3968 7.36797 82.5459 7.21702 82.7408 7.09642C82.9743 6.95585 83.234 6.88477 83.5199 6.88477C83.8795 6.88477 84.1793 6.99818 84.4176 7.2258C84.715 7.50454 84.8625 7.92065 84.8625 8.47334V10.7288Z" fill="white"/>
<path d="M90.6409 7.59H89.6955V9.41897C89.6955 9.8838 89.8635 10.1162 90.1961 10.1162C90.3501 10.1162 90.4778 10.1034 90.5786 10.0771L90.6007 10.712C90.4312 10.7743 90.2083 10.8055 89.9339 10.8055C89.5948 10.8055 89.331 10.7048 89.1402 10.5036C88.9485 10.3023 88.8535 9.96367 88.8535 9.48846V7.59H88.2891V6.96304H88.8535V6.27298L89.6947 6.02539V6.96224H90.64V7.59H90.6409Z" fill="white"/>
<path d="M95.1857 10.7288H94.3264V8.58838C94.3264 7.9135 94.0675 7.57566 93.549 7.57566C93.1509 7.57566 92.8789 7.77133 92.7298 8.16268C92.7044 8.24495 92.6897 8.34558 92.6897 8.46379V10.728H91.832V5.23633H92.6897V7.50537H92.7061C92.9764 7.09246 93.3639 6.8864 93.866 6.8864C94.2215 6.8864 94.5156 6.99981 94.7491 7.22743C95.0399 7.51096 95.1857 7.93266 95.1857 8.49014V10.7288Z" fill="white"/>
<path d="M99.8725 8.66715C99.8725 8.8173 99.8611 8.94349 99.8406 9.04652H97.266C97.2775 9.4187 97.4003 9.70223 97.6387 9.89871C97.8566 10.0744 98.1376 10.1623 98.4816 10.1623C98.8625 10.1623 99.2098 10.1032 99.5228 9.98417L99.6571 10.5656C99.2909 10.7205 98.8601 10.798 98.3612 10.798C97.7632 10.798 97.2922 10.6263 96.9514 10.2829C96.609 9.93944 96.4395 9.4786 96.4395 8.90036C96.4395 8.3325 96.5976 7.85968 96.9162 7.48271C97.2488 7.08017 97.6985 6.87891 98.2662 6.87891C98.8216 6.87891 99.2434 7.08017 99.5285 7.48271C99.7587 7.80218 99.8725 8.19752 99.8725 8.66715ZM99.0534 8.4507C99.0599 8.20231 99.0034 7.98827 98.8871 7.80777C98.738 7.57535 98.5111 7.45875 98.2039 7.45875C97.9238 7.45875 97.6952 7.57216 97.5207 7.79978C97.3782 7.98108 97.2938 8.19752 97.266 8.4507H99.0534Z" fill="white"/>
<path d="M44.5294 25.162H42.6691L41.6501 22.04H38.108L37.1373 25.162H35.3262L38.8354 14.5332H41.0029L44.5294 25.162ZM41.3429 20.7301L40.4213 17.9547C40.3238 17.6712 40.1412 17.0035 39.8717 15.9525H39.8389C39.7316 16.4045 39.5588 17.0722 39.3212 17.9547L38.416 20.7301H41.3429Z" fill="white"/>
<path d="M53.5542 21.235C53.5542 22.5384 53.193 23.5687 52.4705 24.3251C51.8233 24.9984 51.0197 25.3346 50.0605 25.3346C49.0251 25.3346 48.2813 24.972 47.8283 24.2468H47.7955V28.2841H46.0491V20.0202C46.0491 19.2008 46.027 18.3598 45.9844 17.4972H47.5203L47.6178 18.712H47.6505C48.233 17.7967 49.1168 17.3398 50.303 17.3398C51.2303 17.3398 52.0044 17.6969 52.6236 18.4117C53.2446 19.1273 53.5542 20.0681 53.5542 21.235ZM51.775 21.2973C51.775 20.5513 51.603 19.9363 51.2573 19.4523C50.8797 18.9476 50.3726 18.6952 49.7369 18.6952C49.3061 18.6952 48.9145 18.8358 48.5647 19.1129C48.2141 19.3924 47.9848 19.7574 47.8774 20.2095C47.8234 20.4203 47.7963 20.5929 47.7963 20.7286V22.0065C47.7963 22.564 47.9716 23.0344 48.3222 23.4186C48.6728 23.8027 49.1283 23.9944 49.6886 23.9944C50.3464 23.9944 50.8584 23.7468 51.2245 23.2533C51.5915 22.7589 51.775 22.1072 51.775 21.2973Z" fill="white"/>
<path d="M62.5944 21.235C62.5944 22.5384 62.2332 23.5687 61.5098 24.3251C60.8635 24.9984 60.0599 25.3346 59.1007 25.3346C58.0653 25.3346 57.3215 24.972 56.8693 24.2468H56.8365V28.2841H55.0901V20.0202C55.0901 19.2008 55.068 18.3598 55.0254 17.4972H56.5613L56.6588 18.712H56.6916C57.2732 17.7967 58.157 17.3398 59.344 17.3398C60.2705 17.3398 61.0446 17.6969 61.6655 18.4117C62.2839 19.1273 62.5944 20.0681 62.5944 21.235ZM60.8152 21.2973C60.8152 20.5513 60.6423 19.9363 60.2967 19.4523C59.919 18.9476 59.4136 18.6952 58.7771 18.6952C58.3454 18.6952 57.9547 18.8358 57.6041 19.1129C57.2535 19.3924 57.025 19.7574 56.9176 20.2095C56.8644 20.4203 56.8365 20.5929 56.8365 20.7286V22.0065C56.8365 22.564 57.0118 23.0344 57.3608 23.4186C57.7114 23.8019 58.1669 23.9944 58.7288 23.9944C59.3866 23.9944 59.8986 23.7468 60.2647 23.2533C60.6317 22.7589 60.8152 22.1072 60.8152 21.2973Z" fill="white"/>
<path d="M72.7044 22.1808C72.7044 23.0849 72.3824 23.8205 71.7361 24.3884C71.0259 25.009 70.0372 25.3188 68.7667 25.3188C67.5936 25.3188 66.6533 25.0984 65.9414 24.6567L66.3461 23.2375C67.1128 23.6895 67.9541 23.9164 68.8707 23.9164C69.5285 23.9164 70.0405 23.771 70.4083 23.4819C70.7744 23.1928 70.9571 22.8046 70.9571 22.3206C70.9571 21.8893 70.8064 21.5259 70.5041 21.2312C70.2035 20.9365 69.7013 20.6626 69.0001 20.4094C67.0915 19.7153 66.138 18.6986 66.138 17.3616C66.138 16.4879 66.4722 15.7714 67.1415 15.214C67.8083 14.6557 68.6979 14.377 69.8103 14.377C70.8023 14.377 71.6264 14.5455 72.2841 14.8817L71.8475 16.2698C71.2332 15.944 70.5385 15.781 69.7611 15.781C69.1468 15.781 68.6667 15.9288 68.3227 16.2227C68.0319 16.4855 67.8861 16.8057 67.8861 17.1851C67.8861 17.6052 68.0524 17.9526 68.3866 18.2258C68.6774 18.4782 69.2058 18.7513 69.9725 19.046C70.9104 19.4142 71.5993 19.8447 72.0425 20.3383C72.484 20.8303 72.7044 21.4461 72.7044 22.1808Z" fill="white"/>
<path d="M78.4786 18.7754H76.5535V22.4965C76.5535 23.4429 76.8927 23.9157 77.5726 23.9157C77.8847 23.9157 78.1435 23.8893 78.3483 23.8366L78.3966 25.1297C78.0526 25.2551 77.5996 25.3182 77.0385 25.3182C76.3487 25.3182 75.8097 25.1129 75.4206 24.7032C75.0332 24.2927 74.8382 23.6042 74.8382 22.637V18.7738H73.6914V17.4959H74.8382V16.0927L76.5535 15.5879V17.4959H78.4786V18.7754Z" fill="white"/>
<path d="M87.1641 21.2653C87.1641 22.4434 86.8184 23.4106 86.1287 24.1669C85.4054 24.9457 84.4453 25.3338 83.2485 25.3338C82.0952 25.3338 81.1769 24.9608 80.4921 24.2149C79.8072 23.4689 79.4648 22.5273 79.4648 21.3923C79.4648 20.2047 79.8171 19.2319 80.524 18.4756C81.2293 17.7184 82.1812 17.3398 83.378 17.3398C84.5313 17.3398 85.4594 17.7128 86.1598 18.4596C86.8299 19.184 87.1641 20.1192 87.1641 21.2653ZM85.3521 21.3205C85.3521 20.6136 85.1973 20.0074 84.8836 19.5019C84.5174 18.8901 83.994 18.585 83.3157 18.585C82.6137 18.585 82.0804 18.8909 81.7142 19.5019C81.4005 20.0082 81.2457 20.624 81.2457 21.3524C81.2457 22.0592 81.4005 22.6654 81.7142 23.1702C82.0919 23.782 82.6194 24.0871 83.3001 24.0871C83.9669 24.0871 84.4904 23.7756 84.868 23.1542C85.1899 22.6391 85.3521 22.0265 85.3521 21.3205Z" fill="white"/>
<path d="M92.8403 18.9947C92.6675 18.9636 92.4832 18.9476 92.2899 18.9476C91.6755 18.9476 91.2004 19.1736 90.8662 19.6265C90.5754 20.0258 90.4295 20.5306 90.4295 21.14V25.1613H88.6839L88.7003 19.9108C88.7003 19.0275 88.6782 18.2232 88.6348 17.498H90.1559L90.2198 18.9644H90.2682C90.4525 18.4604 90.7433 18.0547 91.1414 17.7504C91.5305 17.4764 91.9507 17.3398 92.4037 17.3398C92.5651 17.3398 92.7109 17.351 92.8403 17.371V18.9947Z" fill="white"/>
<path d="M100.65 20.9673C100.65 21.2724 100.629 21.5296 100.586 21.7397H95.3466C95.3671 22.4968 95.6202 23.0759 96.1068 23.4752C96.5483 23.8322 97.1193 24.0111 97.8205 24.0111C98.5962 24.0111 99.304 23.8905 99.9404 23.6485L100.214 24.8305C99.4702 25.1468 98.5921 25.3042 97.5788 25.3042C96.3599 25.3042 95.4031 24.9543 94.7069 24.2555C94.0122 23.5567 93.6641 22.6182 93.6641 21.441C93.6641 20.2853 93.9876 19.3229 94.6356 18.5553C95.3138 17.7359 96.2305 17.3262 97.3839 17.3262C98.5167 17.3262 99.3744 17.7359 99.9568 18.5553C100.418 19.2063 100.65 20.0113 100.65 20.9673ZM98.9845 20.5257C98.996 20.0209 98.8821 19.5848 98.6454 19.2166C98.3431 18.743 97.8786 18.5066 97.2536 18.5066C96.6827 18.5066 96.2182 18.7374 95.8635 19.2007C95.5727 19.5689 95.3999 20.0105 95.3466 20.5249H98.9845V20.5257Z" fill="white"/>
</svg>
