
<svg width="110" height="32" viewBox="0 0 110 32" fill="none" xmlns="http://www.w3.org/2000/svg">
<path d="M105.926 32H4.07407C1.83435 32 0 30.199 0 28V4C0 1.801 1.83435 1.90735e-06 4.07407 1.90735e-06H105.926C108.166 1.90735e-06 110 1.801 110 4V28C110 30.199 108.166 32 105.926 32Z" fill="#C22033"/>
<path d="M24.5495 15.8282C24.5259 13.2498 26.6998 11.9954 26.7992 11.937C25.5681 10.1746 23.6598 9.93381 22.9892 9.91461C21.3864 9.74901 19.8318 10.8562 19.0153 10.8562C18.1826 10.8562 16.9253 9.93061 15.5703 9.95781C13.8266 9.98421 12.1953 10.9754 11.3006 12.5146C9.45428 15.653 10.8313 20.265 12.6003 22.8018C13.4852 24.0442 14.5192 25.4314 15.8726 25.3826C17.1966 25.329 17.6912 24.5538 19.2891 24.5538C20.8723 24.5538 21.3367 25.3826 22.717 25.3514C24.1381 25.329 25.0327 24.1034 25.8866 22.8498C26.9092 21.4258 27.3199 20.0234 27.3362 19.9514C27.3028 19.9402 24.5764 18.9186 24.5495 15.8282Z" fill="white"/>
<path d="M21.9421 8.24581C22.6543 7.37141 23.1415 6.18181 23.0063 4.97461C21.9755 5.01941 20.6865 5.67461 19.9442 6.52981C19.2875 7.28341 18.7008 8.51861 18.8524 9.68021C20.0102 9.76501 21.199 9.10661 21.9421 8.24581Z" fill="white"/>
<path d="M39.9667 8.00696C39.9667 8.94856 39.6791 9.65736 39.1046 10.1334C38.5726 10.5726 37.8164 10.7926 36.837 10.7926C36.3514 10.7926 35.9358 10.7718 35.5879 10.7302V5.58536C36.0417 5.51336 36.5306 5.47656 37.0586 5.47656C37.9916 5.47656 38.6948 5.67576 39.169 6.07416C39.7003 6.52456 39.9667 7.16856 39.9667 8.00696ZM39.0663 8.03016C39.0663 7.41976 38.9017 6.95176 38.5726 6.62536C38.2434 6.29976 37.7626 6.13656 37.1295 6.13656C36.8606 6.13656 36.6317 6.15416 36.4418 6.19096V10.1022C36.5469 10.1182 36.7392 10.1254 37.0187 10.1254C37.6722 10.1254 38.1766 9.94696 38.5318 9.59016C38.8871 9.23336 39.0663 8.71336 39.0663 8.03016Z" fill="white"/>
<path d="M44.7405 8.82768C44.7405 9.40768 44.5718 9.88288 44.2345 10.2557C43.8809 10.6389 43.4124 10.8301 42.8273 10.8301C42.2635 10.8301 41.8145 10.6469 41.4796 10.2789C41.1456 9.91168 40.9785 9.44848 40.9785 8.89008C40.9785 8.30608 41.1504 7.82688 41.4959 7.45488C41.8414 7.08288 42.3058 6.89648 42.8909 6.89648C43.4547 6.89648 43.9078 7.07968 44.2508 7.44688C44.5767 7.80368 44.7405 8.26448 44.7405 8.82768ZM43.8548 8.85488C43.8548 8.50688 43.7782 8.20848 43.6258 7.95968C43.4466 7.65888 43.1916 7.50848 42.8599 7.50848C42.5169 7.50848 42.2561 7.65888 42.0769 7.95968C41.9237 8.20848 41.8479 8.51168 41.8479 8.87008C41.8479 9.21808 41.9245 9.51648 42.0769 9.76528C42.2618 10.0661 42.5193 10.2165 42.8518 10.2165C43.1777 10.2165 43.4336 10.0637 43.6177 9.75728C43.7758 9.50368 43.8548 9.20288 43.8548 8.85488Z" fill="white"/>
<path d="M51.1414 6.97461L49.9395 10.7458H49.1573L48.6594 9.10821C48.5331 8.69941 48.4305 8.29301 48.3506 7.88981H48.3351C48.261 8.30421 48.1583 8.70981 48.0263 9.10821L47.4975 10.7458H46.7063L45.5762 6.97461H46.4537L46.888 8.76741C46.9931 9.19141 47.0795 9.59541 47.1488 9.97781H47.1642C47.2278 9.66261 47.3329 9.26101 47.4812 8.77541L48.0263 6.97541H48.7222L49.2445 8.73701C49.3708 9.16661 49.4734 9.58021 49.5525 9.97861H49.5761C49.6339 9.59061 49.7211 9.17701 49.8368 8.73701L50.3029 6.97541H51.1414V6.97461Z" fill="white"/>
<path d="M55.568 10.7449H54.7141V8.58493C54.7141 7.91933 54.4566 7.58653 53.94 7.58653C53.6866 7.58653 53.4821 7.67773 53.3232 7.86093C53.1659 8.04413 53.0861 8.26013 53.0861 8.50733V10.7441H52.2321V8.05133C52.2321 7.72013 52.2215 7.36093 52.2012 6.97213H52.9516L52.9915 7.56173H53.0152C53.1146 7.37853 53.2629 7.22733 53.4576 7.10653C53.689 6.96573 53.9481 6.89453 54.2317 6.89453C54.5902 6.89453 54.8884 7.00813 55.1255 7.23613C55.4205 7.51533 55.568 7.93213 55.568 8.48573V10.7449Z" fill="white"/>
<path d="M57.9234 10.7457H57.0703V5.24414H57.9234V10.7457Z" fill="white"/>
<path d="M62.9515 8.82768C62.9515 9.40768 62.7828 9.88288 62.4455 10.2557C62.0918 10.6389 61.6225 10.8301 61.0383 10.8301C60.4736 10.8301 60.0246 10.6469 59.6906 10.2789C59.3565 9.91168 59.1895 9.44848 59.1895 8.89008C59.1895 8.30608 59.3614 7.82688 59.7069 7.45488C60.0523 7.08288 60.5168 6.89648 61.101 6.89648C61.6657 6.89648 62.1179 7.07968 62.4617 7.44688C62.7877 7.80368 62.9515 8.26448 62.9515 8.82768ZM62.0649 8.85488C62.0649 8.50688 61.9883 8.20848 61.836 7.95968C61.6575 7.65888 61.4017 7.50848 61.0709 7.50848C60.727 7.50848 60.4663 7.65888 60.2878 7.95968C60.1346 8.20848 60.0589 8.51168 60.0589 8.87008C60.0589 9.21808 60.1355 9.51648 60.2878 9.76528C60.4728 10.0661 60.7303 10.2165 61.0627 10.2165C61.3886 10.2165 61.6437 10.0637 61.8278 9.75728C61.9867 9.50368 62.0649 9.20288 62.0649 8.85488Z" fill="white"/>
<path d="M67.083 10.7445H66.3163L66.2527 10.3101H66.2291C65.9667 10.6565 65.5927 10.8301 65.1071 10.8301C64.7445 10.8301 64.4512 10.7157 64.2304 10.4885C64.0299 10.2821 63.9297 10.0253 63.9297 9.72048C63.9297 9.25968 64.1252 8.90848 64.5188 8.66528C64.9115 8.42208 65.464 8.30288 66.1753 8.30848V8.23808C66.1753 7.74128 65.9097 7.49328 65.3776 7.49328C64.9987 7.49328 64.6647 7.58688 64.3762 7.77248L64.2026 7.22208C64.5595 7.00528 65.0004 6.89648 65.5202 6.89648C66.5241 6.89648 67.0276 7.41648 67.0276 8.45648V9.84528C67.0276 10.2221 67.0464 10.5221 67.083 10.7445ZM66.1965 9.44848V8.86688C65.2546 8.85088 64.7836 9.10448 64.7836 9.62688C64.7836 9.82368 64.8374 9.97088 64.9474 10.0693C65.0574 10.1677 65.1975 10.2165 65.3646 10.2165C65.552 10.2165 65.7272 10.1581 65.8869 10.0421C66.0474 9.92528 66.146 9.77728 66.1826 9.59568C66.1916 9.55488 66.1965 9.50528 66.1965 9.44848Z" fill="white"/>
<path d="M71.9362 10.7457H71.1784L71.1385 10.1401H71.1149C70.8729 10.6009 70.4606 10.8313 69.8812 10.8313C69.4184 10.8313 69.033 10.6529 68.7275 10.2961C68.4219 9.93934 68.2695 9.47614 68.2695 8.90734C68.2695 8.29694 68.4349 7.80254 68.7674 7.42494C69.0892 7.07294 69.4836 6.89694 69.9529 6.89694C70.4687 6.89694 70.8297 7.06734 71.035 7.40894H71.0513V5.24414H71.906V9.72974C71.906 10.0969 71.9158 10.4353 71.9362 10.7457ZM71.0513 9.15534V8.52654C71.0513 8.41774 71.0431 8.32974 71.0277 8.26254C70.9796 8.06094 70.8761 7.89134 70.7189 7.75454C70.56 7.61774 70.3685 7.54894 70.1477 7.54894C69.8291 7.54894 69.5797 7.67294 69.3964 7.92174C69.2147 8.17054 69.1226 8.48814 69.1226 8.87614C69.1226 9.24894 69.2098 9.55134 69.385 9.78414C69.57 10.0321 69.8193 10.1561 70.1314 10.1561C70.4117 10.1561 70.6357 10.0529 70.806 9.84574C70.9706 9.65454 71.0513 9.42414 71.0513 9.15534Z" fill="white"/>
<path d="M79.2386 8.82768C79.2386 9.40768 79.0699 9.88288 78.7326 10.2557C78.3789 10.6389 77.9112 10.8301 77.3254 10.8301C76.7623 10.8301 76.3134 10.6469 75.9777 10.2789C75.6436 9.91168 75.4766 9.44848 75.4766 8.89008C75.4766 8.30608 75.6485 7.82688 75.994 7.45488C76.3395 7.08288 76.8039 6.89648 77.3897 6.89648C77.9528 6.89648 78.4066 7.07968 78.7489 7.44688C79.0748 7.80368 79.2386 8.26448 79.2386 8.82768ZM78.3537 8.85488C78.3537 8.50688 78.2771 8.20848 78.1247 7.95968C77.9446 7.65888 77.6904 7.50848 77.358 7.50848C77.0157 7.50848 76.755 7.65888 76.5749 7.95968C76.4217 8.20848 76.346 8.51168 76.346 8.87008C76.346 9.21808 76.4226 9.51648 76.5749 9.76528C76.7599 10.0661 77.0174 10.2165 77.3498 10.2165C77.6757 10.2165 77.9324 10.0637 78.1166 9.75728C78.2738 9.50368 78.3537 9.20288 78.3537 8.85488Z" fill="white"/>
<path d="M83.8308 10.7449H82.9777V8.58493C82.9777 7.91933 82.7202 7.58653 82.2028 7.58653C81.9494 7.58653 81.7449 7.67773 81.5868 7.86093C81.4288 8.04413 81.3497 8.26013 81.3497 8.50733V10.7441H80.495V8.05133C80.495 7.72013 80.4852 7.36093 80.4648 6.97213H81.2145L81.2544 7.56173H81.278C81.3783 7.37853 81.5265 7.22733 81.7205 7.10653C81.9527 6.96573 82.211 6.89453 82.4954 6.89453C82.8531 6.89453 83.1513 7.00813 83.3884 7.23613C83.6842 7.51533 83.8308 7.93213 83.8308 8.48573V10.7449Z" fill="white"/>
<path d="M89.5776 7.60236H88.6373V9.43436C88.6373 9.89996 88.8043 10.1328 89.1352 10.1328C89.2883 10.1328 89.4155 10.12 89.5157 10.0936L89.5377 10.7296C89.369 10.792 89.1474 10.8232 88.8744 10.8232C88.5371 10.8232 88.2747 10.7224 88.0849 10.5208C87.8942 10.3192 87.7997 9.97996 87.7997 9.50396V7.60236H87.2383V6.97436H87.7997V6.28316L88.6365 6.03516V6.97356H89.5768V7.60236H89.5776Z" fill="white"/>
<path d="M94.0976 10.7457H93.2428V8.60174C93.2428 7.92574 92.9854 7.58734 92.4696 7.58734C92.0736 7.58734 91.8031 7.78334 91.6548 8.17534C91.6295 8.25774 91.6148 8.35854 91.6148 8.47694V10.7449H90.7617V5.24414H91.6148V7.51694H91.6311C91.9 7.10334 92.2854 6.89694 92.7849 6.89694C93.1385 6.89694 93.4311 7.01054 93.6633 7.23854C93.9525 7.52254 94.0976 7.94494 94.0976 8.50334V10.7457Z" fill="white"/>
<path d="M98.7606 8.68182C98.7606 8.83222 98.7492 8.95862 98.7288 9.06182H96.1679C96.1793 9.43462 96.3015 9.71862 96.5386 9.91542C96.7553 10.0914 97.0348 10.1794 97.377 10.1794C97.7559 10.1794 98.1014 10.1202 98.4127 10.001L98.5463 10.5834C98.1821 10.7386 97.7535 10.8162 97.2573 10.8162C96.6624 10.8162 96.1939 10.6442 95.855 10.3002C95.5144 9.95622 95.3457 9.49462 95.3457 8.91542C95.3457 8.34662 95.503 7.87302 95.8199 7.49542C96.1507 7.09222 96.5981 6.89062 97.1627 6.89062C97.7152 6.89062 98.1348 7.09222 98.4184 7.49542C98.6473 7.81542 98.7606 8.21142 98.7606 8.68182ZM97.9458 8.46502C97.9523 8.21622 97.8961 8.00182 97.7804 7.82102C97.6321 7.58822 97.4064 7.47142 97.1008 7.47142C96.8221 7.47142 96.5948 7.58502 96.4213 7.81302C96.2795 7.99462 96.1956 8.21142 96.1679 8.46502H97.9458Z" fill="white"/>
<path d="M43.7111 25.203H41.8606L40.847 22.0758H37.3238L36.3582 25.203H34.5566L38.0473 14.5566H40.2033L43.7111 25.203ZM40.5415 20.7638L39.6248 17.9838C39.5278 17.6998 39.3461 17.031 39.078 15.9782H39.0455C38.9387 16.431 38.7668 17.0998 38.5305 17.9838L37.6301 20.7638H40.5415Z" fill="white"/>
<path d="M52.6879 21.2707C52.6879 22.5763 52.3286 23.6083 51.6099 24.3659C50.9662 25.0403 50.1669 25.3771 49.2127 25.3771C48.1828 25.3771 47.4429 25.0139 46.9924 24.2875H46.9598V28.3315H45.2226V20.0539C45.2226 19.2331 45.2006 18.3907 45.1582 17.5267H46.686L46.7829 18.7435H46.8155C47.3949 17.8267 48.2741 17.3691 49.4539 17.3691C50.3763 17.3691 51.1463 17.7267 51.7623 18.4427C52.3799 19.1595 52.6879 20.1019 52.6879 21.2707ZM50.9181 21.3331C50.9181 20.5859 50.747 19.9699 50.4032 19.4851C50.0275 18.9795 49.5232 18.7267 48.8909 18.7267C48.4623 18.7267 48.0728 18.8675 47.7249 19.1451C47.3761 19.4251 47.148 19.7907 47.0412 20.2435C46.9875 20.4547 46.9606 20.6275 46.9606 20.7635V22.0435C46.9606 22.6019 47.1349 23.0731 47.4837 23.4579C47.8324 23.8427 48.2855 24.0347 48.8428 24.0347C49.4971 24.0347 50.0064 23.7867 50.3706 23.2923C50.7356 22.7971 50.9181 22.1443 50.9181 21.3331Z" fill="white"/>
<path d="M61.6812 21.2707C61.6812 22.5763 61.3219 23.6083 60.6024 24.3659C59.9595 25.0403 59.1602 25.3771 58.206 25.3771C57.1761 25.3771 56.4363 25.0139 55.9865 24.2875H55.9539V28.3315H54.2167V20.0539C54.2167 19.2331 54.1947 18.3907 54.1523 17.5267H55.6801L55.7771 18.7435H55.8097C56.3882 17.8267 57.2674 17.3691 58.4481 17.3691C59.3696 17.3691 60.1396 17.7267 60.7572 18.4427C61.3724 19.1595 61.6812 20.1019 61.6812 21.2707ZM59.9115 21.3331C59.9115 20.5859 59.7395 19.9699 59.3957 19.4851C59.02 18.9795 58.5173 18.7267 57.8842 18.7267C57.4548 18.7267 57.0661 18.8675 56.7174 19.1451C56.3686 19.4251 56.1413 19.7907 56.0346 20.2435C55.9816 20.4547 55.9539 20.6275 55.9539 20.7635V22.0435C55.9539 22.6019 56.1283 23.0731 56.4754 23.4579C56.8241 23.8419 57.2772 24.0347 57.8361 24.0347C58.4904 24.0347 58.9997 23.7867 59.3639 23.2923C59.7289 22.7971 59.9115 22.1443 59.9115 21.3331Z" fill="white"/>
<path d="M71.7349 22.2172C71.7349 23.1228 71.4147 23.8596 70.7718 24.4284C70.0654 25.05 69.0819 25.3604 67.8181 25.3604C66.6513 25.3604 65.7159 25.1396 65.0078 24.6972L65.4103 23.2756C66.173 23.7284 67.0098 23.9556 67.9216 23.9556C68.5759 23.9556 69.0851 23.81 69.451 23.5204C69.8152 23.2308 69.9969 22.842 69.9969 22.3572C69.9969 21.9252 69.847 21.5612 69.5463 21.266C69.2473 20.9708 68.7478 20.6964 68.0503 20.4428C66.1518 19.7476 65.2034 18.7292 65.2034 17.39C65.2034 16.5148 65.5358 15.7972 66.2015 15.2388C66.8648 14.6796 67.7497 14.4004 68.8562 14.4004C69.8429 14.4004 70.6626 14.5692 71.3169 14.906L70.8826 16.2964C70.2715 15.97 69.5806 15.8068 68.8073 15.8068C68.1962 15.8068 67.7187 15.9548 67.3765 16.2492C67.0872 16.5124 66.9422 16.8332 66.9422 17.2132C66.9422 17.634 67.1076 17.982 67.44 18.2556C67.7293 18.5084 68.2549 18.782 69.0175 19.0772C69.9505 19.446 70.6357 19.8772 71.0766 20.3716C71.5157 20.8644 71.7349 21.4812 71.7349 22.2172Z" fill="white"/>
<path d="M77.4786 18.8061H75.5638V22.5333C75.5638 23.4813 75.9011 23.9549 76.5774 23.9549C76.8878 23.9549 77.1453 23.9285 77.349 23.8757L77.3971 25.1709C77.0549 25.2965 76.6043 25.3597 76.0461 25.3597C75.3601 25.3597 74.8239 25.1541 74.4369 24.7437C74.0515 24.3325 73.8575 23.6429 73.8575 22.6741V18.8045H72.7168V17.5245H73.8575V16.1189L75.5638 15.6133V17.5245H77.4786V18.8061Z" fill="white"/>
<path d="M86.1194 21.3011C86.1194 22.4811 85.7755 23.4499 85.0895 24.2075C84.37 24.9875 83.415 25.3763 82.2246 25.3763C81.0773 25.3763 80.1639 25.0027 79.4827 24.2555C78.8015 23.5083 78.4609 22.5651 78.4609 21.4283C78.4609 20.2387 78.8113 19.2643 79.5145 18.5067C80.216 17.7483 81.1629 17.3691 82.3533 17.3691C83.5006 17.3691 84.4237 17.7427 85.1204 18.4907C85.7869 19.2163 86.1194 20.1531 86.1194 21.3011ZM84.317 21.3563C84.317 20.6483 84.163 20.0411 83.8509 19.5347C83.4867 18.9219 82.966 18.6163 82.2914 18.6163C81.5931 18.6163 81.0626 18.9227 80.6984 19.5347C80.3863 20.0419 80.2323 20.6587 80.2323 21.3883C80.2323 22.0963 80.3863 22.7035 80.6984 23.2091C81.074 23.8219 81.5988 24.1275 82.2759 24.1275C82.9392 24.1275 83.4598 23.8155 83.8355 23.1931C84.1557 22.6771 84.317 22.0635 84.317 21.3563Z" fill="white"/>
<path d="M91.7653 19.0267C91.5934 18.9955 91.41 18.9795 91.2178 18.9795C90.6066 18.9795 90.134 19.2059 89.8016 19.6595C89.5123 20.0595 89.3673 20.5651 89.3673 21.1755V25.2035H87.6309L87.6472 19.9443C87.6472 19.0595 87.6252 18.2539 87.582 17.5275H89.0952L89.1587 18.9963H89.2068C89.3901 18.4915 89.6794 18.0851 90.0754 17.7803C90.4624 17.5059 90.8804 17.3691 91.331 17.3691C91.4915 17.3691 91.6366 17.3803 91.7653 17.4003V19.0267Z" fill="white"/>
<path d="M99.5347 21.0007C99.5347 21.3063 99.5143 21.5639 99.4711 21.7743H94.2596C94.2799 22.5327 94.5317 23.1127 95.0157 23.5127C95.4549 23.8703 96.0228 24.0495 96.7203 24.0495C97.4919 24.0495 98.1959 23.9287 98.829 23.6863L99.1012 24.8703C98.3613 25.1871 97.4879 25.3447 96.4799 25.3447C95.2675 25.3447 94.3158 24.9943 93.6232 24.2943C92.9322 23.5943 92.5859 22.6543 92.5859 21.4751C92.5859 20.3175 92.9078 19.3535 93.5523 18.5847C94.227 17.7639 95.1387 17.3535 96.286 17.3535C97.4129 17.3535 98.266 17.7639 98.8453 18.5847C99.3041 19.2367 99.5347 20.0431 99.5347 21.0007ZM97.8782 20.5583C97.8896 20.0527 97.7763 19.6159 97.5408 19.2471C97.2402 18.7727 96.7782 18.5359 96.1565 18.5359C95.5885 18.5359 95.1265 18.7671 94.7737 19.2311C94.4845 19.5999 94.3125 20.0423 94.2596 20.5575H97.8782V20.5583Z" fill="white"/>
</svg>
