<svg width="1440" height="562" viewBox="0 0 1440 562" fill="none" xmlns="http://www.w3.org/2000/svg">
<g clip-path="url(#clip0_3520_9666)">
<mask id="mask0_3520_9666" style="mask-type:luminance" maskUnits="userSpaceOnUse" x="0" y="0" width="2349" height="3083">
<path d="M2348.87 0H0V3082.05H2348.87V0Z" fill="white"/>
</mask>
<g mask="url(#mask0_3520_9666)">
<path d="M124.008 -3.95508V62.9327L92.7866 -3.95508H73.1955H72.8223L73.0089 -3.6009L36.2521 73.5578L-0.629087 -3.95508H-20.5312L30.5924 99.4123H41.7874L82.8356 16.2327L124.008 99.4123H142.542V-3.95508H124.008Z" fill="#212121" fill-opacity="0.1"/>
<path d="M124.012 99.4121V166.3L92.7906 99.4121H73.1994H72.8262L73.0128 99.7663L36.256 176.925L-0.625181 99.4121H-20.5273L30.5963 202.779H41.7913L82.8395 119.6L124.012 202.779H142.546V99.4121H124.012Z" fill="#212121" fill-opacity="0.1"/>
<path d="M124.012 202.777V269.665L92.7906 202.777H73.1994H72.8262L73.0128 203.132L36.256 280.29L-0.625181 202.777H-20.5273L30.5963 306.145H41.7913L82.8395 222.965L124.012 306.145H142.546V202.777H124.012Z" fill="#212121" fill-opacity="0.1"/>
<path d="M124.012 306.143V373.03L92.7906 306.143H73.1994H72.8262L73.0128 306.497L36.256 383.655L-0.625181 306.143H-20.5273L30.5963 409.51H41.7913L82.8395 326.33L124.012 409.51H142.546V306.143H124.012Z" fill="#212121" fill-opacity="0.1"/>
<path d="M124.012 409.508V476.396L92.7906 409.508H73.1994H72.8262L73.0128 409.862L36.256 487.021L-0.625181 409.508H-20.5273L30.5963 512.875H41.7913L82.8395 429.696L124.012 512.875H142.546V409.508H124.012Z" fill="#212121" fill-opacity="0.1"/>
<path d="M124.012 512.873V579.761L92.7906 512.873H73.1994H72.8262L73.0128 513.227L36.256 590.386L-0.625181 512.873H-20.5273L30.5963 616.24H41.7913L82.8395 533.061L124.012 616.24H142.546V512.873H124.012Z" fill="#212121" fill-opacity="0.1"/>
<path d="M286.211 -3.95508V62.9327L254.927 -3.95508H235.398H235.025L235.212 -3.6009L198.455 73.5578L161.574 -3.95508H141.609L192.795 99.4123H203.99L245.038 16.2327L286.211 99.4123H304.745V-3.95508H286.211Z" fill="#212121" fill-opacity="0.1"/>
<path d="M286.211 99.4121V166.3L254.927 99.4121H235.398H235.025L235.212 99.7663L198.455 176.925L161.574 99.4121H141.609L192.795 202.779H203.99L245.038 119.6L286.211 202.779H304.745V99.4121H286.211Z" fill="#212121" fill-opacity="0.1"/>
<path d="M286.211 202.777V269.665L254.927 202.777H235.398H235.025L235.212 203.132L198.455 280.29L161.574 202.777H141.609L192.795 306.145H203.99L245.038 222.965L286.211 306.145H304.745V202.777H286.211Z" fill="#212121" fill-opacity="0.1"/>
<path d="M286.211 306.143V373.03L254.927 306.143H235.398H235.025L235.212 306.497L198.455 383.655L161.574 306.143H141.609L192.795 409.51H203.99L245.038 326.33L286.211 409.51H304.745V306.143H286.211Z" fill="#212121" fill-opacity="0.1"/>
<path d="M286.211 409.508V476.396L254.927 409.508H235.398H235.025L235.212 409.862L198.455 487.021L161.574 409.508H141.609L192.795 512.875H203.99L245.038 429.696L286.211 512.875H304.745V409.508H286.211Z" fill="#212121" fill-opacity="0.1"/>
<path d="M286.211 512.873V579.761L254.927 512.873H235.398H235.025L235.212 513.227L198.455 590.386L161.574 512.873H141.609L192.795 616.24H203.99L245.038 533.061L286.211 616.24H304.745V512.873H286.211Z" fill="#212121" fill-opacity="0.1"/>
<path d="M448.418 -3.95508V62.9327L417.134 -3.95508H397.605H397.232L397.419 -3.6009L360.662 73.5578L323.781 -3.95508H303.816L355.002 99.4123H366.135L407.183 16.2327L448.418 99.4123H466.952V-3.95508H448.418Z" fill="#212121" fill-opacity="0.1"/>
<path d="M448.418 99.4121V166.3L417.134 99.4121H397.605H397.232L397.419 99.7663L360.662 176.925L323.781 99.4121H303.816L355.002 202.779H366.135L407.183 119.6L448.418 202.779H466.952V99.4121H448.418Z" fill="#212121" fill-opacity="0.1"/>
<path d="M448.418 202.777V269.665L417.134 202.777H397.605H397.232L397.419 203.132L360.662 280.29L323.781 202.777H303.816L355.002 306.145H366.135L407.183 222.965L448.418 306.145H466.952V202.777H448.418Z" fill="#212121" fill-opacity="0.1"/>
<path d="M448.418 306.143V373.03L417.134 306.143H397.605H397.232L397.419 306.497L360.662 383.655L323.781 306.143H303.816L355.002 409.51H366.135L407.183 326.33L448.418 409.51H466.952V306.143H448.418Z" fill="#212121" fill-opacity="0.1"/>
<path d="M448.418 409.508V476.396L417.134 409.508H397.605H397.232L397.419 409.862L360.662 487.021L323.781 409.508H303.816L355.002 512.875H366.135L407.183 429.696L448.418 512.875H466.952V409.508H448.418Z" fill="#212121" fill-opacity="0.1"/>
<path d="M448.418 512.873V579.761L417.134 512.873H397.605H397.232L397.419 513.227L360.662 590.386L323.781 512.873H303.816L355.002 616.24H366.135L407.183 533.061L448.418 616.24H466.952V512.873H448.418Z" fill="#212121" fill-opacity="0.1"/>
<path d="M610.559 -3.95508V62.9327L579.337 -3.95508H559.746H559.435L559.622 -3.6009L522.865 73.5578L485.922 -3.95508H466.02L517.205 99.4123H528.338L569.386 16.2327L610.559 99.4123H629.155V-3.95508H610.559Z" fill="#212121" fill-opacity="0.1"/>
<path d="M610.559 99.4121V166.3L579.337 99.4121H559.746H559.435L559.622 99.7663L522.865 176.925L485.922 99.4121H466.02L517.205 202.779H528.338L569.386 119.6L610.559 202.779H629.155V99.4121H610.559Z" fill="#212121" fill-opacity="0.1"/>
<path d="M610.559 202.777V269.665L579.337 202.777H559.746H559.435L559.622 203.132L522.865 280.29L485.922 202.777H466.02L517.205 306.145H528.338L569.386 222.965L610.559 306.145H629.155V202.777H610.559Z" fill="#212121" fill-opacity="0.1"/>
<path d="M610.559 306.143V373.03L579.337 306.143H559.746H559.435L559.622 306.497L522.865 383.655L485.922 306.143H466.02L517.205 409.51H528.338L569.386 326.33L610.559 409.51H629.155V306.143H610.559Z" fill="#212121" fill-opacity="0.1"/>
<path d="M610.559 409.508V476.396L579.337 409.508H559.746H559.435L559.622 409.862L522.865 487.021L485.922 409.508H466.02L517.205 512.875H528.338L569.386 429.696L610.559 512.875H629.155V409.508H610.559Z" fill="#212121" fill-opacity="0.1"/>
<path d="M610.559 512.873V579.761L579.337 512.873H559.746H559.435L559.622 513.227L522.865 590.386L485.922 512.873H466.02L517.205 616.24H528.338L569.386 533.061L610.559 616.24H629.155V512.873H610.559Z" fill="#212121" fill-opacity="0.1"/>
<path d="M772.758 -3.95508V62.9327L741.537 -3.95508H721.945H721.635L721.759 -3.6009L685.064 73.5578L648.121 -3.95508H628.219L679.405 99.4123H690.537L731.586 16.2327L772.758 99.4123H791.292V-3.95508H772.758Z" fill="#212121" fill-opacity="0.1"/>
<path d="M772.758 99.4121V166.3L741.537 99.4121H721.945H721.635L721.759 99.7663L685.064 176.925L648.121 99.4121H628.219L679.405 202.779H690.537L731.586 119.6L772.758 202.779H791.292V99.4121H772.758Z" fill="#212121" fill-opacity="0.1"/>
<path d="M772.758 202.777V269.665L741.537 202.777H721.945H721.635L721.759 203.132L685.064 280.29L648.121 202.777H628.219L679.405 306.145H690.537L731.586 222.965L772.758 306.145H791.292V202.777H772.758Z" fill="#212121" fill-opacity="0.1"/>
<path d="M772.758 306.143V373.03L741.537 306.143H721.945H721.635L721.759 306.497L685.064 383.655L648.121 306.143H628.219L679.405 409.51H690.537L731.586 326.33L772.758 409.51H791.292V306.143H772.758Z" fill="#212121" fill-opacity="0.1"/>
<path d="M772.758 409.508V476.396L741.537 409.508H721.945H721.635L721.759 409.862L685.064 487.021L648.121 409.508H628.219L679.405 512.875H690.537L731.586 429.696L772.758 512.875H791.292V409.508H772.758Z" fill="#212121" fill-opacity="0.1"/>
<path d="M772.758 512.873V579.761L741.537 512.873H721.945H721.635L721.759 513.227L685.064 590.386L648.121 512.873H628.219L679.405 616.24H690.537L731.586 533.061L772.758 616.24H791.292V512.873H772.758Z" fill="#212121" fill-opacity="0.1"/>
<path d="M934.961 -3.95508V62.9327L903.74 -3.95508H884.149H883.775L883.962 -3.6009L847.267 73.5578L810.324 -3.95508H790.422L841.608 99.4123H852.741L893.789 16.2327L934.961 99.4123H953.495V-3.95508H934.961Z" fill="#212121" fill-opacity="0.1"/>
<path d="M934.965 99.4121V166.3L903.744 99.4121H884.152H883.779L883.966 99.7663L847.271 176.925L810.328 99.4121H790.426L841.612 202.779H852.744L893.793 119.6L934.965 202.779H953.499V99.4121H934.965Z" fill="#212121" fill-opacity="0.1"/>
<path d="M934.965 202.777V269.665L903.744 202.777H884.152H883.779L883.966 203.132L847.271 280.29L810.328 202.777H790.426L841.612 306.145H852.744L893.793 222.965L934.965 306.145H953.499V202.777H934.965Z" fill="#212121" fill-opacity="0.1"/>
<path d="M934.965 306.143V373.03L903.744 306.143H884.152H883.779L883.966 306.497L847.271 383.655L810.328 306.143H790.426L841.612 409.51H852.744L893.793 326.33L934.965 409.51H953.499V306.143H934.965Z" fill="#212121" fill-opacity="0.1"/>
<path d="M934.965 409.508V476.396L903.744 409.508H884.152H883.779L883.966 409.862L847.271 487.021L810.328 409.508H790.426L841.612 512.875H852.744L893.793 429.696L934.965 512.875H953.499V409.508H934.965Z" fill="#212121" fill-opacity="0.1"/>
<path d="M934.965 512.873V579.761L903.744 512.873H884.152H883.779L883.966 513.227L847.271 590.386L810.328 512.873H790.426L841.612 616.24H852.744L893.793 533.061L934.965 616.24H953.499V512.873H934.965Z" fill="#212121" fill-opacity="0.1"/>
<path d="M1097.16 -3.95508V62.9327L1065.94 -3.95508H1065.88H1046.35H1045.98L1046.17 -3.6009L1009.41 73.5578L972.527 -3.95508H952.625L1003.75 99.4123H1014.94L1055.99 16.2327L1097.16 99.4123H1115.7V-3.95508H1097.16Z" fill="#212121" fill-opacity="0.1"/>
<path d="M1097.16 99.4121V166.3L1065.94 99.4121H1065.88H1046.35H1045.98L1046.17 99.7663L1009.41 176.925L972.527 99.4121H952.625L1003.75 202.779H1014.94L1055.99 119.6L1097.16 202.779H1115.7V99.4121H1097.16Z" fill="#212121" fill-opacity="0.1"/>
<path d="M1097.16 202.777V269.665L1065.94 202.777H1065.88H1046.35H1045.98L1046.17 203.132L1009.41 280.29L972.527 202.777H952.625L1003.75 306.145H1014.94L1055.99 222.965L1097.16 306.145H1115.7V202.777H1097.16Z" fill="#212121" fill-opacity="0.1"/>
<path d="M1097.16 306.143V373.03L1065.94 306.143H1065.88H1046.35H1045.98L1046.17 306.497L1009.41 383.655L972.527 306.143H952.625L1003.75 409.51H1014.94L1055.99 326.33L1097.16 409.51H1115.7V306.143H1097.16Z" fill="#212121" fill-opacity="0.1"/>
<path d="M1097.16 409.508V476.396L1065.94 409.508H1065.88H1046.35H1045.98L1046.17 409.862L1009.41 487.021L972.527 409.508H952.625L1003.75 512.875H1014.94L1055.99 429.696L1097.16 512.875H1115.7V409.508H1097.16Z" fill="#212121" fill-opacity="0.1"/>
<path d="M1097.16 512.873V579.761L1065.94 512.873H1065.88H1046.35H1045.98L1046.17 513.227L1009.41 590.386L972.527 512.873H952.625L1003.75 616.24H1014.94L1055.99 533.061L1097.16 616.24H1115.7V512.873H1097.16Z" fill="#212121" fill-opacity="0.1"/>
<path d="M1259.37 -3.95508V62.9327L1228.08 -3.95508H1228.15H1228.08H1208.55H1208.18L1208.37 -3.6009L1171.61 73.5578L1134.73 -3.95508H1114.83L1165.95 99.4123H1177.15L1218.19 16.2327L1259.37 99.4123H1277.9V-3.95508H1259.37Z" fill="#212121" fill-opacity="0.1"/>
<path d="M1259.37 99.4121V166.3L1228.08 99.4121H1228.15H1228.08H1208.55H1208.18L1208.37 99.7663L1171.61 176.925L1134.73 99.4121H1114.83L1165.95 202.779H1177.15L1218.19 119.6L1259.37 202.779H1277.9V99.4121H1259.37Z" fill="#212121" fill-opacity="0.1"/>
<path d="M1259.37 202.777V269.665L1228.08 202.777H1228.15H1228.08H1208.55H1208.18L1208.37 203.132L1171.61 280.29L1134.73 202.777H1114.83L1165.95 306.145H1177.15L1218.19 222.965L1259.37 306.145H1277.9V202.777H1259.37Z" fill="#212121" fill-opacity="0.1"/>
<path d="M1259.37 306.143V373.03L1228.08 306.143H1228.15H1228.08H1208.55H1208.18L1208.37 306.497L1171.61 383.655L1134.73 306.143H1114.83L1165.95 409.51H1177.15L1218.19 326.33L1259.37 409.51H1277.9V306.143H1259.37Z" fill="#212121" fill-opacity="0.1"/>
<path d="M1259.37 409.508V476.396L1228.08 409.508H1228.15H1228.08H1208.55H1208.18L1208.37 409.862L1171.61 487.021L1134.73 409.508H1114.83L1165.95 512.875H1177.15L1218.19 429.696L1259.37 512.875H1277.9V409.508H1259.37Z" fill="#212121" fill-opacity="0.1"/>
<path d="M1259.37 512.873V579.761L1228.08 512.873H1228.15H1228.08H1208.55H1208.18L1208.37 513.227L1171.61 590.386L1134.73 512.873H1114.83L1165.95 616.24H1177.15L1218.19 533.061L1259.37 616.24H1277.9V512.873H1259.37Z" fill="#212121" fill-opacity="0.1"/>
<path d="M1421.56 -3.95508V62.9327L1390.28 -3.95508H1370.75H1370.38L1370.56 -3.6009L1333.81 73.5578L1296.93 -3.95508H1276.96L1328.15 99.4123H1339.28L1380.33 16.2327L1421.56 99.4123H1440.1V-3.95508H1421.56Z" fill="#212121" fill-opacity="0.1"/>
<path d="M1421.56 99.4121V166.3L1390.28 99.4121H1370.75H1370.38L1370.56 99.7663L1333.81 176.925L1296.93 99.4121H1276.96L1328.15 202.779H1339.28L1380.33 119.6L1421.56 202.779H1440.1V99.4121H1421.56Z" fill="#212121" fill-opacity="0.1"/>
<path d="M1421.56 202.777V269.665L1390.28 202.777H1370.75H1370.38L1370.56 203.132L1333.81 280.29L1296.93 202.777H1276.96L1328.15 306.145H1339.28L1380.33 222.965L1421.56 306.145H1440.1V202.777H1421.56Z" fill="#212121" fill-opacity="0.1"/>
<path d="M1421.56 306.143V373.03L1390.28 306.143H1370.75H1370.38L1370.56 306.497L1333.81 383.655L1296.93 306.143H1276.96L1328.15 409.51H1339.28L1380.33 326.33L1421.56 409.51H1440.1V306.143H1421.56Z" fill="#212121" fill-opacity="0.1"/>
<path d="M1421.56 409.508V476.396L1390.28 409.508H1370.75H1370.38L1370.56 409.862L1333.81 487.021L1296.93 409.508H1276.96L1328.15 512.875H1339.28L1380.33 429.696L1421.56 512.875H1440.1V409.508H1421.56Z" fill="#212121" fill-opacity="0.1"/>
<path d="M1421.56 512.873V579.761L1390.28 512.873H1370.75H1370.38L1370.56 513.227L1333.81 590.386L1296.93 512.873H1276.96L1328.15 616.24H1339.28L1380.33 533.061L1421.56 616.24H1440.1V512.873H1421.56Z" fill="#212121" fill-opacity="0.1"/>
<path d="M1583.7 -3.95508V62.9327L1552.48 -3.95508H1532.89H1532.58L1532.77 -3.6009L1496.01 73.5578L1459.07 -3.95508H1439.16L1490.35 99.4123H1501.48L1542.53 16.2327L1583.7 99.4123H1602.3V-3.95508H1583.7Z" fill="#212121" fill-opacity="0.1"/>
<path d="M1583.7 99.4121V166.3L1552.48 99.4121H1532.89H1532.58L1532.77 99.7663L1496.01 176.925L1459.07 99.4121H1439.16L1490.35 202.779H1501.48L1542.53 119.6L1583.7 202.779H1602.3V99.4121H1583.7Z" fill="#212121" fill-opacity="0.1"/>
<path d="M1583.7 202.777V269.665L1552.48 202.777H1532.89H1532.58L1532.77 203.132L1496.01 280.29L1459.07 202.777H1439.16L1490.35 306.145H1501.48L1542.53 222.965L1583.7 306.145H1602.3V202.777H1583.7Z" fill="#212121" fill-opacity="0.1"/>
<path d="M1583.7 306.143V373.03L1552.48 306.143H1532.89H1532.58L1532.77 306.497L1496.01 383.655L1459.07 306.143H1439.16L1490.35 409.51H1501.48L1542.53 326.33L1583.7 409.51H1602.3V306.143H1583.7Z" fill="#212121" fill-opacity="0.1"/>
<path d="M1583.7 409.508V476.396L1552.48 409.508H1532.89H1532.58L1532.77 409.862L1496.01 487.021L1459.07 409.508H1439.16L1490.35 512.875H1501.48L1542.53 429.696L1583.7 512.875H1602.3V409.508H1583.7Z" fill="#212121" fill-opacity="0.1"/>
<path d="M1583.7 512.873V579.761L1552.48 512.873H1532.89H1532.58L1532.77 513.227L1496.01 590.386L1459.07 512.873H1439.16L1490.35 616.24H1501.48L1542.53 533.061L1583.7 616.24H1602.3V512.873H1583.7Z" fill="#212121" fill-opacity="0.1"/>
</g>
</g>
<defs>
<clipPath id="clip0_3520_9666">
<rect width="1440" height="562" fill="white"/>
</clipPath>
</defs>
</svg>
