<svg width="140" height="14" viewBox="0 0 140 14" fill="none" xmlns="http://www.w3.org/2000/svg">
<g clip-path="url(#clip0_6118_9022)">
<path d="M59.9988 4.45246C59.9988 6.45999 59.9988 8.46751 59.9988 10.4687C59.9988 10.7853 59.9291 10.893 59.5904 10.8803C58.8906 10.8487 58.8906 10.8803 58.8906 10.1932C58.8906 7.81838 58.8906 5.44354 58.8906 3.06871C58.8906 2.77423 58.9539 2.69824 59.2737 2.65708C60.0051 2.55892 60.3914 2.85657 60.7524 3.47402C61.8225 5.29156 62.9687 7.06477 64.0832 8.85698C64.1465 8.96147 64.213 9.06279 64.3428 9.26544V8.80632C64.3428 6.88429 64.3428 4.96225 64.3428 3.04022C64.3428 2.72358 64.4315 2.66342 64.7228 2.66976C65.4383 2.68875 65.4415 2.66975 65.4415 3.37587C65.4415 5.7507 65.4415 8.12553 65.4415 10.5004C65.4415 10.779 65.3877 10.8582 65.0806 10.8898C64.422 10.9595 64.0484 10.7252 63.7064 10.1521C62.6299 8.35352 61.4901 6.59931 60.3566 4.8261C60.2711 4.68994 60.1824 4.55695 60.0938 4.42396L59.9988 4.45246Z" fill="black"/>
<path d="M9.92889 9.18152C9.99399 9.04231 10.015 8.88652 9.98905 8.73504C9.98905 6.83517 9.98905 4.93531 9.98905 3.03544C9.98905 2.7378 10.0619 2.65547 10.3627 2.6618C11.0972 2.68397 11.0972 2.66179 11.0972 3.38374C11.0972 5.75858 11.0972 8.13341 11.0972 10.5082C11.0972 10.8249 10.9959 10.8249 10.7236 10.8787C10.0397 10.9737 9.67558 10.6982 9.3273 10.1188C8.20963 8.25691 7.01914 6.43937 5.84448 4.60284C5.79382 4.52684 5.77165 4.41601 5.62601 4.37801V4.7485C5.62601 6.6832 5.62601 8.62105 5.62601 10.5557C5.62601 10.7996 5.56902 10.8724 5.30939 10.8724C4.52733 10.8724 4.52734 10.8724 4.52734 10.0839C4.52734 7.73445 4.52734 5.38494 4.52734 3.03544C4.52734 2.74096 4.60966 2.69346 4.89778 2.65547C5.62284 2.55097 6.01545 2.84545 6.37957 3.4629C7.52257 5.38494 8.7289 7.25316 9.92889 9.18152Z" fill="black"/>
<path d="M44.3943 6.77688C44.3943 5.5103 44.3943 4.26273 44.3943 3.00565C44.3943 2.74601 44.4608 2.66685 44.7299 2.67001C45.5151 2.67001 45.5151 2.67001 45.5151 3.45528C45.5151 4.24056 45.5151 5.01318 45.5151 5.79212C45.5151 6.00744 45.5784 6.06443 45.7906 6.06443C47.0317 6.06443 48.2697 6.06443 49.5109 6.06443C49.742 6.06443 49.8053 6.01061 49.8021 5.77629C49.8021 4.84536 49.8021 3.91759 49.8021 2.98666C49.8021 2.74284 49.8655 2.67001 50.1188 2.67001C50.9483 2.67001 50.9483 2.67 50.9483 3.49328C50.9483 5.83012 50.9483 8.16695 50.9483 10.5038C50.9483 10.7888 50.8881 10.8901 50.5779 10.8806C49.8021 10.8616 49.799 10.8806 49.799 10.1206C49.799 9.20554 49.799 8.28727 49.799 7.369C49.799 7.13469 49.7546 7.05236 49.4824 7.05236C48.257 7.06819 47.0285 7.05236 45.8001 7.05236C45.5626 7.05236 45.5024 7.11886 45.5056 7.35001C45.5056 8.4171 45.5056 9.48735 45.5056 10.5544C45.5056 10.8173 45.4359 10.8901 45.17 10.8711C44.3848 10.8711 44.3848 10.8711 44.3848 10.0826L44.3943 6.77688Z" fill="black"/>
<path d="M35.3818 6.74494C35.3652 7.33646 35.4586 7.92593 35.6573 8.48331C36.0657 9.56623 36.8795 10.0855 38.1364 10.0665C39.1275 10.0507 39.8937 9.46173 40.2578 8.43264C40.4636 7.85318 40.4636 7.85319 41.0937 7.85319C41.5464 7.85319 41.5464 7.85319 41.4325 8.31233C40.9924 10.095 39.6562 11.1178 37.8325 11.0703C36.0087 11.0228 34.6663 9.87338 34.3338 8.02734C34.15 7.11351 34.1727 6.17011 34.4003 5.26619C34.6004 4.38259 35.1251 3.60641 35.8705 3.09149C36.6158 2.57656 37.5274 2.36047 38.4246 2.48607C39.9538 2.63489 40.9575 3.3885 41.3343 4.65824C41.48 5.15221 41.48 5.15221 40.986 5.15221C40.8976 5.14428 40.8085 5.14428 40.7201 5.15221C40.4319 5.20603 40.3211 5.08255 40.2325 4.80707C40.144 4.52929 39.9899 4.27691 39.7832 4.07132C39.5765 3.86572 39.3234 3.71297 39.0451 3.62598C38.6759 3.48183 38.2789 3.42269 37.8837 3.45291C37.4884 3.48313 37.1051 3.60194 36.762 3.80055C36.4189 3.99916 36.125 4.27246 35.902 4.60018C35.6789 4.92791 35.5326 5.30165 35.4737 5.69367C35.405 6.03972 35.3742 6.39222 35.3818 6.74494Z" fill="black"/>
<path d="M54.3391 6.73571C54.3391 5.4913 54.3391 4.25007 54.3391 3.00882C54.3391 2.74917 54.4024 2.66684 54.6716 2.67001C55.4853 2.67001 55.4853 2.67 55.4853 3.46794C55.4853 5.81427 55.4853 8.16062 55.4853 10.507C55.4853 10.7983 55.4188 10.8901 55.1117 10.8806C54.3391 10.8616 54.3359 10.8806 54.3359 10.1238L54.3391 6.73571Z" fill="#020202"/>
<path d="M0.00680332 6.77688C0.00680332 5.5103 0.00680332 4.26273 0.00680332 3.00565C0.00680332 2.74917 0.063795 2.66684 0.323424 2.67001C1.12764 2.67001 1.12764 2.67001 1.12764 3.47745C1.12764 5.82695 1.12764 8.17645 1.12764 10.526C1.12764 10.8078 1.05798 10.8869 0.773024 10.8806C-0.00586209 10.8806 -0.00585938 10.8806 -0.00585938 10.0922L0.00680332 6.77688Z" fill="black"/>
<path d="M20.983 5.12856C20.5207 3.54534 19.3334 2.68407 17.6711 2.67773C16.6991 2.67773 15.7239 2.67773 14.7519 2.67773C14.4701 2.67773 14.3846 2.74106 14.3909 3.0292C14.3909 4.27045 14.3909 5.51487 14.3909 6.75928C14.3909 8.0037 14.3909 9.29244 14.3909 10.559C14.3909 10.787 14.4258 10.8757 14.7076 10.8757C15.6828 10.8567 16.6548 10.8757 17.63 10.8757C19.0263 10.8757 20.1123 10.3152 20.7107 9.02645C21.2843 7.80657 21.3814 6.41635 20.983 5.12856ZM19.7767 8.34885C19.642 8.81439 19.3544 9.22099 18.9604 9.50306C18.5663 9.78513 18.0887 9.92621 17.6046 9.90356C17.0126 9.90356 16.4173 9.90356 15.8221 9.90356C15.5878 9.90356 15.5276 9.84657 15.5308 9.61225C15.5308 8.66232 15.5308 7.71239 15.5308 6.76245C15.5308 5.81252 15.5308 4.86257 15.5308 3.93797C15.5308 3.71316 15.5751 3.62135 15.8189 3.64035C16.3983 3.66251 16.9809 3.64035 17.5635 3.64035C18.079 3.60637 18.59 3.75542 19.0065 4.06126C19.4229 4.36709 19.7181 4.8101 19.84 5.31222C20.1469 6.30476 20.1247 7.36996 19.7767 8.34885Z" fill="black"/>
<path d="M31.669 5.89012C31.3808 3.91109 30.0352 2.64135 28.069 2.48303C26.1028 2.3247 24.5418 3.33164 23.9529 5.20301C23.7216 5.96129 23.6578 6.7608 23.7661 7.54616C23.8379 8.23372 24.0865 8.89098 24.4877 9.4539C24.889 10.0168 25.4292 10.4662 26.0557 10.7583C26.6822 11.0503 27.3737 11.1751 28.0627 11.1205C28.7518 11.0659 29.415 10.8338 29.9877 10.4466C31.2859 9.57587 31.6658 8.24913 31.7545 6.74507C31.7323 6.48225 31.7133 6.18777 31.669 5.89012ZM29.7914 9.17055C29.475 9.52362 29.0729 9.78916 28.624 9.94154C28.1751 10.0939 27.6945 10.128 27.2286 10.0405C26.7627 9.95293 26.3272 9.74676 25.9641 9.44186C25.6011 9.13695 25.3228 8.7436 25.1561 8.29978C24.7875 7.35402 24.774 6.30676 25.1181 5.35182C25.5677 4.05358 26.5809 3.41395 28.0152 3.48678C29.1835 3.54695 30.1492 4.43672 30.4563 5.70329C30.5343 6.01398 30.5747 6.33291 30.5766 6.65323C30.5671 7.66965 30.3835 8.49293 29.7914 9.17055Z" fill="black"/>
<path d="M75.2612 10.5007C74.4063 8.18608 73.5641 5.86507 72.7282 3.53457C72.4116 2.6543 72.4116 2.66696 71.4617 2.65429C71.3606 2.6401 71.2578 2.66494 71.1743 2.72375C71.0908 2.78256 71.0328 2.87092 71.0121 2.97093C70.4707 4.4275 69.9135 5.87773 69.3625 7.33113C68.9256 8.48688 68.4918 9.6458 68.0391 10.849C68.3335 10.849 68.5615 10.83 68.7863 10.849C68.8485 10.8658 68.9135 10.8692 68.9771 10.8588C69.0407 10.8484 69.1013 10.8246 69.155 10.789C69.2086 10.7533 69.254 10.7066 69.2882 10.652C69.3223 10.5974 69.3445 10.5361 69.353 10.4722C69.5335 9.87378 69.771 9.29116 69.9863 8.69904C70.0031 8.62123 70.0486 8.55259 70.1137 8.50682C70.1788 8.46105 70.2588 8.44149 70.3377 8.45205C71.2211 8.45205 72.1076 8.45205 72.9942 8.45205C73.036 8.44338 73.0792 8.44328 73.1211 8.45176C73.1631 8.46023 73.2028 8.47712 73.238 8.50139C73.2732 8.52565 73.3032 8.55679 73.326 8.59294C73.3489 8.62908 73.3641 8.66948 73.3709 8.7117C73.5261 9.1645 73.6876 9.6078 73.8617 10.0543C74.1783 10.8617 74.1783 10.8459 75.03 10.8649C75.3657 10.887 75.3657 10.7826 75.2612 10.5007ZM70.4137 7.47995C70.8443 6.30203 71.2686 5.14946 71.7213 3.91455L72.9213 7.47995H70.4137Z" fill="black"/>
<path d="M140 0.00195312H78.9844V13.6018H140V0.00195312Z" fill="black"/>
<path d="M84.0183 6.43389C83.989 7.12604 84.11 7.81632 84.3729 8.45725C84.8447 9.49268 85.7027 9.88532 86.7951 9.85049C87.7892 9.81883 88.4288 9.27103 88.8214 8.40026C88.8214 8.36542 88.8436 8.32742 88.8563 8.29259C89.1222 7.5928 89.1222 7.60231 89.9074 7.62447C90.1354 7.62447 90.1449 7.70996 90.1164 7.89678C89.9872 8.79443 89.513 9.60629 88.7946 10.1598C88.0762 10.7132 87.1703 10.9647 86.2695 10.8606C84.5756 10.6991 83.4579 9.78399 83.0463 8.14377C82.6663 6.62072 82.7012 5.11665 83.6162 3.76141C84.8447 1.94387 87.8146 1.70323 89.3154 3.27378C89.6763 3.66356 89.9247 4.14399 90.0341 4.66386C90.0784 4.85384 90.0689 4.9805 89.8156 4.94251C89.7663 4.93458 89.7161 4.93458 89.6668 4.94251C89.5716 4.96957 89.4719 4.97709 89.3736 4.96463C89.2754 4.95218 89.1807 4.92 89.0952 4.87001C89.0098 4.82003 88.9353 4.75327 88.8763 4.67377C88.8172 4.59427 88.7749 4.50366 88.7518 4.40738C88.3212 3.34028 86.7982 2.93814 85.6046 3.4891C84.5566 3.97357 84.1766 4.8855 84.0436 5.94626C84.0267 6.10825 84.0182 6.27101 84.0183 6.43389Z" fill="#FEFEFE"/>
<path d="M119.271 7.11534C119.271 8.18243 119.271 9.24952 119.271 10.3198C119.271 10.6364 119.176 10.6903 118.891 10.6839C118.134 10.6649 118.134 10.6839 118.134 9.91131C118.134 7.89112 118.134 5.86775 118.134 3.8444C118.134 3.57841 118.093 3.47392 117.792 3.48659C117.083 3.51508 116.374 3.48659 115.668 3.48659C115.43 3.48659 115.335 3.44542 115.351 3.16994C115.351 2.45116 115.351 2.45117 116.051 2.45117C117.925 2.45117 119.797 2.45117 121.671 2.45117C121.988 2.45117 122.083 2.51132 122.07 2.8343C122.045 3.46759 122.07 3.46759 121.437 3.46759C120.804 3.46759 120.199 3.46759 119.578 3.46759C119.334 3.46759 119.262 3.52458 119.262 3.78423C119.281 4.89882 119.271 6.00075 119.271 7.11534Z" fill="#FEFEFE"/>
<path d="M132.399 6.5282C132.399 5.28379 132.399 4.03936 132.399 2.79495C132.399 2.53847 132.456 2.45298 132.716 2.45931C133.529 2.45931 133.529 2.45931 133.529 3.25409C133.529 5.26478 133.529 7.27547 133.529 9.27033C133.529 9.56798 133.605 9.64397 133.903 9.6408C135.052 9.6218 136.205 9.6408 137.354 9.6408C137.617 9.6408 137.699 9.70413 137.696 9.95744C137.696 10.6509 137.696 10.6509 137.009 10.6509C135.591 10.6509 134.175 10.6509 132.76 10.6509C132.443 10.6509 132.39 10.5559 132.393 10.2741C132.399 9.03918 132.399 7.78211 132.399 6.5282Z" fill="#FEFEFE"/>
<path d="M111.502 6.52818C111.502 5.28377 111.502 4.04251 111.502 2.7981C111.502 2.54478 111.553 2.45296 111.819 2.45929C112.651 2.45929 112.651 2.45929 112.651 3.27307C112.651 5.6099 112.651 7.94674 112.651 10.2836C112.651 10.5464 112.651 10.6825 112.297 10.6604C111.53 10.6097 111.527 10.635 111.527 9.88143V6.52818H111.502Z" fill="#FDFDFD"/>
<path d="M129.698 10.1832C128.872 7.90969 128.043 5.63514 127.209 3.35952C126.892 2.46025 126.892 2.46657 125.923 2.46024C125.827 2.44421 125.728 2.46585 125.648 2.52067C125.567 2.5755 125.51 2.65931 125.49 2.75472C124.742 4.76541 123.976 6.76977 123.216 8.77096C122.982 9.40425 122.751 10.009 122.504 10.6708C122.849 10.6708 123.137 10.6708 123.428 10.6708C123.628 10.6708 123.71 10.6075 123.774 10.4207C123.986 9.78739 124.226 9.17311 124.445 8.54298C124.505 8.372 124.568 8.28016 124.78 8.28016C125.667 8.28016 126.55 8.28016 127.437 8.258C127.482 8.25035 127.528 8.25177 127.572 8.26219C127.617 8.27261 127.659 8.29181 127.695 8.31866C127.732 8.34551 127.763 8.37947 127.787 8.41854C127.811 8.45761 127.826 8.501 127.833 8.54615C127.959 8.92929 128.111 9.29977 128.254 9.67658C128.634 10.7025 128.634 10.7025 129.745 10.6645C129.771 10.662 129.796 10.6567 129.821 10.6487C129.822 10.4853 129.779 10.3245 129.698 10.1832ZM124.907 7.25741C125.325 6.11116 125.743 4.97756 126.158 3.84081H126.243L127.389 7.2479L124.907 7.25741Z" fill="#FEFEFE"/>
<path d="M99.4852 10.1891C98.6409 7.90297 97.8071 5.61784 96.9839 3.33378C96.6673 2.45984 96.6673 2.4725 95.7174 2.45984C95.6157 2.44398 95.5118 2.46808 95.4274 2.52709C95.343 2.58611 95.2847 2.67547 95.2647 2.77648C94.3813 5.13548 93.4821 7.49132 92.5892 9.84716C92.2726 10.6704 92.2726 10.6578 93.156 10.6704C93.2045 10.678 93.2541 10.6758 93.3017 10.6639C93.3494 10.652 93.3942 10.6306 93.4334 10.6011C93.4727 10.5716 93.5056 10.5345 93.5303 10.492C93.555 10.4495 93.5709 10.4025 93.5771 10.3538C93.7829 9.73632 94.0172 9.12836 94.2356 8.51091C94.2895 8.35892 94.3496 8.2671 94.5523 8.2671C95.4863 8.28294 96.4235 8.2671 97.3575 8.2671C97.4304 8.25707 97.5044 8.27596 97.5636 8.31975C97.6227 8.36354 97.6624 8.42874 97.6741 8.50142C97.8451 9.03971 98.0699 9.56218 98.2124 10.1068C98.3264 10.5374 98.5069 10.7812 98.9216 10.6514H99.1528C99.6593 10.6673 99.6562 10.6673 99.4852 10.1891ZM94.6852 7.26333L95.9866 3.72959C96.4077 4.96766 96.7908 6.10441 97.1802 7.26333H94.6852Z" fill="#FEFEFE"/>
<path d="M106.015 2.46743C104.888 2.44843 103.764 2.46743 102.64 2.46743C102.323 2.46743 102.275 2.57507 102.275 2.85056C102.275 4.09497 102.275 5.33622 102.275 6.58063V9.8579C102.275 10.6843 102.275 10.6654 103.095 10.6844C103.412 10.6844 103.441 10.583 103.434 10.3202C103.434 9.43043 103.434 8.53749 103.434 7.64456C103.434 7.32791 103.488 7.19175 103.855 7.20758C104.625 7.23925 105.397 7.23292 106.17 7.20758C106.589 7.22672 107.005 7.12074 107.364 6.90312C107.723 6.68549 108.01 6.36605 108.187 5.98534C108.839 4.60477 108.38 2.50543 106.015 2.46743ZM106.015 6.21017C105.223 6.26716 104.432 6.22599 103.631 6.23865C103.441 6.23865 103.437 6.13732 103.437 5.998C103.437 5.61169 103.437 5.22222 103.437 4.83275C103.437 4.44328 103.437 4.05698 103.437 3.6675C103.437 3.53135 103.437 3.42685 103.631 3.43002C104.438 3.45535 105.248 3.37619 106.053 3.47119C106.857 3.56618 107.3 4.04431 107.287 4.81058C107.272 5.63703 106.844 6.16267 106.012 6.21017H106.015Z" fill="#FEFEFE"/>
</g>
<defs>
<clipPath id="clip0_6118_9022">
<rect width="140" height="13.5999" fill="white"/>
</clipPath>
</defs>
</svg>
