<svg width="140" height="19" viewBox="0 0 140 19" fill="none" xmlns="http://www.w3.org/2000/svg">
<path d="M1.13674 0.222656H0V8.64188H1.13674V0.222656Z" fill="black"/>
<path d="M10.2514 0.222656H11.3547V8.64857H10.0775L5.79803 1.84097H5.77128V8.64857H4.66797V0.222656H6.01869L10.2246 7.03026H10.2514V0.222656Z" fill="black"/>
<path d="M15.9141 7.67224H18.1207C19.5985 7.67224 20.5614 6.50865 20.5614 4.3888C20.5614 2.26895 19.5851 1.19899 18.0405 1.19899H15.9141V7.67224ZM14.7773 0.222656H18.1943C20.3875 0.222656 21.7315 1.88777 21.7315 4.31524C21.7315 6.20773 20.9158 8.64857 18.1475 8.64857H14.8041L14.7773 0.222656Z" fill="black"/>
<path d="M28.4455 1.00977C26.6133 1.00977 25.51 2.44753 25.51 4.43363C25.51 6.41974 26.6133 7.8575 28.4455 7.8575C30.2777 7.8575 31.3743 6.41306 31.3743 4.43363C31.3743 2.45421 30.271 1.00977 28.4455 1.00977ZM28.4455 8.86727C25.3027 8.86727 24.3398 6.25256 24.3398 4.43363C24.3398 2.61471 25.3027 0 28.4455 0C31.5883 0 32.5511 2.61471 32.5511 4.43363C32.5511 6.25256 31.5883 8.86727 28.4455 8.86727Z" fill="black"/>
<path d="M41.3913 2.75574C41.2846 2.22506 40.9848 1.75284 40.55 1.43043C40.1152 1.10803 39.5763 0.958354 39.0376 1.01037C37.513 1.01037 36.276 2.13382 36.276 4.35399C36.276 6.36016 36.9847 7.86478 39.071 7.86478C39.8065 7.86478 41.077 7.51036 41.4782 5.551H42.5882C42.5346 6.47876 42.1195 7.34853 41.4319 7.97365C40.7443 8.59877 39.8391 8.92942 38.9105 8.89462C36.9981 8.89462 35.1191 7.65079 35.1191 4.41417C35.1191 1.81952 36.5969 0.0273438 39.0509 0.0273438C41.2174 0.0273438 42.3475 1.36479 42.508 2.78248L41.3913 2.75574Z" fill="black"/>
<path d="M51.0796 0.222656H52.2163V8.64857H51.0796V4.71648H46.6797V8.64857H45.543V0.222656H46.6797V3.70671H51.0796V0.222656Z" fill="black"/>
<path d="M56.8965 0.222656H55.7598V8.64188H56.8965V0.222656Z" fill="black"/>
<path d="M66.0112 0.222656H67.1078V8.64857H65.8306L61.5511 1.84097H61.531V8.64857H60.4277V0.222656H61.7785L65.9844 7.03026H66.0112V0.222656Z" fill="black"/>
<path d="M74.7717 5.18458L73.528 1.47985L72.1907 5.18458H74.7717ZM71.8028 6.19436L70.9269 8.64857H69.75L72.9195 0.222656H74.2101L77.2592 8.64857H76.0222L75.1863 6.19436H71.8028Z" fill="black"/>
<path d="M25.6367 18.8043V15.4606H27.2683C27.4429 15.4417 27.6196 15.4586 27.7875 15.5104C27.9553 15.5621 28.1109 15.6476 28.2445 15.7616C28.4631 16.0732 28.5627 16.4528 28.5254 16.8315C28.576 17.3747 28.4981 17.9222 28.298 18.4298C28.1509 18.6638 27.8099 18.7842 27.2883 18.7842L25.6367 18.8043ZM26.2653 18.2693H27.1613C27.4689 18.2693 27.6628 18.2024 27.7497 18.062C27.8651 17.7712 27.9109 17.4575 27.8835 17.1458C27.9105 16.8287 27.8694 16.5095 27.7631 16.2096C27.6829 16.0759 27.4956 16.009 27.2014 16.009H26.2653V18.2693Z" fill="black"/>
<path d="M31.0454 16.0093V16.8653H32.6034V17.3334H31.0454V18.2696H32.7037V18.8046H30.4102V15.4609H32.6903V15.9892L31.0454 16.0093Z" fill="black"/>
<path d="M36.7972 15.4805H37.4659L36.396 18.8241H35.4265L34.3633 15.4805H35.032L35.6538 17.3596C35.714 17.5401 35.8009 17.8411 35.9146 18.269L35.9748 18.0417C36.055 17.7608 36.1219 17.5334 36.1754 17.373L36.7972 15.4805Z" fill="black"/>
<path d="M39.7985 16.0093V16.8653H41.3565V17.3334H39.7985V18.2696H41.4568V18.8046H39.1699V15.4609H41.4434V15.9892L39.7985 16.0093Z" fill="black"/>
<path d="M44.0591 15.481V18.2361H45.6171V18.8046H43.4238V15.4609L44.0591 15.481Z" fill="black"/>
<path d="M48.8132 15.4485C49.2255 15.3914 49.6437 15.4996 49.9767 15.7494C50.1979 16.1582 50.2889 16.6249 50.2375 17.0869C50.2952 17.5814 50.2044 18.0819 49.9767 18.5246C49.6041 18.7764 49.1515 18.8812 48.7062 18.8189C48.2927 18.876 47.8732 18.7706 47.536 18.5246C47.3134 18.1333 47.222 17.681 47.2752 17.234C47.2207 16.7288 47.3111 16.2185 47.536 15.7628C47.7099 15.5555 48.1311 15.4485 48.8132 15.4485ZM48.7597 15.9902C48.3384 15.9902 48.091 16.0437 48.0175 16.1574C47.9154 16.5248 47.8791 16.9074 47.9105 17.2875C47.8792 17.5812 47.9229 17.878 48.0375 18.1502C48.1244 18.2438 48.3652 18.2906 48.7798 18.2906C49.1943 18.2906 49.4016 18.2371 49.4818 18.1301C49.5911 17.81 49.6299 17.4701 49.5955 17.1337C49.6292 16.7999 49.5928 16.4628 49.4885 16.144C49.415 16.0437 49.1743 15.9902 48.7597 15.9902Z" fill="black"/>
<path d="M52.1641 18.8022V15.4586H53.6686C53.9903 15.4196 54.315 15.5032 54.578 15.6926C54.7633 15.9575 54.8465 16.2806 54.812 16.6021C54.8513 16.9145 54.77 17.2302 54.5847 17.4848C54.3198 17.6639 53.9995 17.7422 53.6819 17.7055H52.7926V18.7821L52.1641 18.8022ZM52.7926 17.1973H53.5081C53.6967 17.2186 53.8875 17.1837 54.0564 17.0969C54.1511 16.9605 54.1917 16.7936 54.1701 16.6288C54.1913 16.4495 54.1587 16.268 54.0765 16.1072C53.9249 16.0195 53.7486 15.9843 53.575 16.0069H52.7926V17.1973Z" fill="black"/>
<path d="M60.5953 15.4805V18.8241H59.9735V17.0118C59.9735 16.8647 59.9735 16.7042 59.9735 16.517V16.2696V16.0221L59.8999 16.2562L59.8264 16.4902C59.7595 16.6975 59.706 16.8514 59.6659 16.945L58.937 18.8241H58.362L57.6264 16.965C57.5863 16.858 57.5328 16.7042 57.466 16.5036L57.3857 16.2696L57.3121 16.0422V16.2829V16.5237C57.3121 16.7176 57.3121 16.8781 57.3121 17.0118V18.8241H56.6836V15.4805H57.7067L58.3018 17.0185C58.3419 17.1255 58.3954 17.2793 58.4623 17.48L58.5358 17.7073L58.6161 17.9414L58.6829 17.7073L58.7565 17.48C58.8021 17.3257 58.8557 17.1739 58.917 17.0252L59.4987 15.4805H60.5953Z" fill="black"/>
<path d="M63.2427 16.0093V16.8653H64.8007V17.3334H63.2427V18.2696H64.901V18.8046H62.6074V15.4609H64.8876V15.9892L63.2427 16.0093Z" fill="black"/>
<path d="M69.9498 15.4805V18.8241H68.8799L67.9304 16.9985C67.8836 16.9115 67.81 16.751 67.7097 16.5237L67.6027 16.2829L67.4957 16.0422V18.8241H66.8672V15.4805H67.9371L68.7997 17.1656C68.8732 17.3128 68.9668 17.4933 69.0671 17.7073L69.1942 17.9748L69.3145 18.249V15.4805H69.9498Z" fill="black"/>
<path d="M73.3465 16.0422V18.804H72.7179V16.0422H71.7617V15.4805H74.3428V16.0422H73.3465Z" fill="black"/>
<path d="M80.9628 17.6175H81.5913V17.7646C81.5913 18.226 81.5111 18.5269 81.3439 18.6607C80.9961 18.8327 80.6064 18.9023 80.2205 18.8613C79.5519 18.8613 79.164 18.7543 79.0102 18.5403C78.8016 17.993 78.7237 17.4045 78.7829 16.8217C78.7566 16.6297 78.7704 16.4343 78.8233 16.2478C78.8763 16.0614 78.9672 15.8879 79.0905 15.7384C79.481 15.5202 79.9297 15.429 80.3743 15.4776C80.7058 15.4417 81.0398 15.517 81.3238 15.6916C81.4189 15.8097 81.4892 15.9458 81.5306 16.0917C81.5719 16.2376 81.5835 16.3904 81.5646 16.5408V16.6144H80.8959V16.5275C80.8959 16.3135 80.8558 16.173 80.7755 16.1128C80.6 16.0321 80.4061 15.9998 80.2139 16.0192C79.826 16.0192 79.5853 16.066 79.5118 16.1663C79.3999 16.4346 79.3585 16.7269 79.3914 17.0156C79.358 17.3957 79.3943 17.7787 79.4984 18.1458C79.5653 18.2661 79.7993 18.3196 80.1671 18.3196C80.3767 18.3414 80.5885 18.3091 80.7822 18.226C80.8361 18.1697 80.8767 18.102 80.901 18.028C80.9253 17.9539 80.9327 17.8753 80.9226 17.798L80.9628 17.6175Z" fill="black"/>
<path d="M84.868 15.4454C85.0763 15.4174 85.288 15.4308 85.4911 15.4847C85.6942 15.5386 85.8846 15.6321 86.0516 15.7597C86.2697 16.1696 86.3583 16.6359 86.3057 17.0972C86.3634 17.5917 86.2726 18.0922 86.0449 18.5349C85.6746 18.7863 85.2243 18.8911 84.7811 18.8292C84.1726 18.8292 83.7848 18.7356 83.6109 18.5349C83.3823 18.1458 83.2884 17.6922 83.3435 17.2443C83.285 16.7325 83.3755 16.2146 83.6042 15.753C83.9721 15.4958 84.4231 15.3861 84.868 15.4454ZM84.8212 15.9871C84.3933 15.9871 84.1525 16.0406 84.079 16.1543C83.9731 16.521 83.9368 16.9043 83.972 17.2844C83.9398 17.5775 83.9811 17.874 84.0924 18.1471C84.1771 18.2407 84.4245 18.2875 84.8346 18.2875C85.2224 18.2875 85.4632 18.234 85.5367 18.127C85.6497 17.8078 85.6908 17.4676 85.6571 17.1306C85.69 16.7964 85.6512 16.459 85.5434 16.1409C85.4698 16.0406 85.2291 15.9871 84.8212 15.9871Z" fill="black"/>
<path d="M92.102 15.4805V18.8241H91.4735V17.0118C91.4735 16.8647 91.4735 16.7042 91.4735 16.517V16.2696V16.0221L91.3999 16.2562L91.3264 16.4902C91.2595 16.6975 91.206 16.8514 91.1726 16.945L90.437 18.8241H89.862L89.1264 16.965C89.0863 16.858 89.0328 16.7042 88.9659 16.5036L88.8924 16.2696L88.8121 16.0422V16.2829V16.5237C88.8121 16.7176 88.8121 16.8781 88.8121 17.0118V18.8241H88.1836V15.4805H89.2134L89.8085 17.0185C89.8486 17.1255 89.9021 17.2793 89.9689 17.48L90.0425 17.7073L90.116 17.9414L90.1896 17.7073L90.2632 17.48C90.3233 17.286 90.3702 17.1322 90.417 17.0252L90.9987 15.4805H92.102Z" fill="black"/>
<path d="M94.1816 18.803V15.4594H95.6862C96.0081 15.4184 96.3334 15.5022 96.5955 15.6935C96.7886 15.9549 96.8747 16.2802 96.8363 16.6029C96.8723 16.9151 96.7913 17.2296 96.6089 17.4856C96.3441 17.6647 96.0238 17.743 95.7062 17.7063H94.8169V18.783L94.1816 18.803ZM94.8169 17.1981H95.5324C95.721 17.2194 95.9118 17.1845 96.0807 17.0978C96.1754 16.9613 96.2159 16.7944 96.1944 16.6297C96.218 16.4495 96.1828 16.2666 96.094 16.1081C96.0339 16.0412 95.8667 16.0078 95.5992 16.0078H94.8169V17.1981Z" fill="black"/>
<path d="M100.762 18.1632H99.331L99.1238 18.8319H98.4551L99.5584 15.4883H100.508L101.631 18.8319H100.963L100.762 18.1632ZM100.615 17.7018L100.047 15.9698L99.4781 17.7018H100.615Z" fill="black"/>
<path d="M106.479 15.4805V18.8241H105.442L104.493 16.9985C104.446 16.9115 104.373 16.751 104.272 16.5237L104.165 16.2829L104.058 16.0422V18.8241H103.43V15.4805H104.5L105.362 17.1656C105.436 17.3128 105.529 17.4933 105.63 17.7073L105.75 17.9748L105.877 18.249V15.4805H106.479Z" fill="black"/>
<path d="M111.314 15.4805L110.084 17.5334V18.804H109.456V17.5334L108.252 15.4805H108.987L109.489 16.3565L109.629 16.624L109.696 16.7577L109.77 16.8915L109.843 16.7577L109.91 16.624C109.954 16.5321 110.003 16.4428 110.057 16.3565L110.559 15.4805H111.314Z" fill="black"/>
<path d="M82.3259 0.0195312H83.5963V4.47323L87.0467 0.0195312H88.5512L85.8765 3.43002L88.8388 8.65944H87.3342L85.0541 4.4331L83.583 6.03135V8.65944H82.3125L82.3259 0.0195312Z" fill="#E62F37"/>
<path d="M97.9004 6.72683H94.7443L94.0756 8.65944H92.7383L95.7807 0.0195312H96.8439L99.8797 8.65944H98.5424L97.9004 6.72683ZM97.5393 5.56994L96.3224 1.79165L95.1121 5.56994H97.5393Z" fill="#E62F37"/>
<path d="M104.774 6.8472C104.894 7.01156 105.05 7.1465 105.229 7.24175C105.427 7.37157 105.661 7.43696 105.898 7.42899C106.252 7.42839 106.594 7.30018 106.861 7.06788C107.014 6.93575 107.134 6.76821 107.208 6.57971C107.304 6.34888 107.349 6.10048 107.342 5.8508V0.0195312H108.606V5.97786C108.621 6.35174 108.556 6.7245 108.414 7.07072C108.272 7.41694 108.057 7.72847 107.783 7.98403C107.282 8.45706 106.62 8.72233 105.931 8.72631C105.499 8.7378 105.071 8.64104 104.685 8.44483C104.3 8.24863 103.97 7.9592 103.725 7.60286L104.774 6.8472Z" fill="#E62F37"/>
<path d="M114.137 0.0195312H115.407V8.65944H114.137V0.0195312Z" fill="#E62F37"/>
<path d="M120.889 0.0195312H122.086L124.479 5.65018L126.833 0.0195312H128.03V8.65944H126.766V3.26953L125.014 7.4223H123.958L122.159 3.26953V8.65944H120.889V0.0195312Z" fill="#E62F37"/>
<path d="M138.015 6.72683H134.865L134.197 8.65944H132.859L135.902 0.0195312H136.965L140.001 8.65944H138.663L138.015 6.72683ZM137.647 5.56994L136.437 1.79165L135.226 5.56994H137.647Z" fill="#E62F37"/>
</svg>
