<svg width="111" height="32" viewBox="0 0 111 32" fill="none" xmlns="http://www.w3.org/2000/svg">
<path d="M106.49 32H4.09578C1.84413 32 0 30.202 0 28.0066V4.04628C0 1.85091 1.84413 0.0528855 4.09578 0.0528855H106.49C108.742 0.0528855 110.586 1.85091 110.586 4.04628V28.0066C110.586 30.202 108.742 32 106.49 32Z" fill="#C22033"/>
<path d="M106.49 0.692825C108.387 0.692825 109.93 2.19734 109.93 4.04628V28.0066C109.93 29.8555 108.387 31.3601 106.49 31.3601H4.09578C2.19944 31.3601 0.656349 29.8555 0.656349 28.0066V4.04628C0.656349 2.19734 2.19944 0.692825 4.09578 0.692825H106.49ZM106.49 0.0528855H4.09578C1.84413 0.0528855 0 1.85091 0 4.04628V28.0066C0 30.202 1.84413 32 4.09578 32H106.49C108.742 32 110.586 30.202 110.586 28.0066V4.04628C110.586 1.85091 108.742 0.0528855 106.49 0.0528855Z" fill="#C22033"/>
<path d="M7.93262 6.07415C7.69199 6.31975 7.55273 6.70211 7.55273 7.19729V24.8601C7.55273 25.3552 7.69199 25.7376 7.93262 25.9832L7.99201 26.0371L18.1434 16.1435V15.9099L7.99201 6.01625L7.93262 6.07415Z" fill="white"/>
<path d="M22.7531 19.4434L19.373 16.1438V15.9102L22.7572 12.6107L22.833 12.6536L26.8407 14.8769C27.9844 15.5079 27.9844 16.5462 26.8407 17.1811L22.833 19.4004L22.7531 19.4434Z" fill="white"/>
<path d="M22.2176 20.0144L18.7577 16.641L8.54688 26.5975C8.92676 26.9869 9.54625 27.0338 10.2507 26.6444L22.2176 20.0144Z" fill="white"/>
<path d="M22.2176 12.0387L10.2507 5.40867C9.54625 5.02331 8.92676 5.07023 8.54688 5.45959L18.7577 15.4121L22.2176 12.0387Z" fill="white"/>
<path d="M38.8432 8.23369C38.8432 8.90058 38.6384 9.4347 38.235 9.83304C37.7711 10.3053 37.167 10.5429 36.4267 10.5429C35.7191 10.5429 35.115 10.3013 34.6194 9.82505C34.1228 9.34185 33.875 8.74884 33.875 8.03901C33.875 7.32919 34.1228 6.73617 34.6194 6.25696C35.115 5.77676 35.7191 5.53516 36.4267 5.53516C36.7789 5.53516 37.1148 5.60604 37.4353 5.73782C37.7547 5.8706 38.0148 6.0503 38.2032 6.27194L37.7752 6.69324C37.4465 6.31487 36.9991 6.12818 36.4267 6.12818C35.9106 6.12818 35.4631 6.30388 35.0833 6.6583C34.7075 7.01371 34.5191 7.47395 34.5191 8.03901C34.5191 8.60408 34.7075 9.06831 35.0833 9.42372C35.4631 9.77414 35.9106 9.95384 36.4267 9.95384C36.9745 9.95384 37.4353 9.77414 37.7988 9.41973C38.0384 9.18511 38.1746 8.86165 38.2104 8.44833H36.4267V7.87129H38.8063C38.835 7.99608 38.8432 8.11688 38.8432 8.23369Z" fill="white" stroke="white" stroke-width="0.0327663" stroke-miterlimit="10"/>
<path d="M42.6181 6.23256H40.3828V7.75005H42.3979V8.32709H40.3828V9.84458H42.6181V10.4326H39.75V5.64453H42.6181V6.23256Z" fill="white" stroke="white" stroke-width="0.0327663" stroke-miterlimit="10"/>
<path d="M45.2832 10.4326H44.6504V6.23256H43.2793V5.64453H46.6552V6.23256H45.2832V10.4326Z" fill="white" stroke="white" stroke-width="0.0327663" stroke-miterlimit="10"/>
<path d="M49.0977 10.4326V5.64453H49.7294V10.4326H49.0977Z" fill="white" stroke="white" stroke-width="0.0327663" stroke-miterlimit="10"/>
<path d="M52.5312 10.4326H51.9035V6.23256H50.5273V5.64453H53.9074V6.23256H52.5312V10.4326Z" fill="white" stroke="white" stroke-width="0.0327663" stroke-miterlimit="10"/>
<path d="M60.297 9.81707C59.8126 10.3013 59.2126 10.5429 58.4969 10.5429C57.777 10.5429 57.177 10.3013 56.6927 9.81707C56.2094 9.33387 55.9688 8.74085 55.9688 8.03901C55.9688 7.33717 56.2094 6.74415 56.6927 6.26095C57.177 5.77676 57.777 5.53516 58.4969 5.53516C59.2085 5.53516 59.8086 5.77676 60.2929 6.26495C60.7803 6.75214 61.0209 7.34117 61.0209 8.03901C61.0209 8.74085 60.7803 9.33387 60.297 9.81707ZM57.1606 9.41573C57.5251 9.77414 57.9685 9.95384 58.4969 9.95384C59.0211 9.95384 59.4686 9.77414 59.829 9.41573C60.1925 9.05733 60.3768 8.59709 60.3768 8.03901C60.3768 7.48094 60.1925 7.0207 59.829 6.66229C59.4686 6.30388 59.0211 6.12418 58.4969 6.12418C57.9685 6.12418 57.5251 6.30388 57.1606 6.66229C56.7971 7.0207 56.6128 7.48094 56.6128 8.03901C56.6128 8.59709 56.7971 9.05733 57.1606 9.41573Z" fill="white" stroke="white" stroke-width="0.0327663" stroke-miterlimit="10"/>
<path d="M61.9102 10.4326V5.64453H62.6781L65.066 9.36837H65.0936L65.066 8.44789V5.64453H65.6977V10.4326H65.0383L62.5378 6.52507H62.5102L62.5378 7.44954V10.4326H61.9102Z" fill="white" stroke="white" stroke-width="0.0327663" stroke-miterlimit="10"/>
<path d="M55.8142 17.4258C53.8902 17.4258 52.3184 18.8535 52.3184 20.8232C52.3184 22.777 53.8902 24.2196 55.8142 24.2196C57.7423 24.2196 59.314 22.777 59.314 20.8232C59.314 18.8535 57.7423 17.4258 55.8142 17.4258ZM55.8142 22.8818C54.7585 22.8818 53.8503 22.0322 53.8503 20.8232C53.8503 19.5982 54.7585 18.7636 55.8142 18.7636C56.8699 18.7636 57.7822 19.5982 57.7822 20.8232C57.7822 22.0322 56.8699 22.8818 55.8142 22.8818ZM48.1868 17.4258C46.2587 17.4258 44.6911 18.8535 44.6911 20.8232C44.6911 22.777 46.2587 24.2196 48.1868 24.2196C50.1139 24.2196 51.6826 22.777 51.6826 20.8232C51.6826 18.8535 50.1139 17.4258 48.1868 17.4258ZM48.1868 22.8818C47.1301 22.8818 46.2188 22.0322 46.2188 20.8232C46.2188 19.5982 47.1301 18.7636 48.1868 18.7636C49.2425 18.7636 50.1507 19.5982 50.1507 20.8232C50.1507 22.0322 49.2425 22.8818 48.1868 22.8818ZM39.1106 18.4671V19.9107H42.6462C42.5428 20.7174 42.2664 21.3104 41.8424 21.7237C41.3264 22.2229 40.5226 22.777 39.1106 22.777C36.9347 22.777 35.2308 21.0648 35.2308 18.9433C35.2308 16.8218 36.9347 15.1097 39.1106 15.1097C40.2871 15.1097 41.1431 15.5579 41.7749 16.139L42.8183 15.1216C41.9346 14.299 40.7591 13.6671 39.1106 13.6671C36.1268 13.6671 33.6191 16.0341 33.6191 18.9433C33.6191 21.8525 36.1268 24.2196 39.1106 24.2196C40.7233 24.2196 41.9346 23.7044 42.8869 22.738C43.8627 21.7866 44.1668 20.4488 44.1668 19.3686C44.1668 19.0332 44.1381 18.7247 44.0869 18.4671H39.1106ZM76.2245 19.5863C75.9368 18.8265 75.049 17.4258 73.2407 17.4258C71.4488 17.4258 69.9569 18.8025 69.9569 20.8232C69.9569 22.7261 71.4335 24.2196 73.4127 24.2196C75.0132 24.2196 75.9368 23.2682 76.3167 22.7141L75.1289 21.9424C74.7326 22.5074 74.193 22.8818 73.4127 22.8818C72.6376 22.8818 72.0816 22.5354 71.7253 21.8525L76.3853 19.9726L76.2245 19.5863ZM71.4734 20.7174C71.4335 19.4075 72.5168 18.7367 73.2929 18.7367C73.9012 18.7367 74.4172 19.0332 74.5893 19.4575L71.4734 20.7174ZM67.6858 24.0129H69.2176V14.0295H67.6858V24.0129ZM65.1771 18.1826H65.1259C64.7819 17.7852 64.1256 17.4258 63.2941 17.4258C61.5493 17.4258 59.954 18.9194 59.954 20.8342C59.954 22.738 61.5493 24.2196 63.2941 24.2196C64.1256 24.2196 64.7819 23.8572 65.1259 23.4479H65.1771V23.9351C65.1771 25.2339 64.4655 25.9317 63.3177 25.9317C62.3818 25.9317 61.8012 25.2728 61.5616 24.7188L60.2294 25.2609C60.6134 26.1614 61.6302 27.2695 63.3177 27.2695C65.1137 27.2695 66.6291 26.2392 66.6291 23.7324V17.6325H65.1771V18.1826ZM63.4252 22.8818C62.3695 22.8818 61.4858 22.0202 61.4858 20.8342C61.4858 19.6372 62.3695 18.7636 63.4252 18.7636C64.4655 18.7636 65.2857 19.6372 65.2857 20.8342C65.2857 22.0202 64.4655 22.8818 63.4252 22.8818ZM83.3962 14.0295H79.7325V24.0129H81.2603V20.2302H83.3962C85.0929 20.2302 86.7568 19.0332 86.7568 17.1293C86.7568 15.2265 85.0888 14.0295 83.3962 14.0295ZM83.4361 18.8415H81.2603V15.4182H83.4361C84.5768 15.4182 85.2281 16.3416 85.2281 17.1293C85.2281 17.902 84.5768 18.8415 83.4361 18.8415ZM92.88 17.4069C91.7762 17.4069 90.6283 17.8821 90.1563 18.9353L91.512 19.4894C91.8038 18.9353 92.3404 18.7556 92.9076 18.7556C93.7002 18.7556 94.504 19.2199 94.5163 20.0395V20.1443C94.2398 19.9886 93.648 19.758 92.9199 19.758C91.4598 19.758 89.972 20.5417 89.972 22.0042C89.972 23.342 91.168 24.2036 92.5124 24.2036C93.5404 24.2036 94.1077 23.7514 94.464 23.2252H94.5163V23.9969H95.9918V20.1673C95.9918 18.3972 94.6361 17.4069 92.88 17.4069ZM92.6957 22.8778C92.196 22.8778 91.4997 22.6362 91.4997 22.0322C91.4997 21.2595 92.368 20.963 93.1196 20.963C93.7923 20.963 94.1077 21.1077 94.5163 21.2984C94.3965 22.2229 93.5804 22.8778 92.6957 22.8778ZM101.367 17.6255L99.6114 21.9533H99.5592L97.7437 17.6255H96.0962L98.824 23.6735L97.2676 27.0389H98.8639L103.067 17.6255H101.367ZM87.5964 24.0129H89.1283V14.0295H87.5964V24.0129Z" fill="white"/>
</svg>
