<svg width="73" height="72" viewBox="0 0 73 72" fill="none" xmlns="http://www.w3.org/2000/svg">
<rect x="13" y="27" width="28" height="31" rx="2" fill="black"/>
<rect x="17.8008" y="32" width="28" height="2" rx="1" fill="white"/>
<rect x="21" y="36.1934" width="32" height="16" transform="rotate(-41.477 21 36.1934)" fill="black"/>
<path d="M26.1588 38.9107C27.5234 37.7043 27.6517 35.6201 26.4454 34.2554L26.3875 34.1899C26.3627 34.1619 26.3653 34.1191 26.3933 34.0943L42.2294 20.0951C42.2574 20.0703 42.3002 20.073 42.325 20.101L42.3829 20.1665C43.5892 21.5311 45.6735 21.6594 47.0381 20.4531C47.0654 20.4289 47.1071 20.4315 47.1312 20.4588L50.4175 24.1763C50.4417 24.2036 50.4391 24.2453 50.4118 24.2694C49.0472 25.4758 48.9188 27.56 50.1252 28.9247L50.1831 28.9902C50.2079 29.0182 50.2052 29.061 50.1772 29.0858L34.3412 43.085C34.3132 43.1098 34.2704 43.1071 34.2456 43.0791L34.1877 43.0136C32.9813 41.6489 30.8971 41.5206 29.5324 42.727C29.5052 42.7511 29.4635 42.7486 29.4393 42.7213L26.153 39.0038C26.1289 38.9765 26.1315 38.9348 26.1588 38.9107Z" fill="white"/>
<circle cx="38.2868" cy="31.5898" r="4" transform="rotate(-41.477 38.2868 31.5898)" fill="black"/>
<circle cx="45.0282" cy="25.6289" r="2" transform="rotate(-41.477 45.0282 25.6289)" fill="black"/>
<path d="M13 36C13 34.8954 13.8954 34 15 34H55C56.1046 34 57 34.8954 57 36V56C57 57.1046 56.1046 58 55 58H15C13.8954 58 13 57.1046 13 56V36Z" fill="black"/>
<path d="M60 42V41H59H52C49.2386 41 47 43.2386 47 46C47 48.7614 49.2386 51 52 51H59H60V50V42Z" fill="black" stroke="white" stroke-width="2"/>
</svg>
