<svg width="24" height="24" viewBox="0 0 24 24" fill="none" xmlns="http://www.w3.org/2000/svg">
<path d="M5.05499 3.24642C4.98913 3.17218 4.90918 3.11174 4.81979 3.06862C4.7304 3.0255 4.63334 3.00056 4.53423 2.99522C4.43513 2.98989 4.33595 3.00428 4.24245 3.03756C4.14895 3.07084 4.06298 3.12235 3.98953 3.1891C3.91608 3.25585 3.85661 3.33651 3.81457 3.42642C3.77252 3.51632 3.74874 3.61367 3.7446 3.71283C3.74045 3.81199 3.75603 3.91099 3.79043 4.00409C3.82483 4.09718 3.87737 4.18253 3.94499 4.25517L5.74874 6.23986C2.34374 8.32955 0.879366 11.5508 0.814679 11.697C0.772035 11.793 0.75 11.8968 0.75 12.0017C0.75 12.1067 0.772035 12.2105 0.814679 12.3064C0.847491 12.3805 1.64155 14.1411 3.40687 15.9064C5.75905 18.2577 8.72999 19.5008 12 19.5008C13.6806 19.5104 15.3442 19.1644 16.8816 18.4855L18.9441 20.7552C19.0099 20.8294 19.0899 20.8898 19.1793 20.933C19.2686 20.9761 19.3657 21.001 19.4648 21.0064C19.5639 21.0117 19.6631 20.9973 19.7566 20.964C19.8501 20.9307 19.9361 20.8792 20.0095 20.8125C20.083 20.7457 20.1424 20.6651 20.1845 20.5752C20.2265 20.4853 20.2503 20.3879 20.2544 20.2888C20.2586 20.1896 20.243 20.0906 20.2086 19.9975C20.1742 19.9044 20.1217 19.8191 20.0541 19.7464L5.05499 3.24642ZM13.3987 14.6549C12.8105 14.9643 12.136 15.0697 11.4814 14.9543C10.8268 14.839 10.229 14.5095 9.78188 14.0176C9.33481 13.5256 9.06377 12.8992 9.01134 12.2365C8.9589 11.5738 9.12804 10.9125 9.49218 10.3564L13.3987 14.6549ZM23.1853 12.3064C23.1459 12.3945 22.1962 14.4974 20.0578 16.4127C19.9104 16.5449 19.7167 16.6135 19.519 16.6035C19.3212 16.5935 19.1354 16.5057 19.0022 16.3592L9.50624 5.91361C9.4154 5.81392 9.35312 5.69159 9.32596 5.55948C9.29879 5.42738 9.30776 5.2904 9.3519 5.16296C9.39604 5.03552 9.47373 4.92234 9.57679 4.83534C9.67985 4.74834 9.80445 4.69074 9.93749 4.66861C10.6192 4.55605 11.309 4.49992 12 4.5008C15.27 4.5008 18.2409 5.74392 20.5931 8.09611C22.3584 9.86142 23.1525 11.623 23.1853 11.697C23.2279 11.793 23.25 11.8968 23.25 12.0017C23.25 12.1067 23.2279 12.2105 23.1853 12.3064Z" fill="#7F7F7F"/>
</svg>
