
<svg width="24" height="24" viewBox="0 0 24 24" fill="none" xmlns="http://www.w3.org/2000/svg">
<path d="M20.6956 11.7638C20.6701 11.7062 20.0528 10.3369 18.6806 8.96468C16.8522 7.13624 14.5427 6.16992 12.0009 6.16992C9.45898 6.16992 7.14957 7.13624 5.32113 8.96468C3.94889 10.3369 3.32873 11.7084 3.30614 11.7638C3.27299 11.8384 3.25586 11.9191 3.25586 12.0007C3.25586 12.0823 3.27299 12.1629 3.30614 12.2375C3.33164 12.2951 3.94889 13.6637 5.32113 15.0359C7.14957 16.8636 9.45898 17.8299 12.0009 17.8299C14.5427 17.8299 16.8522 16.8636 18.6806 15.0359C20.0528 13.6637 20.6701 12.2951 20.6956 12.2375C20.7287 12.1629 20.7459 12.0823 20.7459 12.0007C20.7459 11.9191 20.7287 11.8384 20.6956 11.7638ZM12.0009 14.9149C11.4243 14.9149 10.8607 14.744 10.3814 14.4237C9.902 14.1034 9.52838 13.6481 9.30775 13.1154C9.08712 12.5828 9.02939 11.9967 9.14187 11.4312C9.25434 10.8658 9.53197 10.3464 9.93964 9.93871C10.3473 9.53104 10.8667 9.25341 11.4322 9.14093C11.9976 9.02846 12.5837 9.08619 13.1164 9.30682C13.649 9.52744 14.1043 9.90107 14.4246 10.3804C14.7449 10.8598 14.9159 11.4234 14.9159 11.9999C14.9159 12.773 14.6087 13.5145 14.0621 14.0611C13.5154 14.6078 12.774 14.9149 12.0009 14.9149Z" fill="#777777"/>
</svg>
