
<svg width="24" height="24" viewBox="0 0 24 24" fill="none" xmlns="http://www.w3.org/2000/svg">
<path d="M6.60366 5.19607C6.55248 5.13837 6.49034 5.0914 6.42087 5.05789C6.35139 5.02438 6.27596 5.00499 6.19893 5.00084C6.12191 4.9967 6.04483 5.00788 5.97216 5.03375C5.89949 5.05961 5.83267 5.09965 5.77559 5.15152C5.7185 5.2034 5.67228 5.26609 5.6396 5.33597C5.60693 5.40584 5.58844 5.4815 5.58522 5.55857C5.582 5.63564 5.59411 5.71258 5.62085 5.78493C5.64758 5.85729 5.68841 5.92362 5.74097 5.98008L7.14285 7.52258C4.49647 9.14669 3.35836 11.6503 3.30808 11.7639C3.27494 11.8385 3.25781 11.9191 3.25781 12.0007C3.25781 12.0823 3.27494 12.163 3.30808 12.2375C3.33358 12.2951 3.95073 13.6635 5.32274 15.0355C7.15086 16.8629 9.45989 17.829 12.0013 17.829C13.3075 17.8365 14.6004 17.5675 15.7953 17.0399L17.3983 18.8039C17.4495 18.8616 17.5116 18.9086 17.5811 18.9421C17.6506 18.9756 17.726 18.995 17.803 18.9992C17.88 19.0033 17.9571 18.9921 18.0298 18.9663C18.1025 18.9404 18.1693 18.9004 18.2264 18.8485C18.2834 18.7966 18.3297 18.7339 18.3623 18.664C18.395 18.5942 18.4135 18.5185 18.4167 18.4414C18.4199 18.3644 18.4078 18.2874 18.3811 18.2151C18.3544 18.1427 18.3135 18.0764 18.261 18.0199L6.60366 5.19607ZM13.0885 14.0627C12.6312 14.3033 12.1071 14.3851 11.5983 14.2955C11.0895 14.2058 10.6249 13.9498 10.2774 13.5674C9.92995 13.1851 9.7193 12.6982 9.67855 12.1832C9.6378 11.6682 9.76925 11.1542 10.0523 10.722L13.0885 14.0627ZM20.6946 12.2375C20.664 12.306 19.9259 13.9403 18.2639 15.4289C18.1494 15.5317 17.9988 15.585 17.8451 15.5772C17.6914 15.5695 17.547 15.5012 17.4435 15.3874L10.0632 7.26902C9.99259 7.19154 9.94418 7.09646 9.92307 6.99379C9.90196 6.89112 9.90893 6.78466 9.94324 6.68561C9.97754 6.58657 10.0379 6.4986 10.118 6.43099C10.1981 6.36337 10.295 6.31861 10.3984 6.3014C10.9282 6.21392 11.4643 6.1703 12.0013 6.17098C14.5428 6.17098 16.8518 7.13714 18.6799 8.96526C20.052 10.3373 20.6691 11.7064 20.6946 11.7639C20.7277 11.8385 20.7449 11.9191 20.7449 12.0007C20.7449 12.0823 20.7277 12.163 20.6946 12.2375Z" fill="#7F7F7F"/>
</svg>
