<svg width="33" height="32" viewBox="0 0 33 32" fill="none" xmlns="http://www.w3.org/2000/svg">
<path d="M24.2446 8H6.4668L15.5234 19.1111L24.2446 8Z" fill="black"/>
<path d="M18.8249 12.8906H12.1582L15.5544 17.3351L18.8249 12.8906Z" fill="white"/>
<path d="M15.5331 18.2227V27.8227H13.9355H17.0467" stroke="black" stroke-width="0.888889"/>
<path d="M22.1415 11.9623L21.7726 12.2102C21.913 12.4192 22.1026 12.5905 22.3248 12.7089C22.547 12.8274 22.7949 12.8893 23.0467 12.8893C23.2984 12.8893 23.5463 12.8274 23.7685 12.7089C23.9892 12.5913 24.1778 12.4215 24.3179 12.2144C24.3256 12.2039 24.3367 12.1963 24.3491 12.193C24.3614 12.1897 24.3743 12.1907 24.3859 12.1957C24.6105 12.307 24.8594 12.3606 25.11 12.3515C25.3618 12.3424 25.6072 12.2702 25.8239 12.1417C26.0412 12.0167 26.2245 11.8401 26.3574 11.6274C26.4911 11.4135 26.5697 11.1699 26.5863 10.9183L26.5864 10.9171C26.5872 10.9042 26.5927 10.8921 26.6017 10.8831C26.6107 10.874 26.6227 10.8687 26.6352 10.8679L26.6352 10.8679L26.64 10.8676C26.8905 10.8489 27.1325 10.7693 27.3451 10.6356C27.5577 10.5019 27.7343 10.3183 27.8597 10.1007C27.9851 9.88311 28.0555 9.63817 28.0647 9.38721C28.0739 9.13626 28.0216 8.88683 27.9125 8.66065L27.9123 8.66022C27.9072 8.64977 27.9061 8.6378 27.9091 8.62653C27.9121 8.61525 27.9191 8.60557 27.9285 8.59917L27.9298 8.59829C28.1371 8.45686 28.3066 8.26693 28.4238 8.04506C28.5409 7.8232 28.6022 7.57606 28.6022 7.3251C28.6022 7.07415 28.5409 6.82701 28.4238 6.60515C28.3109 6.39132 28.1493 6.20716 27.9522 6.06749L27.9532 6.06597C27.9429 6.05893 27.9353 6.04833 27.9321 6.03598C27.9288 6.02365 27.93 6.01058 27.9355 5.99916C28.045 5.77326 28.0974 5.52398 28.0883 5.27313C28.0791 5.02216 28.0086 4.77721 27.8829 4.55976C27.7572 4.34231 27.5802 4.15901 27.3672 4.02592C27.1542 3.89283 26.9119 3.81403 26.6613 3.79646V3.79645L26.6584 3.79626C26.6459 3.79547 26.634 3.79012 26.625 3.78107C26.6159 3.772 26.6104 3.75989 26.6096 3.747L26.6096 3.747L26.6094 3.74411C26.5919 3.49358 26.5132 3.25114 26.3803 3.03804L26.0032 3.27324L26.3803 3.03804C26.2474 2.82494 26.0643 2.64767 25.8469 2.5218C25.6296 2.39593 25.3848 2.32531 25.1338 2.31615C24.883 2.307 24.6337 2.35953 24.4079 2.46912C24.3967 2.47455 24.384 2.47576 24.3719 2.47255C24.36 2.46936 24.3494 2.46193 24.3423 2.45147L24.3419 2.45089C24.2003 2.24386 24.0107 2.07417 23.7893 1.95634L23.7893 1.95631L23.7846 1.9539C23.5661 1.84086 23.324 1.78089 23.078 1.77882C22.8251 1.77169 22.5743 1.82721 22.348 1.94049L22.5469 2.33793L22.348 1.94049C22.1198 2.05469 21.9237 2.22396 21.7774 2.43295L21.7774 2.43292L21.7732 2.43899C21.7668 2.44857 21.7571 2.45539 21.7462 2.45834C21.7352 2.46129 21.7236 2.46019 21.7133 2.45523L21.7129 2.45502C21.4868 2.34571 21.2375 2.29337 20.9865 2.30258C20.7356 2.31178 20.4907 2.38225 20.2732 2.50784C20.0558 2.63342 19.8723 2.81028 19.7388 3.023C19.6054 3.2357 19.5258 3.47783 19.5072 3.72828L19.5072 3.72828L19.5069 3.73307C19.5061 3.74602 19.5006 3.75811 19.4916 3.76713C19.4825 3.77616 19.4706 3.78152 19.458 3.78232L19.458 3.78232L19.4561 3.78245C19.2052 3.7995 18.9623 3.87817 18.749 4.01147C18.5357 4.14478 18.3586 4.32861 18.2332 4.54664C18.1078 4.76467 18.038 5.01024 18.03 5.26167C18.022 5.51162 18.0753 5.75969 18.1851 5.98422C18.1901 5.99541 18.1911 6.00807 18.1879 6.02003C18.1845 6.03232 18.1769 6.04291 18.1664 6.04991L18.1664 6.0499L18.1635 6.05192C17.9562 6.19334 17.7866 6.38327 17.6695 6.60515C17.5523 6.82705 17.4911 7.0742 17.4911 7.3251C17.4911 7.57601 17.5523 7.82316 17.6695 8.04505L18.0625 7.83753L17.6695 8.04506C17.7866 8.26693 17.9562 8.45686 18.1635 8.59829L18.1634 8.59832L18.1679 8.60129C18.1775 8.60766 18.1845 8.61732 18.1876 8.62856C18.1907 8.63986 18.1897 8.65187 18.1847 8.66235L18.5857 8.85381M22.1415 11.9623L21.7753 12.2142C21.7682 12.2039 21.7577 12.1965 21.7458 12.1933C21.7345 12.1903 21.7225 12.1911 21.7118 12.1958C21.4865 12.307 21.2369 12.3606 20.9857 12.3515C20.733 12.3423 20.4867 12.2701 20.2691 12.1414C20.0524 12.0159 19.8697 11.8392 19.737 11.6268C19.6038 11.4136 19.5248 11.171 19.5071 10.9203L19.5069 10.9171C19.5061 10.9042 19.5006 10.8921 19.4916 10.8831C19.4825 10.874 19.4706 10.8687 19.458 10.8679L19.4529 10.8676L19.4529 10.8675C19.2031 10.8487 18.9616 10.7694 18.7493 10.6364C18.537 10.5035 18.3602 10.3208 18.2341 10.1043L18.2332 10.1028C18.1071 9.88416 18.0369 9.63771 18.0289 9.38539C18.0209 9.13303 18.0754 8.88264 18.1875 8.65649L18.5857 8.85381M22.1415 11.9623C22.2413 12.1109 22.376 12.2326 22.5339 12.3167C22.6917 12.4009 22.8678 12.4449 23.0467 12.4449C23.2255 12.4449 23.4016 12.4009 23.5594 12.3167C23.7173 12.2326 23.852 12.1109 23.9518 11.9623M22.1415 11.9623H23.9518M18.5857 8.85381C18.6369 8.74672 18.6476 8.62477 18.6161 8.51037C18.5845 8.39597 18.5127 8.29683 18.414 8.23117L21.5194 11.7951C21.359 11.8752 21.181 11.9138 21.0018 11.9073C20.8226 11.9008 20.6478 11.8495 20.4936 11.7579C20.3389 11.6686 20.2085 11.5427 20.1138 11.3912C20.0192 11.2397 19.963 11.0672 19.9505 10.889C19.9428 10.7683 19.8914 10.6545 19.806 10.569C19.7205 10.4834 19.6069 10.432 19.4863 10.4243C19.3084 10.4109 19.1364 10.3545 18.9852 10.2598C18.834 10.1651 18.708 10.035 18.6182 9.88069C18.5287 9.72547 18.4788 9.55049 18.4732 9.37134C18.4675 9.19218 18.5062 9.01439 18.5857 8.85381ZM23.9518 11.9623C24.0196 11.8647 24.1197 11.7942 24.2345 11.7636C24.3493 11.733 24.4712 11.7441 24.5785 11.7951C24.7381 11.8752 24.9154 11.9139 25.0939 11.9074C25.2723 11.9009 25.4463 11.8495 25.5997 11.7579L23.9518 11.9623Z" fill="black" stroke="white" stroke-width="0.888889"/>
<path d="M25.3879 4.96103C24.8397 4.41995 24.1211 4.0854 23.3541 4.01426C22.5872 3.94311 21.8193 4.13976 21.1809 4.57077C20.5426 5.00179 20.0732 5.64056 19.8526 6.37852C19.6319 7.11647 19.6737 7.90807 19.9707 8.61873C20.2677 9.32939 20.8017 9.91526 21.4818 10.2767C22.162 10.6382 22.9463 10.753 23.7015 10.6016C24.4567 10.4502 25.1362 10.0419 25.6244 9.44621C26.1126 8.85048 26.3794 8.10405 26.3796 7.33382C26.3793 6.89239 26.2916 6.45539 26.1213 6.04811C25.9511 5.64082 25.7018 5.27133 25.3879 4.96103Z" fill="white"/>
<path d="M23.9261 6.48134L22.1026 8.45933" stroke="black" stroke-width="0.888889" stroke-linecap="round"/>
<circle cx="22.0177" cy="6.30658" r="0.507282" transform="rotate(-2.32738 22.0177 6.30658)" fill="black"/>
<circle cx="24.3888" cy="8.49408" r="0.507282" transform="rotate(-2.32738 24.3888 8.49408)" fill="black"/>
</svg>
