<svg width="73" height="72" viewBox="0 0 73 72" fill="none" xmlns="http://www.w3.org/2000/svg">
<path d="M14 27.2625C16.8648 24.3305 20.2868 22.0007 24.0648 20.41C27.8429 18.8194 31.9008 18 36 18C40.0992 18 44.1571 18.8194 47.9352 20.41C51.7132 22.0007 55.1352 24.3305 58 27.2625" stroke="black" stroke-width="2" stroke-linecap="square" stroke-linejoin="round"/>
<path d="M20.3594 31.8528C22.3949 29.7713 24.8258 28.1173 27.5093 26.9882C30.1928 25.859 33.0749 25.2773 35.9863 25.2773C38.8977 25.2773 41.7798 25.859 44.4633 26.9882C47.1469 28.1173 49.5777 29.7713 51.6132 31.8528" stroke="black" stroke-width="2" stroke-linecap="square" stroke-linejoin="round"/>
<path d="M26.2383 36.5269C27.5087 35.2251 29.0268 34.1906 30.703 33.4843C32.3793 32.7779 34.1799 32.4141 35.9989 32.4141C37.8179 32.4141 39.6185 32.7779 41.2948 33.4843C42.9711 34.1906 44.4891 35.2251 45.7595 36.5269" stroke="black" stroke-width="2" stroke-linecap="square" stroke-linejoin="round"/>
<path d="M40.6749 44.6752C40.8402 44.6619 41.0061 44.6933 41.1551 44.766C41.3042 44.8387 41.4309 44.9502 41.5221 45.0887C41.6133 45.2272 41.6656 45.3876 41.6736 45.5533C41.6815 45.7189 41.6448 45.8837 41.5673 46.0303L37.1607 53.6206C37.0659 53.7737 36.9326 53.899 36.774 53.9841C36.6154 54.0692 36.4372 54.111 36.2573 54.1054H36.1802C36.0325 54.1103 35.8857 54.0806 35.7515 54.0187C35.6173 53.9567 35.4995 53.8643 35.4074 53.7487C35.3153 53.633 35.2516 53.4975 35.2213 53.3528C35.191 53.2082 35.1949 53.0584 35.2328 52.9156L37.1496 47.154H33.2388C33.0966 47.1625 32.9544 47.1389 32.8226 47.0849C32.6908 47.0309 32.5729 46.9479 32.4776 46.842C32.3823 46.7362 32.3121 46.6102 32.2722 46.4735C32.2324 46.3367 32.2239 46.1928 32.2473 46.0523L33.2388 40.8745C33.2918 40.6533 33.4192 40.4571 33.5997 40.3186C33.7802 40.1802 34.0029 40.1081 34.2303 40.1144H37.37C37.5112 40.1075 37.6523 40.1324 37.7827 40.1872C37.9131 40.2419 38.0295 40.3252 38.1236 40.4308C38.2176 40.5365 38.2868 40.6618 38.326 40.7977C38.3653 40.9336 38.3737 41.0765 38.3505 41.216L37.6895 44.6752H40.6749Z" fill="black"/>
</svg>
