<svg width="73" height="72" viewBox="0 0 73 72" fill="none" xmlns="http://www.w3.org/2000/svg">
<path d="M19.0879 54.9991H35.4023V37H18.4023C17.2978 37 16.4023 37.8954 16.4023 39V53.0328C16.4022 53.2962 16.4722 53.5569 16.6081 53.7995C16.744 54.0421 16.9431 54.2616 17.1936 54.445C17.4441 54.6284 17.7408 54.772 18.0663 54.8671C18.3917 54.9623 18.7391 55.0072 19.0879 54.9991Z" fill="white"/>
<path d="M53.7168 54.9991H37.4023V37H54.4023C55.5069 37 56.4023 37.8954 56.4023 39V53.0328C56.4025 53.2962 56.3325 53.5569 56.1966 53.7995C56.0607 54.0421 55.8616 54.2616 55.6111 54.445C55.3606 54.6284 55.0639 54.772 54.7384 54.8671C54.413 54.9623 54.0656 55.0072 53.7168 54.9991Z" fill="white"/>
<path d="M18.5865 35H54.4876C54.9954 35 55.4823 34.7992 55.8414 34.4419C56.2005 34.0846 56.4023 33.5999 56.4023 33.0945V27.9737C56.4024 27.4656 56.2015 26.9778 55.8432 26.6157C55.485 26.2537 54.9981 26.0463 54.4876 26.0385H51.4958V24.8476C51.4958 23.576 51.14 22.3294 50.4681 21.2476C49.7963 20.1659 48.835 19.2916 47.692 18.7229C46.549 18.1542 45.2694 17.9135 43.9967 18.0277C42.724 18.1419 41.5085 18.6065 40.4862 19.3696C38.8831 20.662 37.5078 22.2116 36.4172 23.9545C35.3086 22.225 33.9359 20.6782 32.3485 19.3696C31.3296 18.6101 30.1191 18.1469 28.8515 18.0312C27.5838 17.9156 26.309 18.1521 25.1684 18.7146C24.03 19.2937 23.0718 20.1708 22.397 21.2515C21.7222 22.3322 21.3564 23.5755 21.3388 24.8476V26.0385H18.3471C17.8313 26.0385 17.3368 26.2424 16.9721 26.6053C16.6074 26.9683 16.4023 27.4605 16.4023 27.9737V33.0945C16.4102 33.6026 16.6186 34.0872 16.9825 34.4437C17.3463 34.8002 17.8365 35.0001 18.3471 35H18.5865ZM42.9394 22.4361C43.3858 22.094 43.92 21.8843 44.4808 21.8311C45.0416 21.7779 45.6062 21.8833 46.1094 22.1353C46.6127 22.3872 47.0342 22.7755 47.3255 23.2553C47.6169 23.7352 47.7661 24.2871 47.7561 24.8476V26.0385H39.7979C40.5984 24.6884 41.6081 23.4727 42.7897 22.4361H42.9394ZM25.288 24.8476C25.278 24.2871 25.4272 23.7352 25.7185 23.2553C26.0099 22.7755 26.4314 22.3872 26.9347 22.1353C27.4379 21.8833 28.0025 21.7779 28.5633 21.8311C29.1241 21.8843 29.6583 22.094 30.1047 22.4361C31.3502 23.4587 32.4211 24.6752 33.2759 26.0385H25.288V24.8476Z" fill="white"/>
</svg>
