<svg width="73" height="72" viewBox="0 0 73 72" fill="none" xmlns="http://www.w3.org/2000/svg">
<path d="M18.1205 30.9658C16.8197 31.5046 16.0123 32.4638 16.0001 33.8217C15.9917 34.7711 16.6409 36.0461 17.9417 36.5671C18.4775 36.7823 26.0004 37.7809 26.0004 37.7809C26.0004 37.7809 27.9916 43.9921 28.7092 46.175C28.917 46.8066 29.0354 47.1164 29.4914 47.5289C30.265 48.2276 31.5728 48.0086 32.1384 47.448C33.6348 45.9678 36 43.6842 36 43.6842L36.9954 44.4835C36.9954 44.4835 41.4156 47.9631 43.8318 49.6013C45.2544 50.5664 46.2418 51.573 47.843 51.5789C48.6586 51.5829 49.9668 51.1822 50.8316 50.2052C51.403 49.5598 51.7696 48.5276 51.9114 47.6019C52.2338 45.5 56.016 22.7711 56 21.9757C55.9743 20.7067 54.8925 19.9922 53.9934 20.0001C53.4286 20.006 52.9632 20.1679 51.9276 20.4797C43.9168 22.8935 18.6511 30.7467 18.1205 30.9658ZM48 25.9211C48 25.9211 37.444 34.9882 33.2258 39.1605C31.8744 40.4967 31.779 42.7901 31.779 42.7901L29.5986 35.9059L48 25.9211Z" fill="black"/>
<path d="M32 53L36 49" stroke="black" stroke-width="2" stroke-linecap="round"/>
<path d="M56 40L61 35" stroke="black" stroke-width="2" stroke-linecap="round"/>
<path d="M49 56L54 51" stroke="black" stroke-width="2" stroke-linecap="round"/>
</svg>
