<svg width="73" height="72" viewBox="0 0 73 72" fill="none" xmlns="http://www.w3.org/2000/svg">
<path d="M26.2064 27.754L25.1193 27.3312L24.0969 27.8926C20.1207 30.0759 14.5503 33.8117 11.028 37.9327C9.28771 39.969 7.78201 42.4029 7.53669 45.0209C7.26635 47.9059 8.56427 50.4764 11.2976 52.4158L12.7442 50.3769L11.2976 52.4158C12.9948 53.62 15.5494 54.3151 18.0854 54.7347C20.7265 55.1716 23.7485 55.3696 26.6781 55.3542C29.6043 55.3389 32.5221 55.1103 34.9513 54.6597C36.1636 54.4349 37.3117 54.1444 38.302 53.7705C39.1971 53.4326 40.1828 52.9468 40.9325 52.2021C43.0118 50.3813 43.5049 47.8574 43.1225 45.4675C42.7479 43.1255 41.5321 40.7206 39.9522 38.5294C36.7868 34.1393 31.6126 29.8568 26.2064 27.754Z" fill="black" stroke="#F2F2F2" stroke-width="5"/>
<path d="M49.4662 27.754L48.3791 27.3312L47.3566 27.8926C43.3805 30.0759 37.81 33.8117 34.2878 37.9327C32.5475 39.969 31.0418 42.4029 30.7965 45.0209C30.5261 47.9059 31.824 50.4764 34.5574 52.4158L36.004 50.3769L34.5574 52.4158C36.2546 53.62 38.8091 54.3151 41.3451 54.7347C43.9863 55.1716 47.0082 55.3696 49.9378 55.3542C52.864 55.3389 55.7819 55.1103 58.211 54.6597C59.4233 54.4349 60.5715 54.1444 61.5618 53.7705C62.4568 53.4326 63.4426 52.9468 64.1922 52.2021C66.2716 50.3813 66.7646 47.8574 66.3823 45.4675C66.0076 43.1255 64.7919 40.7206 63.212 38.5294C60.0466 34.1393 54.8724 29.8568 49.4662 27.754Z" fill="black" stroke="#F2F2F2" stroke-width="5"/>
<path d="M37.3119 34.0696L36.8724 33.8965L36.4596 34.126C33.3965 35.829 29.163 38.7152 26.5226 41.8432C25.2101 43.398 24.1884 45.1318 24.0248 46.8995C23.8516 48.7711 24.655 50.4851 26.5595 51.8532C27.6979 52.6711 29.5092 53.1946 31.4662 53.5223C33.4652 53.8572 35.7701 54.0113 38.0164 53.9994C40.2612 53.9874 42.4813 53.8095 44.309 53.4663C45.2219 53.2949 46.0601 53.078 46.764 52.8089C47.4267 52.5555 48.0592 52.2232 48.5043 51.7659C49.8351 50.601 50.1821 48.9737 49.9202 47.3164C49.6607 45.674 48.8018 43.9168 47.616 42.2516C45.2428 38.9189 41.3464 35.6584 37.3119 34.0696Z" fill="black" stroke="#F2F2F2" stroke-width="2"/>
<circle cx="25.7788" cy="27.4819" r="8.48193" fill="black" stroke="#F2F2F2" stroke-width="2"/>
<circle cx="49.0386" cy="27.4819" r="8.48193" fill="black" stroke="#F2F2F2" stroke-width="2"/>
<circle cx="37.002" cy="33" r="7" fill="black" stroke="#F2F2F2" stroke-width="2"/>
</svg>
