<svg width="72" height="72" viewBox="0 0 72 72" fill="none" xmlns="http://www.w3.org/2000/svg">
<g clip-path="url(#clip0_3203_18301)">
<path d="M24.0996 35.55L26.5496 30.49C26.8021 29.9742 27.1973 29.5418 27.6883 29.244C28.1793 28.9462 28.7455 28.7955 29.3196 28.81C29.8925 28.8242 30.4494 29.0022 30.9243 29.323C31.3993 29.6437 31.7724 30.0938 31.9996 30.62L36.6496 41.41C36.7254 41.5892 36.852 41.7423 37.0136 41.8507C37.1752 41.9591 37.365 42.0179 37.5596 42.02C37.7536 42.0215 37.9439 41.9666 38.1073 41.8618C38.2706 41.757 38.4 41.607 38.4796 41.43L41.9196 33.71C42.0984 33.3101 42.3626 32.9542 42.6936 32.6674C43.0247 32.3805 43.4145 32.1696 43.8358 32.0495C44.2571 31.9294 44.6995 31.9031 45.1321 31.9722C45.5646 32.0414 45.9768 32.2045 46.3396 32.45L50.7796 35.45C50.9588 35.579 51.1757 35.645 51.3964 35.6377C51.6171 35.6305 51.8292 35.5504 51.9996 35.41L62.9996 26.57C62.2796 18 55.6996 12.1 48.7396 12H48.5296C44.0596 12 39.3896 14.33 35.9996 20C32.6196 14.29 27.9396 12 23.4696 12C13.9996 12.13 5.25956 22.77 10.6596 36.12H23.1996C23.388 36.1195 23.5725 36.0657 23.7318 35.9648C23.891 35.864 24.0185 35.7202 24.0996 35.55Z" fill="black"/>
<path d="M53.2303 36.9991C52.7298 37.3998 52.114 37.6296 51.4733 37.6548C50.8327 37.68 50.2008 37.4993 49.6703 37.1391L45.2303 34.1391C45.1105 34.0569 44.9741 34.0017 44.8308 33.9776C44.6874 33.9534 44.5405 33.9607 44.4003 33.9991C44.26 34.0386 44.13 34.1083 44.0195 34.2033C43.9089 34.2983 43.8205 34.4164 43.7603 34.5491L40.3203 42.2691C40.0772 42.7896 39.6897 43.2292 39.204 43.5359C38.7183 43.8426 38.1547 44.0034 37.5803 43.9991C36.996 43.9956 36.4254 43.8215 35.9386 43.4981C35.4519 43.1748 35.0701 42.7164 34.8403 42.1791L30.1703 31.4091C30.0951 31.2315 29.9701 31.0794 29.8105 30.9711C29.6508 30.8629 29.4632 30.8032 29.2703 30.7991C29.0784 30.7959 28.8897 30.8479 28.7265 30.9489C28.5634 31.05 28.4328 31.1959 28.3503 31.3691L25.9003 36.4291C25.6543 36.9359 25.2706 37.3632 24.7931 37.6621C24.3156 37.961 23.7636 38.1194 23.2003 38.1191H11.5703C15.1103 45.1691 22.5703 52.8391 35.9703 60.0491C55.3103 49.6191 62.4103 38.2091 63.0003 29.1191L53.2303 36.9991Z" fill="black"/>
</g>
<defs>
<clipPath id="clip0_3203_18301">
<rect width="53.96" height="48.05" fill="white" transform="translate(9 12)"/>
</clipPath>
</defs>
</svg>
