
<svg width="24" height="24" viewBox="0 0 24 24" fill="none" xmlns="http://www.w3.org/2000/svg">
<path fill-rule="evenodd" clip-rule="evenodd" d="M11.6667 19.4283C11.3194 19.8969 11.3188 19.8963 11.3188 19.8963L11.317 19.8952L11.3121 19.8917L11.297 19.8815C11.2098 19.8222 11.1236 19.7618 11.0382 19.7003C10.8648 19.5758 10.62 19.3929 10.3273 19.1586C9.55957 18.5437 8.84142 17.8757 8.17879 17.1604C6.62909 15.4804 5 13.0633 5 10.2856C5 8.61857 5.70238 7.0198 6.95262 5.84101C8.20286 4.66223 9.89856 4 11.6667 4C13.4348 4 15.1305 4.66223 16.3807 5.84101C17.631 7.0198 18.3333 8.61857 18.3333 10.2856C18.3333 13.0627 16.7042 15.4798 15.1545 17.1604C14.4919 17.8757 13.7738 18.5437 13.0061 19.1586C12.7095 19.3964 12.4046 19.6249 12.0921 19.8437L12.0364 19.8815L12.0212 19.8917L12.0164 19.8952L12.0152 19.8957C11.897 19.7413 11.7808 19.5855 11.6667 19.4283ZM11.6667 19.4283L12.0139 19.8969C11.9121 19.964 11.7909 20 11.6667 20C11.5424 20 11.4206 19.9634 11.3188 19.8963L11.6667 19.4283ZM9 10.6667C9 9.95942 9.28095 9.28115 9.78105 8.78105C10.2811 8.28095 10.9594 8 11.6667 8C12.3739 8 13.0522 8.28095 13.5523 8.78105C14.0524 9.28115 14.3333 9.95942 14.3333 10.6667C14.3333 11.3739 14.0524 12.0522 13.5523 12.5523C13.0522 13.0524 12.3739 13.3333 11.6667 13.3333C10.9594 13.3333 10.2811 13.0524 9.78105 12.5523C9.28095 12.0522 9 11.3739 9 10.6667Z" fill="#777777"/>
</svg>
