<svg width="73" height="72" viewBox="0 0 73 72" fill="none" xmlns="http://www.w3.org/2000/svg">
<path fill-rule="evenodd" clip-rule="evenodd" d="M36.5 55.4636C35.5884 56.7229 35.5868 56.7214 35.5868 56.7214L35.582 56.7183L35.5693 56.7091L35.5295 56.6814C35.3008 56.5222 35.0744 56.3599 34.8502 56.1946C34.3952 55.8598 33.7525 55.3684 32.9841 54.7388C30.9689 53.0861 29.0837 51.291 27.3443 49.3685C23.2764 44.8535 19 38.3576 19 30.8926C19 26.4124 20.8437 22.1157 24.1256 18.9477C27.4075 15.7797 31.8587 14 36.5 14C41.1413 14 45.5925 15.7797 48.8744 18.9477C52.1563 22.1157 54 26.4124 54 30.8926C54 38.356 49.7236 44.852 45.6557 49.3685C43.9163 51.291 42.0311 53.0861 40.0159 54.7388C39.2373 55.3777 38.4372 55.9918 37.6168 56.5801L37.4705 56.6814L37.4307 56.7091L37.418 56.7183L37.4148 56.7198C37.1045 56.3047 36.7996 55.886 36.5 55.4636ZM36.5 55.4636L37.4116 56.7229C37.1443 56.9033 36.8261 57 36.5 57C36.1739 57 35.8541 56.9017 35.5868 56.7214L36.5 55.4636Z" fill="white"/>
<path d="M44.5792 23.316L44.5787 23.3155C42.6875 21.4488 40.2082 20.2946 37.5623 20.0492C34.9163 19.8037 32.267 20.4822 30.0647 21.9692C27.8624 23.4562 26.243 25.6599 25.4819 28.2059C24.7207 30.7518 24.8648 33.4828 25.8895 35.9346C26.9142 38.3864 28.7563 40.4076 31.1028 41.6548C33.4493 42.9019 36.1552 43.298 38.7607 42.7756C41.3661 42.2532 43.7103 40.8447 45.3946 38.7894C47.079 36.7341 47.9996 34.159 48 31.5017V31.501C47.9992 29.9783 47.6965 28.4709 47.1093 27.0659C46.5221 25.661 45.6622 24.3864 44.5792 23.316Z" stroke="#C22033" stroke-width="2"/>
<path d="M38.5233 29.1329L39.5333 32.5483H39.5466L40.5433 29.0664H41.1214L42.158 32.5483H42.1713L43.1547 29.1329H44.178L42.4836 34.2427H41.7659L40.7692 30.9668H40.7559L39.8124 34.2427H39.0947L37.5 29.1329H38.5233Z" fill="#C22033"/>
<path d="M36.9665 29.9833H35.3518V31.0864H36.9067V31.9369H35.3518V33.2924H36.9665V34.143H34.375V29.1328H36.9665V29.9833Z" fill="#C22033"/>
<path d="M29 34.143V29H29.7043L32.3423 32.5018H32.3556V29.1329H33.3324V34.2427H32.628L29.9901 30.7409H29.9768V34.143H29Z" fill="#C22033"/>
</svg>
