
<svg width="25" height="24" viewBox="0 0 25 24" fill="none" xmlns="http://www.w3.org/2000/svg">
<path fill-rule="evenodd" clip-rule="evenodd" d="M12.5694 19.4283C12.2271 19.8969 12.2265 19.8963 12.2265 19.8963L12.2247 19.8952L12.2199 19.8917L12.205 19.8815C12.1191 19.8222 12.034 19.7618 11.9499 19.7003C11.779 19.5758 11.5377 19.3929 11.2491 19.1586C10.4924 18.5437 9.78453 17.8757 9.13137 17.1604C7.60384 15.4804 5.99805 13.0633 5.99805 10.2856C5.99805 8.61857 6.69038 7.0198 7.92274 5.84101C9.15511 4.66223 10.8265 4 12.5694 4C14.3122 4 15.9836 4.66223 17.216 5.84101C18.4484 7.0198 19.1407 8.61857 19.1407 10.2856C19.1407 13.0627 17.5349 15.4798 16.0074 17.1604C15.3542 17.8757 14.6463 18.5437 13.8896 19.1586C13.5972 19.3964 13.2968 19.6249 12.9887 19.8437L12.9338 19.8815L12.9188 19.8917L12.9141 19.8952L12.9129 19.8957C12.7964 19.7413 12.6819 19.5855 12.5694 19.4283ZM12.5694 19.4283L12.9117 19.8969C12.8113 19.964 12.6918 20 12.5694 20C12.4469 20 12.3268 19.9634 12.2265 19.8963L12.5694 19.4283ZM9.99805 10.5714C9.99805 9.88941 10.269 9.23537 10.7512 8.75314C11.2334 8.27091 11.8875 8 12.5694 8C13.2514 8 13.9055 8.27091 14.3877 8.75314C14.8699 9.23537 15.1408 9.88941 15.1408 10.5714C15.1408 11.2534 14.8699 11.9074 14.3877 12.3896C13.9055 12.8719 13.2514 13.1428 12.5694 13.1428C11.8875 13.1428 11.2334 12.8719 10.7512 12.3896C10.269 11.9074 9.99805 11.2534 9.99805 10.5714Z" fill="#212121"/>
</svg>
