   <svg
                      width="72"
                      height="72"
                      viewBox="0 0 72 72"
                      fill="none"
                      xmlns="http://www.w3.org/2000/svg"
                    >
                      <rect
                        x="16"
                        y="12"
                        width="40"
                        height="48"
                        rx="3"
                        fill="black"
                      />
                      <path
                        d="M35.9952 52C37.046 52.0012 38.0867 51.7993 39.0578 51.4057C40.0289 51.0121 40.9114 50.4346 41.6549 49.7062C42.3983 48.9777 42.9881 48.1127 43.3905 47.1605C43.7929 46.2084 44 45.1877 44 44.157C43.999 43.8015 43.9734 43.4464 43.9233 43.0943C43.279 43.5437 42.5089 43.7867 41.7184 43.7902C41.0423 43.7805 40.3808 43.5956 39.8011 43.2542C39.524 43.088 39.2055 43 38.8808 43C38.556 43 38.2375 43.088 37.9605 43.2542C37.3706 43.6044 36.6943 43.7895 36.0048 43.7895C35.3153 43.7895 34.639 43.6044 34.0491 43.2542C33.7721 43.088 33.4536 43 33.1288 43C32.804 43 32.4856 43.088 32.2085 43.2542C31.6306 43.5998 30.968 43.7851 30.2912 43.7902C29.4953 43.7832 28.7214 43.5334 28.0767 43.0755C28.027 43.434 28.0014 43.7952 28 44.157C27.9987 45.1873 28.2047 46.2077 28.606 47.1598C29.0074 48.112 29.5963 48.9771 30.3389 49.7056C31.0816 50.4341 31.9635 51.0118 32.9341 51.4055C33.9047 51.7992 34.9449 52.0012 35.9952 52Z"
                        fill="white"
                      />
                      <path d="M22 18H28" stroke="white" stroke-width="2" />
                      <circle
                        cx="36"
                        cy="44"
                        r="11"
                        stroke="white"
                        stroke-width="2"
                      />
                    </svg>