<svg width="73" height="72" viewBox="0 0 73 72" fill="none" xmlns="http://www.w3.org/2000/svg">
<path d="M54.1992 18H14.1992L34.5766 43L54.1992 18Z" fill="white"/>
<path d="M42 29H27L34.6415 39L42 29Z" fill="#C22033"/>
<path d="M34.5946 41V62.6H31H38" stroke="white" stroke-width="2"/>
<path d="M63.5986 14.8606C63.3445 14.3795 62.981 13.9651 62.5375 13.6509L62.5397 13.6475C62.5166 13.6316 62.4995 13.6078 62.4921 13.58C62.4847 13.5522 62.4876 13.5228 62.5 13.4971C62.7462 12.9889 62.8641 12.428 62.8436 11.8636C62.823 11.2989 62.6645 10.7477 62.3817 10.2585C62.0988 9.76922 61.7004 9.35679 61.2212 9.05735C60.742 8.75789 60.1967 8.5806 59.633 8.54105L59.633 8.54103L59.6265 8.54061C59.5983 8.53882 59.5715 8.5268 59.5512 8.50644C59.5308 8.48603 59.5184 8.45877 59.5166 8.42978L59.5166 8.42978L59.5162 8.42328C59.4767 7.85958 59.2997 7.31409 59.0007 6.83461C58.7016 6.35513 58.2896 5.95627 57.8006 5.67307C57.3117 5.38986 56.7608 5.23096 56.1961 5.21036C55.6316 5.18976 55.0706 5.30803 54.5624 5.55473C54.5373 5.56678 54.5088 5.56944 54.4819 5.56227C54.4549 5.55508 54.4312 5.53837 54.4151 5.51482L54.4143 5.51353C54.0956 5.0477 53.669 4.6659 53.1709 4.40078L53.1709 4.40072L53.1605 4.3953C52.6687 4.14095 52.124 4.00603 51.5705 4.00137C51.0015 3.98533 50.4372 4.11025 49.928 4.36512C49.4146 4.62207 48.9734 5.00294 48.6442 5.47317L48.6394 5.47992L48.6348 5.48675C48.6203 5.5083 48.5986 5.52366 48.5739 5.53029C48.5493 5.53692 48.523 5.53445 48.5 5.52329L48.4991 5.52283C47.9904 5.27688 47.4294 5.1591 46.8647 5.17982C46.3001 5.20054 45.7491 5.3591 45.2598 5.64167C44.7706 5.92421 44.3578 6.32215 44.0574 6.80078C43.7571 7.27936 43.5782 7.82413 43.5363 8.38766L43.5362 8.38766L43.5355 8.39842C43.5337 8.42756 43.5213 8.45477 43.501 8.47508C43.4807 8.49538 43.4539 8.50745 43.4256 8.50925L43.4256 8.50924L43.4213 8.50954C42.8567 8.5479 42.3103 8.72491 41.8304 9.02483C41.3504 9.32478 40.9518 9.73839 40.6697 10.229C40.3876 10.7195 40.2305 11.2721 40.2124 11.8378C40.1944 12.4002 40.3144 12.9583 40.5615 13.4635C40.5728 13.4887 40.5751 13.5172 40.5677 13.5441C40.5602 13.5717 40.5429 13.5956 40.5195 13.6113L40.5194 13.6113L40.5128 13.6158C40.0465 13.934 39.665 14.3614 39.4014 14.8606C39.1377 15.3599 39 15.916 39 16.4805C39 17.045 39.1377 17.6011 39.4014 18.1004C39.665 18.5996 40.0465 19.027 40.5128 19.3452L40.5127 19.3452L40.5228 19.3519C40.5444 19.3663 40.5602 19.388 40.5672 19.4133C40.5739 19.4377 40.5719 19.4636 40.5618 19.4865C40.3131 19.9926 40.1923 20.5522 40.2101 21.1162C40.2281 21.6839 40.386 22.2384 40.6698 22.7303L40.6718 22.7337C40.9554 23.2209 41.3532 23.6318 41.8309 23.931C42.3087 24.2302 42.852 24.4087 43.4141 24.451L43.4141 24.451L43.4256 24.4518C43.4539 24.4536 43.4807 24.4656 43.501 24.4859C43.5213 24.5062 43.5337 24.5334 43.5355 24.5626L43.5355 24.5626L43.536 24.5697C43.5759 25.1339 43.7535 25.6797 44.0532 26.1592C44.3519 26.6371 44.7629 27.0347 45.2503 27.3172C45.7399 27.6067 46.2942 27.7693 46.8628 27.7899C47.4282 27.8104 47.9896 27.6899 48.4966 27.4394C48.5208 27.4291 48.5477 27.4271 48.573 27.4339C48.5991 27.4409 48.6221 27.4568 48.638 27.479C48.9535 27.9461 49.3784 28.3289 49.8758 28.5941C50.3757 28.8606 50.9335 29 51.5 29C52.0665 29 52.6242 28.8606 53.1241 28.5941C53.6206 28.3294 54.045 27.9474 54.3603 27.4814C54.3777 27.4577 54.4025 27.4408 54.4306 27.4333C54.4581 27.4259 54.4872 27.4281 54.5133 27.4393C55.0187 27.6899 55.5787 27.8105 56.1426 27.7899C56.7091 27.7693 57.2613 27.6069 57.7488 27.3178C58.2378 27.0366 58.6501 26.6392 58.9492 26.1607C59.2499 25.6795 59.4269 25.1313 59.4642 24.5651L59.4644 24.5626C59.4662 24.5334 59.4786 24.5062 59.4989 24.4859C59.5192 24.4656 59.546 24.4536 59.5743 24.4518L59.5743 24.4518L59.5851 24.451C60.1485 24.4091 60.6932 24.2299 61.1715 23.9291C61.6498 23.6283 62.0473 23.2151 62.3294 22.7256C62.6116 22.236 62.7699 21.6849 62.7905 21.1203C62.8112 20.5556 62.6937 19.9944 62.4481 19.4855L62.4477 19.4845C62.4363 19.461 62.4337 19.4341 62.4405 19.4087C62.4473 19.3833 62.463 19.3615 62.4842 19.3472L62.4871 19.3452C62.9535 19.027 63.335 18.5996 63.5986 18.1004C63.8622 17.6012 64 17.0452 64 16.4805C64 15.9159 63.8622 15.3598 63.5986 14.8606Z" fill="white" stroke="#C22033" stroke-width="2"/>
<path d="M56.7687 11.1623C55.5353 9.94488 53.9184 9.19215 52.1928 9.03207C50.4672 8.872 48.7393 9.31446 47.3031 10.2842C45.8668 11.254 44.8107 12.6913 44.3143 14.3517C43.8179 16.0121 43.9118 17.7932 44.5801 19.3921C45.2484 20.9911 46.4498 22.3093 47.9801 23.1227C49.5104 23.936 51.2751 24.1943 52.9743 23.8537C54.6736 23.513 56.2024 22.5944 57.3009 21.254C58.3994 19.9136 58.9997 18.2341 59 16.5011C58.9995 15.5079 58.802 14.5246 58.419 13.6082C58.036 12.6918 57.4751 11.8605 56.7687 11.1623Z" fill="#C22033"/>
<path d="M53.4798 14.584L49.3769 19.0345" stroke="white" stroke-width="2" stroke-linecap="round"/>
<circle cx="49.1868" cy="14.1878" r="1.14138" transform="rotate(-2.32738 49.1868 14.1878)" fill="white"/>
<circle cx="54.5227" cy="19.1097" r="1.14138" transform="rotate(-2.32738 54.5227 19.1097)" fill="white"/>
</svg>
