
<svg width="88" height="48" viewBox="0 0 88 48" fill="none" xmlns="http://www.w3.org/2000/svg">
<g clip-path="url(#clip0_3220_12001)">
<path d="M32.035 43.2263V40.1123H32.9986V47.8363H32.035V44.1288H28.3581V47.8363H27.3945V40.1123H28.3581V43.2263H32.035Z" fill="#C22033"/>
<path d="M42.4555 43.9738C42.4325 45.0317 41.9962 46.0385 41.2399 46.7786C40.4836 47.5186 39.4675 47.9331 38.4094 47.9331C37.3513 47.9331 36.3352 47.5186 35.5789 46.7786C34.8226 46.0385 34.3863 45.0317 34.3633 43.9738C34.3863 42.916 34.8226 41.9092 35.5789 41.1691C36.3352 40.4291 37.3513 40.0146 38.4094 40.0146C39.4675 40.0146 40.4836 40.4291 41.2399 41.1691C41.9962 41.9092 42.4325 42.916 42.4555 43.9738ZM41.5015 43.9738C41.5015 42.2737 40.2307 40.8503 38.418 40.8503C36.6053 40.8503 35.3326 42.2737 35.3326 43.9738C35.3223 44.3854 35.3946 44.7948 35.545 45.1779C35.6954 45.5611 35.9209 45.9103 36.2084 46.205C36.4958 46.4996 36.8393 46.7338 37.2186 46.8937C37.5979 47.0536 38.0054 47.136 38.417 47.136C38.8287 47.136 39.2361 47.0536 39.6154 46.8937C39.9948 46.7338 40.3383 46.4996 40.6257 46.205C40.9131 45.9103 41.1387 45.5611 41.2891 45.1779C41.4395 44.7948 41.5117 44.3854 41.5015 43.9738Z" fill="#C22033"/>
<path d="M45.9848 47.8363H45.0212V40.9919H43.1875V40.1123H47.8184V40.9919H45.9848V47.8363Z" fill="#C22033"/>
<path d="M49.0898 40.1123H53.238V40.9919H50.0515V43.1538H53.1465V44.0353H50.0515V46.9566H53.238V47.8363H49.0898V40.1123Z" fill="#C22033"/>
<path d="M55.905 46.9547H58.25V47.8363H54.9414V40.1123H55.905V46.9547Z" fill="#C22033"/>
<path d="M62.831 41.5772C62.7151 41.3504 62.5368 41.1614 62.317 41.0326C62.0973 40.9038 61.8453 40.8405 61.5907 40.8502C60.9763 40.8502 60.299 41.27 60.299 41.9454C60.299 42.5503 60.8943 42.867 61.3751 43.0521L61.9285 43.2677C63.0256 43.6971 63.8366 44.3019 63.8366 45.5937C63.8366 46.9962 62.7509 47.9998 61.3675 47.9998C60.7731 47.9982 60.2003 47.7767 59.7595 47.3778C59.3188 46.979 59.0413 46.4311 58.9805 45.8399L59.9536 45.6338C59.9497 45.8298 59.9853 46.0246 60.0583 46.2066C60.1313 46.3885 60.2401 46.554 60.3783 46.693C60.5165 46.832 60.6813 46.9419 60.8628 47.0159C61.0444 47.09 61.2389 47.1267 61.4349 47.1241C61.631 47.1214 61.8245 47.0793 62.0039 47.0003C62.1833 46.9213 62.345 46.807 62.4794 46.6642C62.6137 46.5214 62.718 46.353 62.7859 46.1691C62.8539 45.9852 62.8841 45.7895 62.8749 45.5937C62.8749 44.7637 62.209 44.405 61.5392 44.1283L61.005 43.9012C60.1234 43.5196 59.3258 43.0216 59.3258 41.9454C59.3258 40.6956 60.4325 39.9477 61.6003 39.9477C62.0069 39.9399 62.4078 40.0449 62.7584 40.251C63.109 40.4571 63.3957 40.7563 63.5866 41.1154L62.831 41.5772Z" fill="#C22033"/>
<path d="M40.0675 7.6875H36.5547V31.7619H40.0675V7.6875Z" fill="black"/>
<path d="M61.0525 31.762L49.146 13.1542H49.0792V31.762H45.5664V7.68945H49.4055L61.1174 26.0033H61.1822V7.68945H64.695V31.762H61.0525Z" fill="black"/>
<path d="M27.3907 7.68945V23.2671L21.4699 7.68945H21.4718H21.4699H17.7624H17.6957L17.73 7.77341L10.7674 25.7438L3.77421 7.68945H0L9.69502 31.7639H11.8092L19.5866 12.3834L27.3907 31.7639H30.9054V7.68945H27.3907Z" fill="black"/>
<path d="M73.5753 18.2145V7.68945H70.0625V31.762H73.5753V20.094V19.6265V18.2145Z" fill="black"/>
<path d="M86.8084 7.68945H82.7823L73.6406 19.6284L82.7823 31.762H87.108L77.7068 19.6284L86.8084 7.68945Z" fill="black"/>
<path d="M38.2567 0L36.5547 4.39434H40.0675L41.6684 0H38.2567Z" fill="#C22033"/>
</g>
<defs>
<clipPath id="clip0_3220_12001">
<rect width="87.1064" height="48" fill="white"/>
</clipPath>
</defs>
</svg>
