<svg
width="27"
height="37"
viewBox="0 0 27 37"
fill="none"
xmlns="http://www.w3.org/2000/svg"
>
<mask
    id="path-1-outside-1_3795_553"
    maskUnits="userSpaceOnUse"
    x="0"
    y="0"
    width="27"
    height="37"
    fill="black"
>
    <rect fill="white" width="27" height="37" />
    <path
    fill-rule="evenodd"
    clip-rule="evenodd"
    d="M26 1H1V26V34L9 26H26V1Z"
    />
</mask>
<path
    fill-rule="evenodd"
    clip-rule="evenodd"
    d="M26 1H1V26V34L9 26H26V1Z"
    fill="black"
    class="subtrack"
/>
<path
    d="M1 1V0H0V1H1ZM26 1H27V0H26V1ZM1 34H0V36.4142L1.70711 34.7071L1 34ZM9 26V25H8.58579L8.29289 25.2929L9 26ZM26 26V27H27V26H26ZM1 2H26V0H1V2ZM2 26V1H0V26H2ZM0 26V34H2V26H0ZM1.70711 34.7071L9.70711 26.7071L8.29289 25.2929L0.292893 33.2929L1.70711 34.7071ZM26 25H9V27H26V25ZM25 1V26H27V1H25Z"
    fill="white"
    mask="url(#path-1-outside-1_3795_553)"
/>
<path
    d="M11.4287 9L8 17.5846H15.0766L18.3016 9H11.4287Z"
    fill="white"
/>
</svg>