<svg width="33" height="32" viewBox="0 0 33 32" fill="none" xmlns="http://www.w3.org/2000/svg">
<path d="M16.665 19.1266C18.3924 19.1266 19.7928 17.7302 19.7928 16.0076C19.7928 14.2851 18.3924 12.8887 16.665 12.8887C14.9375 12.8887 13.5371 14.2851 13.5371 16.0076C13.5371 17.7302 14.9375 19.1266 16.665 19.1266Z" fill="black"/>
<path d="M20.4925 26.3219C20.6866 26.2339 20.8747 26.1331 21.0555 26.0203C21.3249 25.8511 21.5469 25.6166 21.7008 25.3386C21.8547 25.0607 21.9354 24.7484 21.9355 24.4309V23.7399C21.9355 22.2047 21.2619 19.9756 18.9905 19.5448C18.3845 20.0539 17.6423 20.277 16.666 20.277C15.6897 20.277 15.0361 20.0573 14.3328 19.5352C12.1451 19.9332 11.3965 22.0737 11.3965 23.7411V24.4309C11.3955 24.7436 11.4733 25.0516 11.6228 25.3265C11.7723 25.6014 11.9886 25.8345 12.252 26.0043C12.4397 26.1234 12.6357 26.2292 12.8383 26.3209C16.0208 27.096 20.4925 26.3219 20.4925 26.3219Z" fill="black"/>
<path d="M22.9698 17.6139C24.2529 17.6139 25.2931 16.5766 25.2931 15.2972C25.2931 14.0177 24.2529 12.9805 22.9698 12.9805C21.6867 12.9805 20.6465 14.0177 20.6465 15.2972C20.6465 16.5766 21.6867 17.6139 22.9698 17.6139Z" fill="black"/>
<path d="M24.6985 17.922C24.2481 18.2998 23.6967 18.4649 22.9716 18.4649C22.2465 18.4649 21.761 18.3017 21.2393 17.9141C20.578 18.0342 20.0937 18.3691 19.752 18.8071C20.7545 19.1425 21.5603 19.8169 22.1045 20.7833C22.6608 21.7704 22.8065 22.8068 22.8353 23.465C22.8808 23.465 22.9263 23.465 22.9726 23.465C24.672 23.465 25.6701 23.0864 26.2341 22.7323C26.4339 22.6065 26.5986 22.4322 26.7127 22.2259C26.8269 22.0195 26.8868 21.7877 26.8869 21.552V21.0375C26.8859 19.8986 26.3855 18.2428 24.6985 17.922Z" fill="black"/>
<path d="M10.3565 17.6139C11.6396 17.6139 12.6798 16.5766 12.6798 15.2972C12.6798 14.0177 11.6396 12.9805 10.3565 12.9805C9.07338 12.9805 8.0332 14.0177 8.0332 15.2972C8.0332 16.5766 9.07338 17.6139 10.3565 17.6139Z" fill="black"/>
<path d="M13.5773 18.8091C13.2356 18.3711 12.7513 18.0362 12.09 17.916C11.5673 18.3037 11.0808 18.4668 10.3577 18.4668C9.63456 18.4668 9.08145 18.301 8.6308 17.9239C6.94376 18.2447 6.44336 19.9006 6.44336 21.0411V21.5557C6.44347 21.7913 6.50339 22.0232 6.61754 22.2295C6.73169 22.4359 6.89635 22.6101 7.0962 22.736C7.65921 23.0901 8.65827 23.4686 10.3577 23.4686C10.404 23.4686 10.4497 23.4686 10.495 23.4686C10.5237 22.8105 10.6695 21.775 11.2258 20.787C11.769 19.8189 12.5751 19.1444 13.5773 18.8091Z" fill="black"/>
<path d="M16.6638 5.77734L17.3623 7.92707H19.6227L17.794 9.25567L18.4925 11.4054L16.6638 10.0768L14.8352 11.4054L15.5337 9.25567L13.705 7.92707H15.9654L16.6638 5.77734Z" fill="black"/>
<path d="M11.998 8L12.4471 9.38197H13.9002L12.7246 10.2361L13.1736 11.618L11.998 10.7639L10.8225 11.618L11.2715 10.2361L10.0959 9.38197H11.549L11.998 8Z" fill="black"/>
<path d="M21.3301 8L21.7791 9.38197H23.2322L22.0566 10.2361L22.5056 11.618L21.3301 10.7639L20.1545 11.618L20.6035 10.2361L19.428 9.38197H20.8811L21.3301 8Z" fill="black"/>
</svg>
