<svg width="32" height="32" viewBox="0 0 32 32" fill="none" xmlns="http://www.w3.org/2000/svg">
<path d="M8.1311 24.4449H15.3819V16.4453H7.82639C7.33547 16.4453 6.9375 16.8433 6.9375 17.3342V23.571C6.93743 23.6881 6.96854 23.8039 7.02895 23.9118C7.08936 24.0196 7.17782 24.1171 7.28915 24.1986C7.40048 24.2801 7.53238 24.344 7.67701 24.3863C7.82165 24.4286 7.97605 24.4485 8.1311 24.4449Z" fill="black"/>
<path d="M23.5212 24.4449H16.2704V16.4453H23.826C24.3169 16.4453 24.7148 16.8433 24.7148 17.3342V23.571C24.7149 23.6881 24.6838 23.8039 24.6234 23.9118C24.563 24.0196 24.4745 24.1171 24.3632 24.1986C24.2519 24.2801 24.12 24.344 23.9753 24.3863C23.8307 24.4286 23.6763 24.4485 23.5212 24.4449Z" fill="black"/>
<path d="M7.90822 15.5556H23.8643C24.09 15.5556 24.3064 15.4663 24.466 15.3075C24.6256 15.1487 24.7153 14.9333 24.7153 14.7087V12.4328C24.7153 12.2069 24.626 11.9901 24.4668 11.8292C24.3076 11.6683 24.0912 11.5761 23.8643 11.5727H22.5346V11.0434C22.5346 10.4782 22.3764 9.92417 22.0778 9.44339C21.7793 8.96261 21.352 8.57406 20.844 8.3213C20.336 8.06853 19.7673 7.96154 19.2017 8.0123C18.636 8.06306 18.0958 8.26957 17.6414 8.60869C16.9289 9.18313 16.3177 9.87182 15.833 10.6464C15.3403 9.8778 14.7302 9.1903 14.0247 8.60869C13.5719 8.27118 13.0338 8.06527 12.4704 8.01387C11.9071 7.96248 11.3404 8.06762 10.8335 8.31758C10.3276 8.57499 9.90169 8.96481 9.60179 9.44511C9.3019 9.9254 9.13932 10.478 9.13149 11.0434V11.5727H7.80182C7.5726 11.5727 7.35279 11.6633 7.19071 11.8246C7.02862 11.9859 6.9375 12.2047 6.9375 12.4328V14.7087C6.94099 14.9345 7.03363 15.1499 7.19533 15.3083C7.35704 15.4668 7.57488 15.5556 7.80182 15.5556H7.90822ZM18.7318 9.9716C18.9301 9.81957 19.1676 9.72635 19.4168 9.7027C19.666 9.67905 19.917 9.72591 20.1406 9.83789C20.3643 9.94988 20.5517 10.1224 20.6811 10.3357C20.8106 10.549 20.8769 10.7943 20.8725 11.0434V11.5727H17.3355C17.6913 10.9726 18.14 10.4323 18.6652 9.9716H18.7318ZM10.8867 11.0434C10.8822 10.7943 10.9486 10.549 11.078 10.3357C11.2075 10.1224 11.3949 9.94988 11.6185 9.83789C11.8422 9.72591 12.0931 9.67905 12.3424 9.7027C12.5916 9.72635 12.829 9.81957 13.0274 9.9716C13.581 10.4261 14.057 10.9668 14.4369 11.5727H10.8867V11.0434Z" fill="black"/>
</svg>
