<svg
                      width="73"
                      height="72"
                      viewBox="0 0 73 72"
                      fill="none"
                      xmlns="http://www.w3.org/2000/svg"
                    >
                      <path
                        d="M53.8163 32.4795C53.4315 32.217 53.1539 31.8251 53.0339 31.3752C52.9139 30.9253 52.9595 30.4473 53.1624 30.0282C53.4671 29.4004 53.6131 28.7075 53.5877 28.0102C53.5622 27.3129 53.3662 26.6325 53.0166 26.0285C52.667 25.4246 52.1745 24.9156 51.5824 24.5461C50.9904 24.1765 50.3166 23.9578 49.6203 23.909C49.1484 23.8791 48.7037 23.6781 48.3693 23.3439C48.035 23.0096 47.8339 22.565 47.8039 22.0933C47.7551 21.3972 47.5363 20.7237 47.1667 20.1319C46.797 19.54 46.2878 19.0477 45.6836 18.6983C45.0795 18.3488 44.3989 18.1528 43.7014 18.1274C43.0038 18.102 42.3106 18.2479 41.6826 18.5525C41.2633 18.7554 40.7851 18.801 40.335 18.681C39.885 18.561 39.493 18.2834 39.2305 17.8988C38.8348 17.321 38.305 16.8476 37.6865 16.5188C37.0686 16.1997 36.3839 16.0317 35.6885 16.0286C34.9797 16.0058 34.2764 16.1598 33.6421 16.4768C33.0078 16.7939 32.4626 17.2639 32.0556 17.8443C31.7963 18.2276 31.4075 18.5045 30.9605 18.6246C30.5135 18.7446 30.0381 18.6997 29.6216 18.498C28.9923 18.1942 28.2984 18.0487 27.6001 18.0743C26.9017 18.0999 26.2202 18.2958 25.6149 18.6448C25.0096 18.9939 24.4988 19.4857 24.1271 20.0772C23.7554 20.6687 23.5339 21.3421 23.4821 22.0388C23.4521 22.5105 23.2511 22.9551 22.9168 23.2894C22.5824 23.6236 22.1376 23.8246 21.6656 23.8546C20.969 23.9018 20.2948 24.1199 19.7026 24.4896C19.1103 24.8592 18.6183 25.369 18.27 25.9739C17.9216 26.5788 17.7277 27.2602 17.7053 27.9578C17.683 28.6554 17.833 29.3478 18.1419 29.9737C18.3431 30.3949 18.3858 30.8743 18.2624 31.3244C18.139 31.7746 17.8576 32.1652 17.4697 32.425C16.8928 32.8182 16.4207 33.3462 16.0944 33.9633C15.7682 34.5804 15.5977 35.2678 15.5977 35.9658C15.5977 36.6637 15.7682 37.3511 16.0944 37.9682C16.4207 38.5853 16.8928 39.1134 17.4697 39.5065C17.8562 39.7631 18.1371 40.1505 18.2605 40.5976C18.384 41.0446 18.3419 41.5212 18.1419 41.9396C17.8306 42.5672 17.6791 43.2619 17.7013 43.962C17.7235 44.6622 17.9185 45.3459 18.269 45.9525C18.6204 46.5554 19.1133 47.0637 19.705 47.4338C20.2967 47.8039 20.9696 48.0247 21.6656 48.077C22.1376 48.1069 22.5824 48.3079 22.9168 48.6421C23.2511 48.9764 23.4521 49.421 23.4821 49.8927C23.5313 50.5893 23.7509 51.2632 24.1214 51.8552C24.492 52.4473 25.0022 52.9393 25.6074 53.2882C26.2109 53.6461 26.8946 53.8469 27.5959 53.8723C28.2972 53.8976 28.9937 53.7468 29.6216 53.4335C30.0388 53.2356 30.5129 53.1927 30.9589 53.3125C31.4049 53.4323 31.7938 53.7069 32.0556 54.0872C32.4462 54.6676 32.9734 55.1432 33.5911 55.472C34.2088 55.8009 34.8979 55.9729 35.5977 55.9729C36.2974 55.9729 36.9864 55.8009 37.6041 55.472C38.2218 55.1432 38.7492 54.6676 39.1397 54.0872C39.4047 53.7055 39.7967 53.4303 40.2458 53.3105C40.6949 53.1908 41.1719 53.2344 41.5918 53.4335C42.2165 53.7468 42.91 53.8978 43.6085 53.8724C44.3069 53.847 44.9877 53.6461 45.588 53.2882C46.1952 52.9418 46.7071 52.4503 47.078 51.8578C47.4488 51.2653 47.667 50.5901 47.7131 49.8927C47.7431 49.421 47.9441 48.9764 48.2784 48.6421C48.6128 48.3079 49.0576 48.1069 49.5296 48.077C50.2264 48.0251 50.9001 47.8038 51.4919 47.4322C52.0836 47.0606 52.5755 46.5501 52.9247 45.945C53.2739 45.3399 53.4698 44.6586 53.4954 43.9605C53.521 43.2624 53.3755 42.5687 53.0716 41.9396C52.8698 41.5232 52.8249 41.0481 52.945 40.6013C53.0651 40.1544 53.3421 39.7658 53.7255 39.5065C54.3024 39.1134 54.7745 38.5853 55.1008 37.9682C55.427 37.3511 55.5977 36.6637 55.5977 35.9658C55.5977 35.2678 55.427 34.5804 55.1008 33.9633C54.7745 33.3462 54.3024 32.8182 53.7255 32.425L53.8163 32.4795ZM45.6606 45.9707C43.358 48.259 40.3333 49.679 37.1013 49.9888C33.8693 50.2986 30.6298 49.4791 27.9342 47.6698C25.2386 45.8606 23.2537 43.1734 22.3171 40.0657C21.3805 36.958 21.5502 33.6218 22.7975 30.6252C24.0447 27.6285 26.2923 25.1566 29.1576 23.6301C32.0229 22.1037 35.329 21.6171 38.5129 22.2532C41.6967 22.8893 44.5617 24.6087 46.62 27.1188C48.6783 29.6289 49.8028 32.7746 49.8021 36.0202C49.8036 37.8701 49.4384 39.7019 48.7276 41.4098C48.0167 43.1177 46.9743 44.6678 45.6606 45.9707Z"
                        fill="black"
                      />
                      <circle
                        cx="35.7346"
                        cy="35.8352"
                        r="11.5549"
                        fill="black"
                      />
                      <path
                        d="M39.0573 37.1831C39.3055 37.1831 39.5091 37.2592 39.6682 37.4115C39.8304 37.5608 39.9115 37.7518 39.9115 37.9847C39.9115 38.2145 39.8304 38.4056 39.6682 38.5578C39.5059 38.7071 39.3023 38.7817 39.0573 38.7817C38.8124 38.7817 38.6088 38.7071 38.4465 38.5578C38.2843 38.4056 38.2031 38.2145 38.2031 37.9847C38.2031 37.7518 38.2827 37.5608 38.4417 37.4115C38.604 37.2592 38.8092 37.1831 39.0573 37.1831ZM39.0573 37.5458C38.9428 37.5458 38.8505 37.5921 38.7805 37.6846C38.7106 37.7742 38.6756 37.8742 38.6756 37.9847C38.6756 38.0951 38.7106 38.1951 38.7805 38.2847C38.8505 38.3742 38.9428 38.419 39.0573 38.419C39.1719 38.419 39.2641 38.3742 39.3341 38.2847C39.4041 38.1951 39.4391 38.0951 39.4391 37.9847C39.4391 37.8742 39.4041 37.7742 39.3341 37.6846C39.2641 37.5921 39.1719 37.5458 39.0573 37.5458ZM40.8182 37.1562L41.1427 37.3085L39.2148 40.7878L38.8855 40.6311L40.8182 37.1562ZM40.9805 39.1399C41.2286 39.1399 41.4322 39.2161 41.5913 39.3683C41.7535 39.5176 41.8347 39.7086 41.8347 39.9415C41.8347 40.1713 41.7535 40.3624 41.5913 40.5146C41.429 40.6639 41.2254 40.7385 40.9805 40.7385C40.7355 40.7385 40.5319 40.6639 40.3696 40.5146C40.2074 40.3624 40.1263 40.1713 40.1263 39.9415C40.1263 39.7086 40.2058 39.5176 40.3649 39.3683C40.5271 39.2161 40.7323 39.1399 40.9805 39.1399ZM40.9805 39.5026C40.8659 39.5026 40.7737 39.5489 40.7037 39.6415C40.6337 39.731 40.5987 39.831 40.5987 39.9415C40.5987 40.0519 40.6337 40.1519 40.7037 40.2415C40.7737 40.3311 40.8659 40.3758 40.9805 40.3758C41.095 40.3758 41.1873 40.3311 41.2573 40.2415C41.3272 40.1519 41.3622 40.0519 41.3622 39.9415C41.3622 39.831 41.3272 39.731 41.2573 39.6415C41.1873 39.5489 41.095 39.5026 40.9805 39.5026Z"
                        fill="#F2F2F2"
                      />
                      <path
                        d="M40.978 32.719C40.3216 31.4949 39.3858 30.8828 38.1706 30.8828C36.9554 30.8828 36.0195 31.4949 35.3631 32.719C34.8398 33.6947 34.5781 34.8478 34.5781 36.1784C34.5781 37.4823 34.8442 38.6266 35.3764 39.6112C36.0329 40.8353 36.9642 41.4473 38.1706 41.4473V39.7442C37.5674 39.7442 37.115 39.2697 36.8134 38.3205C36.6005 37.6553 36.4941 36.9323 36.4941 36.1518C36.4941 35.3623 36.6005 34.6394 36.8134 33.983C37.115 33.0516 37.5674 32.5859 38.1706 32.5859C38.7826 32.5859 39.235 33.0516 39.5277 33.983C39.7406 34.6571 39.8471 35.38 39.8471 36.1518L41.763 36.1784C41.763 34.8478 41.5014 33.6947 40.978 32.719Z"
                        fill="#F2F2F2"
                      />
                      <path
                        d="M30.7821 32.8525H29.4648V31.1494H32.738V41.1817H30.7821V32.8525Z"
                        fill="#F2F2F2"
                      />
                    </svg>