<svg width="73" height="72" viewBox="0 0 73 72" fill="none" xmlns="http://www.w3.org/2000/svg">
<path d="M53.8163 32.4804C53.4315 32.218 53.1539 31.8261 53.0339 31.3762C52.9139 30.9263 52.9595 30.4483 53.1624 30.0291C53.4671 29.4014 53.6131 28.7085 53.5877 28.0112C53.5622 27.3139 53.3662 26.6335 53.0166 26.0295C52.667 25.4256 52.1745 24.9165 51.5824 24.547C50.9904 24.1775 50.3166 23.9588 49.6203 23.91C49.1484 23.88 48.7037 23.6791 48.3693 23.3448C48.035 23.0106 47.8339 22.566 47.8039 22.0942C47.7551 21.3982 47.5363 20.7247 47.1667 20.1328C46.797 19.5409 46.2878 19.0487 45.6836 18.6992C45.0795 18.3498 44.3989 18.1538 43.7014 18.1283C43.0038 18.1029 42.3106 18.2489 41.6826 18.5535C41.2633 18.7563 40.7851 18.8019 40.335 18.682C39.885 18.562 39.493 18.2844 39.2305 17.8998C38.8348 17.322 38.305 16.8485 37.6865 16.5198C37.0686 16.2007 36.3839 16.0327 35.6885 16.0296C34.9797 16.0067 34.2764 16.1608 33.6421 16.4778C33.0078 16.7948 32.4626 17.2648 32.0556 17.8453C31.7963 18.2285 31.4075 18.5055 30.9605 18.6256C30.5135 18.7456 30.0381 18.7007 29.6216 18.499C28.9923 18.1952 28.2984 18.0497 27.6001 18.0753C26.9017 18.1009 26.2202 18.2967 25.6149 18.6458C25.0096 18.9949 24.4988 19.4866 24.1271 20.0782C23.7554 20.6697 23.5339 21.3431 23.4821 22.0398C23.4521 22.5115 23.2511 22.9561 22.9168 23.2904C22.5824 23.6246 22.1376 23.8256 21.6656 23.8555C20.969 23.9028 20.2948 24.1209 19.7026 24.4905C19.1103 24.8602 18.6183 25.37 18.27 25.9749C17.9216 26.5798 17.7277 27.2611 17.7053 27.9588C17.683 28.6564 17.833 29.3487 18.1419 29.9747C18.3431 30.3958 18.3858 30.8753 18.2624 31.3254C18.139 31.7755 17.8576 32.1662 17.4697 32.426C16.8928 32.8191 16.4207 33.3472 16.0944 33.9643C15.7682 34.5814 15.5977 35.2688 15.5977 35.9667C15.5977 36.6647 15.7682 37.3521 16.0944 37.9692C16.4207 38.5863 16.8928 39.1143 17.4697 39.5075C17.8562 39.7641 18.1371 40.1515 18.2605 40.5985C18.384 41.0456 18.3419 41.5222 18.1419 41.9406C17.8306 42.5681 17.6791 43.2629 17.7013 43.963C17.7235 44.6631 17.9185 45.3469 18.269 45.9535C18.6204 46.5563 19.1133 47.0647 19.705 47.4348C20.2967 47.8049 20.9696 48.0256 21.6656 48.0779C22.1376 48.1079 22.5824 48.3088 22.9168 48.6431C23.2511 48.9773 23.4521 49.422 23.4821 49.8937C23.5313 50.5903 23.7509 51.2642 24.1214 51.8562C24.492 52.4482 25.0022 52.9403 25.6074 53.2892C26.2109 53.647 26.8946 53.8479 27.5959 53.8732C28.2972 53.8986 28.9937 53.7477 29.6216 53.4345C30.0388 53.2366 30.5129 53.1937 30.9589 53.3135C31.4049 53.4332 31.7938 53.7079 32.0556 54.0881C32.4462 54.6686 32.9734 55.1442 33.5911 55.473C34.2088 55.8018 34.8979 55.9738 35.5977 55.9738C36.2974 55.9738 36.9864 55.8018 37.6041 55.473C38.2218 55.1442 38.7492 54.6686 39.1397 54.0881C39.4047 53.7065 39.7967 53.4312 40.2458 53.3115C40.6949 53.1918 41.1719 53.2354 41.5918 53.4345C42.2165 53.7478 42.91 53.8987 43.6085 53.8734C44.3069 53.848 44.9877 53.647 45.588 53.2892C46.1952 52.9427 46.7071 52.4513 47.078 51.8588C47.4488 51.2663 47.667 50.5911 47.7131 49.8937C47.7431 49.422 47.9441 48.9773 48.2784 48.6431C48.6128 48.3088 49.0576 48.1079 49.5296 48.0779C50.2264 48.0261 50.9001 47.8048 51.4919 47.4332C52.0836 47.0616 52.5755 46.551 52.9247 45.9459C53.2739 45.3409 53.4698 44.6596 53.4954 43.9615C53.521 43.2634 53.3755 42.5696 53.0716 41.9406C52.8698 41.5242 52.8249 41.0491 52.945 40.6022C53.0651 40.1554 53.3421 39.7668 53.7255 39.5075C54.3024 39.1143 54.7745 38.5863 55.1008 37.9692C55.427 37.3521 55.5977 36.6647 55.5977 35.9667C55.5977 35.2688 55.427 34.5814 55.1008 33.9643C54.7745 33.3472 54.3024 32.8191 53.7255 32.426L53.8163 32.4804ZM45.6606 45.9716C43.358 48.26 40.3333 49.6799 37.1013 49.9897C33.8693 50.2995 30.6298 49.4801 27.9342 47.6708C25.2386 45.8616 23.2537 43.1744 22.3171 40.0667C21.3805 36.9589 21.5502 33.6228 22.7975 30.6262C24.0447 27.6295 26.2923 25.1576 29.1576 23.6311C32.0229 22.1047 35.329 21.6181 38.5129 22.2541C41.6967 22.8902 44.5617 24.6097 46.62 27.1198C48.6783 29.6299 49.8028 32.7755 49.8021 36.0212C49.8036 37.871 49.4384 39.7028 48.7276 41.4108C48.0167 43.1187 46.9743 44.6688 45.6606 45.9716Z" fill="white"/>
<circle cx="35.7346" cy="35.8362" r="11.5549" fill="white"/>
<path d="M39.0573 37.1831C39.3055 37.1831 39.5091 37.2592 39.6682 37.4115C39.8304 37.5608 39.9115 37.7518 39.9115 37.9847C39.9115 38.2145 39.8304 38.4056 39.6682 38.5578C39.5059 38.7071 39.3023 38.7817 39.0573 38.7817C38.8124 38.7817 38.6088 38.7071 38.4465 38.5578C38.2843 38.4056 38.2031 38.2145 38.2031 37.9847C38.2031 37.7518 38.2827 37.5608 38.4417 37.4115C38.604 37.2592 38.8092 37.1831 39.0573 37.1831ZM39.0573 37.5458C38.9428 37.5458 38.8505 37.5921 38.7805 37.6846C38.7106 37.7742 38.6756 37.8742 38.6756 37.9847C38.6756 38.0951 38.7106 38.1951 38.7805 38.2847C38.8505 38.3742 38.9428 38.419 39.0573 38.419C39.1719 38.419 39.2641 38.3742 39.3341 38.2847C39.4041 38.1951 39.4391 38.0951 39.4391 37.9847C39.4391 37.8742 39.4041 37.7742 39.3341 37.6846C39.2641 37.5921 39.1719 37.5458 39.0573 37.5458ZM40.8182 37.1562L41.1427 37.3085L39.2148 40.7878L38.8855 40.6311L40.8182 37.1562ZM40.9805 39.1399C41.2286 39.1399 41.4322 39.2161 41.5913 39.3683C41.7535 39.5176 41.8347 39.7086 41.8347 39.9415C41.8347 40.1713 41.7535 40.3624 41.5913 40.5146C41.429 40.6639 41.2254 40.7385 40.9805 40.7385C40.7355 40.7385 40.5319 40.6639 40.3696 40.5146C40.2074 40.3624 40.1263 40.1713 40.1263 39.9415C40.1263 39.7086 40.2058 39.5176 40.3649 39.3683C40.5271 39.2161 40.7323 39.1399 40.9805 39.1399ZM40.9805 39.5026C40.8659 39.5026 40.7737 39.5489 40.7037 39.6415C40.6337 39.731 40.5987 39.831 40.5987 39.9415C40.5987 40.0519 40.6337 40.1519 40.7037 40.2415C40.7737 40.3311 40.8659 40.3758 40.9805 40.3758C41.095 40.3758 41.1873 40.3311 41.2573 40.2415C41.3272 40.1519 41.3622 40.0519 41.3622 39.9415C41.3622 39.831 41.3272 39.731 41.2573 39.6415C41.1873 39.5489 41.095 39.5026 40.9805 39.5026Z" fill="#C22033"/>
<path d="M40.978 32.719C40.3216 31.4949 39.3858 30.8828 38.1706 30.8828C36.9554 30.8828 36.0195 31.4949 35.3631 32.719C34.8398 33.6947 34.5781 34.8478 34.5781 36.1784C34.5781 37.4823 34.8442 38.6266 35.3764 39.6112C36.0329 40.8353 36.9642 41.4473 38.1706 41.4473V39.7442C37.5674 39.7442 37.115 39.2697 36.8134 38.3205C36.6005 37.6553 36.4941 36.9323 36.4941 36.1518C36.4941 35.3623 36.6005 34.6394 36.8134 33.983C37.115 33.0516 37.5674 32.5859 38.1706 32.5859C38.7826 32.5859 39.235 33.0516 39.5277 33.983C39.7406 34.6571 39.8471 35.38 39.8471 36.1518L41.763 36.1784C41.763 34.8478 41.5014 33.6947 40.978 32.719Z" fill="#C22033"/>
<path d="M30.7821 32.8515H29.4648V31.1484H32.738V41.1807H30.7821V32.8515Z" fill="#C22033"/>
</svg>
