<svg width="152" height="33" viewBox="0 0 152 33" fill="none" xmlns="http://www.w3.org/2000/svg">
<rect width="152" height="25" fill="black"/>
<path d="M33.2128 11.516H36.4768V7.952H38.2408V17H36.4768V12.956H33.2128V17H31.4488V7.952H33.2128V11.516ZM44.1787 17.24C42.8507 17.24 41.7667 16.772 40.9267 15.836C40.1107 14.932 39.7027 13.808 39.7027 12.464C39.7027 11.144 40.1187 10.024 40.9507 9.104C41.7907 8.176 42.8667 7.712 44.1787 7.712C45.4907 7.712 46.5707 8.18 47.4187 9.116C48.2427 10.028 48.6547 11.144 48.6547 12.464C48.6547 13.808 48.2467 14.932 47.4307 15.836C46.5907 16.772 45.5067 17.24 44.1787 17.24ZM44.1787 9.452C43.4107 9.452 42.7707 9.756 42.2587 10.364C41.7707 10.932 41.5267 11.608 41.5267 12.392C41.5267 13.144 41.7787 13.84 42.2827 14.48C42.8187 15.16 43.4507 15.5 44.1787 15.5C44.9067 15.5 45.5387 15.16 46.0747 14.48C46.5787 13.84 46.8307 13.144 46.8307 12.392C46.8307 11.608 46.5867 10.932 46.0987 10.364C45.5867 9.756 44.9467 9.452 44.1787 9.452ZM60.2382 8.24V10.352C59.7102 9.712 59.0462 9.392 58.2462 9.392C57.4222 9.392 56.7622 9.716 56.2662 10.364C55.8102 10.948 55.5822 11.664 55.5822 12.512C55.5822 13.328 55.8182 14.028 56.2902 14.612C56.7942 15.244 57.4422 15.56 58.2342 15.56C59.0102 15.56 59.6782 15.24 60.2382 14.6V16.7C59.4782 17.06 58.7942 17.24 58.1862 17.24C56.9142 17.24 55.8502 16.772 54.9942 15.836C54.1702 14.932 53.7582 13.836 53.7582 12.548C53.7582 11.204 54.1622 10.072 54.9702 9.152C55.8102 8.192 56.8942 7.712 58.2222 7.712C58.9262 7.712 59.5982 7.888 60.2382 8.24ZM63.7612 11.516H67.0252V7.952H68.7892V17H67.0252V12.956H63.7612V17H61.9972V7.952H63.7612V11.516ZM72.4472 7.952V17H70.6832V7.952H72.4472ZM85.8748 17L85.1548 11.384H85.1308L83.0788 17.12H82.4668L80.4868 11.384H80.4628L79.6588 17H77.8828L79.4068 7.712H80.6548L82.8868 13.676L85.0228 7.712H86.2948L87.6508 17H85.8748ZM90.794 7.952V17H89.03V7.952H90.794ZM92.6769 17V7.712H93.9489L98.7129 14.036H98.7369V7.952H100.501V17.18H99.2289L94.4649 10.856H94.4409V17H92.6769ZM104.146 11.516H107.41V7.952H109.174V17H107.41V12.956H104.146V17H102.382V7.952H104.146V11.516ZM121.185 8.24V10.352C120.657 9.712 119.993 9.392 119.193 9.392C118.369 9.392 117.709 9.716 117.213 10.364C116.757 10.948 116.529 11.664 116.529 12.512C116.529 13.328 116.765 14.028 117.237 14.612C117.741 15.244 118.389 15.56 119.181 15.56C119.957 15.56 120.625 15.24 121.185 14.6V16.7C120.425 17.06 119.741 17.24 119.133 17.24C117.861 17.24 116.797 16.772 115.941 15.836C115.117 14.932 114.705 13.836 114.705 12.548C114.705 11.204 115.109 10.072 115.917 9.152C116.757 8.192 117.841 7.712 119.169 7.712C119.873 7.712 120.545 7.888 121.185 8.24ZM124.708 7.952V17H122.944V7.952H124.708ZM129.531 9.488V17H127.767V9.488H125.943V7.952H131.355V9.488H129.531ZM134.573 12.848L131.765 7.952H133.817L135.401 11.096L137.129 7.952H139.193L136.337 12.848V17H134.573V12.848Z" fill="white"/>
<path d="M10.4287 8L7 16.5846H14.0766L17.3016 8H10.4287Z" fill="white"/>
<path d="M8 25H0V33L8 25Z" fill="black"/>
</svg>
