
<svg width="73" height="40" viewBox="0 0 73 40" fill="none" xmlns="http://www.w3.org/2000/svg">
<g clip-path="url(#clip0_4029_8828)">
<path d="M26.6991 36.0247V33.4297H27.5021V39.8663H26.6991V36.7768H23.635V39.8663H22.832V33.4297H23.635V36.0247H26.6991Z" fill="#C22033"/>
<path d="M35.3841 36.647C35.365 37.5286 35.0013 38.3676 34.3711 38.9843C33.7409 39.601 32.8942 39.9463 32.0124 39.9463C31.1306 39.9463 30.2839 39.601 29.6537 38.9843C29.0234 38.3676 28.6598 37.5286 28.6406 36.647C28.6598 35.7654 29.0234 34.9264 29.6537 34.3097C30.2839 33.693 31.1306 33.3477 32.0124 33.3477C32.8942 33.3477 33.7409 33.693 34.3711 34.3097C35.0013 34.9264 35.365 35.7654 35.3841 36.647ZM34.5891 36.647C34.5891 35.2302 33.5301 34.044 32.0195 34.044C30.509 34.044 29.4484 35.2302 29.4484 36.647C29.4398 36.9899 29.5 37.3311 29.6254 37.6504C29.7507 37.9697 29.9387 38.2607 30.1782 38.5063C30.4177 38.7518 30.704 38.947 31.0201 39.0802C31.3362 39.2134 31.6757 39.2821 32.0187 39.2821C32.3618 39.2821 32.7013 39.2134 33.0174 39.0802C33.3335 38.947 33.6198 38.7518 33.8593 38.5063C34.0988 38.2607 34.2868 37.9697 34.4121 37.6504C34.5375 37.3311 34.5976 36.9899 34.5891 36.647Z" fill="#C22033"/>
<path d="M38.3232 39.8663H37.5203V34.1627H35.9922V33.4297H39.8513V34.1627H38.3232V39.8663Z" fill="#C22033"/>
<path d="M40.9102 33.4297H44.367V34.1627H41.7116V35.9643H44.2907V36.6989H41.7116V39.1333H44.367V39.8663H40.9102V33.4297Z" fill="#C22033"/>
<path d="M46.5921 39.1317H48.5463V39.8663H45.7891V33.4297H46.5921V39.1317Z" fill="#C22033"/>
<path d="M52.3611 34.6473C52.2645 34.4583 52.1159 34.3008 51.9328 34.1935C51.7497 34.0862 51.5397 34.0334 51.3276 34.0415C50.8156 34.0415 50.2511 34.3913 50.2511 34.9542C50.2511 35.4583 50.7472 35.7222 51.1479 35.8764L51.609 36.0561C52.5233 36.4139 53.1991 36.918 53.1991 37.9944C53.1991 39.1631 52.2943 39.9995 51.1415 39.9995C50.6462 39.9982 50.1689 39.8136 49.8016 39.4812C49.4343 39.1488 49.203 38.6923 49.1523 38.1996L49.9633 38.0278C49.9601 38.1912 49.9897 38.3535 50.0505 38.5051C50.1113 38.6568 50.202 38.7946 50.3172 38.9105C50.4324 39.0264 50.5697 39.1179 50.721 39.1796C50.8722 39.2413 51.0344 39.272 51.1977 39.2697C51.3611 39.2675 51.5224 39.2324 51.6719 39.1666C51.8214 39.1007 51.9561 39.0055 52.0681 38.8865C52.1801 38.7675 52.2669 38.6272 52.3236 38.474C52.3802 38.3207 52.4054 38.1576 52.3977 37.9944C52.3977 37.3027 51.8428 37.0038 51.2846 36.7733L50.8394 36.584C50.1048 36.266 49.4401 35.851 49.4401 34.9542C49.4401 33.9127 50.3624 33.2894 51.3355 33.2894C51.6744 33.2829 52.0084 33.3704 52.3006 33.5422C52.5928 33.7139 52.8317 33.9633 52.9908 34.2625L52.3611 34.6473Z" fill="#C22033"/>
<path d="M33.3922 6.40625H30.4648V26.4683H33.3922V6.40625Z" fill="white"/>
<path d="M50.8816 26.4706L40.9595 10.9641H40.9039V26.4706H37.9766V6.41016H41.1758L50.9357 21.6717H50.9898V6.41016H53.9171V26.4706H50.8816Z" fill="white"/>
<path d="M22.8295 6.41016V19.3916L17.8955 6.41016H17.8971H17.8955H14.8059H14.7503L14.7789 6.48012L8.97672 21.4555L3.14908 6.41016H0.00390625L8.08309 26.4722H9.8449L16.3261 10.3217L22.8295 26.4722H25.7584V6.41016H22.8295Z" fill="white"/>
<path d="M61.318 15.181V6.41016H58.3906V26.4706H61.318V16.7473V16.3577V15.181Z" fill="white"/>
<path d="M72.3442 6.41016H68.9892L61.3711 16.3593L68.9892 26.4706H72.5939L64.7595 16.3593L72.3442 6.41016Z" fill="white"/>
<path d="M31.8832 0L30.4648 3.66195H33.3922L34.7263 0H31.8832Z" fill="#C22033"/>
</g>
<defs>
<clipPath id="clip0_4029_8828">
<rect width="72.5886" height="40" fill="white"/>
</clipPath>
</defs>
</svg>
