
<svg width="73" height="41" viewBox="0 0 73 41" fill="none" xmlns="http://www.w3.org/2000/svg">
<g clip-path="url(#clip0_6081_11843)">
<path d="M26.8903 36.8217V34.2267H27.6933V40.6633H26.8903V37.5738H23.8262V40.6633H23.0232V34.2267H23.8262V36.8217H26.8903Z" fill="#C22033"/>
<path d="M35.5737 37.445C35.5546 38.3265 35.191 39.1655 34.5607 39.7822C33.9305 40.3989 33.0838 40.7443 32.202 40.7443C31.3202 40.7443 30.4735 40.3989 29.8433 39.7822C29.213 39.1655 28.8494 38.3265 28.8302 37.445C28.8494 36.5634 29.213 35.7244 29.8433 35.1077C30.4735 34.491 31.3202 34.1456 32.202 34.1456C33.0838 34.1456 33.9305 34.491 34.5607 35.1077C35.191 35.7244 35.5546 36.5634 35.5737 37.445ZM34.7787 37.445C34.7787 36.0282 33.7197 34.842 32.2091 34.842C30.6986 34.842 29.638 36.0282 29.638 37.445C29.6295 37.7879 29.6896 38.129 29.815 38.4484C29.9403 38.7677 30.1283 39.0587 30.3678 39.3042C30.6073 39.5498 30.8936 39.7449 31.2097 39.8782C31.5258 40.0114 31.8653 40.0801 32.2084 40.0801C32.5514 40.0801 32.8909 40.0114 33.207 39.8782C33.5231 39.7449 33.8094 39.5498 34.0489 39.3042C34.2884 39.0587 34.4764 38.7677 34.6017 38.4484C34.7271 38.129 34.7872 37.7879 34.7787 37.445Z" fill="#C22033"/>
<path d="M38.5122 40.6633H37.7092V34.9597H36.1812V34.2267H40.0403V34.9597H38.5122V40.6633Z" fill="#C22033"/>
<path d="M41.1009 34.2267H44.5577V34.9597H41.9023V36.7613H44.4814V37.4959H41.9023V39.9303H44.5577V40.6633H41.1009V34.2267Z" fill="#C22033"/>
<path d="M46.779 39.9287H48.7332V40.6633H45.976V34.2267H46.779V39.9287Z" fill="#C22033"/>
<path d="M52.551 35.4479C52.4544 35.2588 52.3058 35.1014 52.1227 34.994C51.9396 34.8867 51.7296 34.834 51.5174 34.842C51.0054 34.842 50.441 35.1919 50.441 35.7547C50.441 36.2588 50.9371 36.5227 51.3378 36.677L51.7989 36.8567C52.7132 37.2144 53.389 37.7185 53.389 38.795C53.389 39.9637 52.4842 40.8001 51.3314 40.8001C50.8361 40.7987 50.3587 40.6141 49.9915 40.2817C49.6242 39.9494 49.3929 39.4928 49.3422 39.0001L50.1532 38.8284C50.1499 38.9917 50.1796 39.154 50.2404 39.3057C50.3012 39.4573 50.3919 39.5952 50.5071 39.711C50.6223 39.8269 50.7596 39.9184 50.9109 39.9801C51.0621 40.0419 51.2243 40.0725 51.3876 40.0703C51.551 40.068 51.7122 40.0329 51.8618 39.9671C52.0113 39.9013 52.146 39.806 52.258 39.687C52.3699 39.568 52.4568 39.4277 52.5134 39.2745C52.5701 39.1212 52.5953 38.9582 52.5876 38.795C52.5876 38.1033 52.0326 37.8044 51.4745 37.5738L51.0293 37.3846C50.2947 37.0666 49.63 36.6515 49.63 35.7547C49.63 34.7132 50.5523 34.0899 51.5254 34.0899C51.8643 34.0834 52.1983 34.1709 52.4905 34.3427C52.7827 34.5145 53.0215 34.7638 53.1807 35.0631L52.551 35.4479Z" fill="#C22033"/>
<path d="M33.583 7.20642H30.6556V27.2684H33.583V7.20642Z" fill="black"/>
<path d="M51.069 27.2684L41.147 11.762H41.0913V27.2684H38.164V7.20801H41.3632L51.1231 22.4696H51.1772V7.20801H54.1045V27.2684H51.069Z" fill="black"/>
<path d="M23.0185 7.20801V20.1894L18.0845 7.20801H18.086H18.0845H14.9949H14.9393L14.9679 7.27797L9.16571 22.2533L3.33808 7.20801H0.192902L8.27209 27.27H10.0339L16.5151 11.1196L23.0185 27.27H25.9474V7.20801H23.0185Z" fill="black"/>
<path d="M61.5047 15.9789V7.20801H58.5774V27.2684H61.5047V17.5451V17.1555V15.9789Z" fill="black"/>
<path d="M72.5319 7.20801H69.1768L61.5588 17.1571L69.1768 27.2684H72.7815L64.9472 17.1571L72.5319 7.20801Z" fill="black"/>
<path d="M32.074 0.800049L30.6556 4.462H33.583L34.917 0.800049H32.074Z" fill="#C22033"/>
</g>
<defs>
<clipPath id="clip0_6081_11843">
<rect width="72.5887" height="40" fill="white" transform="translate(0.192902 0.800049)"/>
</clipPath>
</defs>
</svg>
